<?xml version="1.0" standalone="no"?>
<!DOCTYPE svg PUBLIC "-//W3C//DTD SVG 1.1//EN" "http://www.w3.org/Graphics/SVG/1.1/DTD/svg11.dtd" >
<svg xmlns="http://www.w3.org/2000/svg" xmlns:xlink="http://www.w3.org/1999/xlink" version="1.1">
<metadata>
Created by FontForge 20190801 at Thu Dec  2 14:13:09 2010
 By Jimmy Wärting
Copyright (c) 2010 by Luc[as] de Groot. Published by LucasFonts www.LucasFonts.com. All rights reserved.
</metadata>
<defs>
<font id="TheSansArabic-SemiLight" horiz-adv-x="321" >
  <font-face 
    font-family="TheSansArabic SemiLight"
    font-weight="400"
    font-stretch="normal"
    units-per-em="1000"
    panose-1="2 11 4 2 5 3 2 2 2 3"
    ascent="740"
    descent="-260"
    x-height="497"
    cap-height="675"
    bbox="-261 -320 1566 980"
    underline-thickness="60"
    underline-position="-221"
    stemh="61"
    stemv="74"
    unicode-range="U+000D-FEFC"
  />
<missing-glyph horiz-adv-x="550" 
d="M300 150h-150v250h50v-200h100v-50zM500 50h-450v450h450v-450zM350 350h-100v50h150v-250h-50v100h-100v50h100v50zM100 100h350v350h-350v-350z" />
    <glyph glyph-name="uniFEF5" unicode="&#xfedf;&#xfe82;" horiz-adv-x="604" arabic-form="isolated" 
d="M145 710l167 -553h-78l-164 542zM499 0h-386v61h310v644h76v-705zM-22 768v58l82 26c4 -4 36 -35 77 -35c46 0 76 31 80 35v-59c-5 -3 -33 -28 -86 -28c-44 0 -72 24 -77 27z" />
    <glyph glyph-name="uniFEF6" unicode="&#xfee0;&#xfe82;" horiz-adv-x="638" arabic-form="final" 
d="M113 0v61h310v644h76v-644h140v-61h-526zM145 710l167 -553h-78l-164 542zM-22 768v58l82 26c4 -4 36 -35 77 -35c46 0 76 31 80 35v-59c-5 -3 -33 -28 -86 -28c-44 0 -72 24 -77 27z" />
    <glyph glyph-name="uniFEF7" unicode="&#xfedf;&#xfe84;" horiz-adv-x="604" arabic-form="isolated" 
d="M182 580l130 -423h-78l-130 423h78zM499 0h-386v61h310v644h76v-705zM18 634v47c24 0 44 0 62 -3c-13 7 -22 21 -22 40c0 44 37 82 109 82c19 0 38 -2 52 -5l-8 -47c-14 3 -32 6 -48 6c-31 0 -49 -15 -49 -35c0 -23 21 -38 69 -38h59v-47h-224z" />
    <glyph glyph-name="uniFEF8" unicode="&#xfee0;&#xfe84;" horiz-adv-x="638" arabic-form="final" 
d="M639 0h-526v61h310v644h76v-644h140v-61zM182 580l130 -423h-78l-130 423h78zM18 634v47c24 0 44 0 62 -3c-13 7 -22 21 -22 40c0 44 37 82 109 82c19 0 38 -2 52 -5l-8 -47c-14 3 -32 6 -48 6c-31 0 -49 -15 -49 -35c0 -23 21 -38 69 -38h59v-47h-224z" />
    <glyph glyph-name="uniFEF9" unicode="&#xfedf;&#xfe88;" horiz-adv-x="604" arabic-form="isolated" 
d="M145 710l167 -553h-78l-164 542zM499 0h-386v61h310v644h76v-705zM137 -230v47c24 0 46 0 63 -4c-12 7 -22 21 -22 40c0 46 38 84 109 84c19 0 37 -2 52 -6l-8 -48c-14 3 -31 6 -47 6c-31 0 -49 -14 -49 -34c0 -24 21 -38 68 -38h59v-47h-225z" />
    <glyph glyph-name="uniFEFA" unicode="&#xfee0;&#xfe88;" horiz-adv-x="638" arabic-form="final" 
d="M639 0h-526v61h310v644h76v-644h140v-61zM145 710l167 -553h-78l-164 542zM137 -230v47c24 0 46 0 63 -4c-12 7 -22 21 -22 40c0 46 38 84 109 84c19 0 37 -2 52 -6l-8 -48c-14 3 -31 6 -47 6c-31 0 -49 -14 -49 -34c0 -24 21 -38 68 -38h59v-47h-225z" />
    <glyph glyph-name="uniFEFB" unicode="&#xfedf;&#xfe8e;" horiz-adv-x="604" arabic-form="isolated" 
d="M145 710l167 -553h-78l-164 542zM499 0h-386v61h310v644h76v-705z" />
    <glyph glyph-name="uniFEFC" unicode="&#xfee0;&#xfe8e;" horiz-adv-x="638" arabic-form="final" 
d="M639 0h-526v61h310v644h76v-644h140v-61zM145 710l167 -553h-78l-164 542z" />
    <glyph glyph-name="uniFC6A" unicode="&#xfe92;&#xfeae;" horiz-adv-x="792" arabic-form="final" 
d="M96 -258c-40 0 -81 7 -112 16l10 64c33 -12 70 -20 108 -20c89 0 143 44 143 185v483h407v-409h140v-61h-216v409h-254v-414c0 -148 -56 -253 -226 -253zM567 -145c0 27 21 48 48 48s48 -20 48 -48c0 -27 -21 -48 -48 -48s-48 21 -48 48z" />
    <glyph glyph-name="uniFC6D" unicode="&#xfe92;&#xfee6;" horiz-adv-x="1042" arabic-form="final" 
d="M902 470v-409h140v-61h-216v409h-255v-366c0 -183 -90 -274 -257 -274c-128 0 -242 70 -242 277c0 68 8 134 24 194l79 15c-18 -67 -27 -135 -27 -202c0 -178 92 -223 175 -223c98 0 172 51 172 208v432h407zM267 426c0 26 22 49 48 49s49 -22 49 -49s-23 -48 -49 -48
c-27 0 -48 21 -48 48zM815 -145c0 27 21 48 48 48s48 -20 48 -48c0 -27 -21 -48 -48 -48s-48 21 -48 48z" />
    <glyph glyph-name="uniFC70" unicode="&#xfe98;&#xfeae;" horiz-adv-x="792" arabic-form="final" 
d="M96 -258c-40 0 -81 7 -112 16l10 64c33 -12 70 -20 108 -20c89 0 143 44 143 185v483h407v-409h140v-61h-216v409h-254v-414c0 -148 -56 -253 -226 -253zM496 613c0 26 21 47 47 47s48 -20 48 -47c0 -26 -21 -47 -48 -47c-26 0 -47 20 -47 47zM635 613c0 26 21 47 47 47
s47 -20 47 -47c0 -26 -21 -47 -47 -47s-47 20 -47 47z" />
    <glyph glyph-name="uniFC79" unicode="&#xfe9c;&#xfee6;" horiz-adv-x="1042" arabic-form="final" 
d="M902 470v-409h140v-61h-216v409h-255v-366c0 -183 -90 -274 -257 -274c-128 0 -242 70 -242 277c0 68 8 134 24 194l79 15c-18 -67 -27 -135 -27 -202c0 -178 92 -223 175 -223c98 0 172 51 172 208v432h407zM267 426c0 26 22 49 48 49s49 -22 49 -49s-23 -48 -49 -48
c-27 0 -48 21 -48 48zM745 611c0 26 21 48 47 48s47 -21 47 -48c0 -25 -21 -47 -47 -47s-47 21 -47 47zM885 611c0 26 21 48 47 48s47 -21 47 -48c0 -25 -21 -47 -47 -47s-47 21 -47 47zM815 718c0 26 21 48 47 48s47 -21 47 -48c0 -25 -21 -47 -47 -47s-47 21 -47 47z" />
    <glyph glyph-name="uniFC76" unicode="&#xfe9c;&#xfeae;" horiz-adv-x="792" arabic-form="final" 
d="M96 -258c-40 0 -81 7 -112 16l10 64c33 -12 70 -20 108 -20c89 0 143 44 143 185v483h407v-409h140v-61h-216v409h-254v-414c0 -148 -56 -253 -226 -253zM496 611c0 26 21 48 47 48s47 -21 47 -48c0 -25 -21 -47 -47 -47s-47 21 -47 47zM636 611c0 26 21 48 47 48
s47 -21 47 -48c0 -25 -21 -47 -47 -47s-47 21 -47 47zM566 718c0 26 21 48 47 48s47 -21 47 -48c0 -25 -21 -47 -47 -47s-47 21 -47 47z" />
    <glyph glyph-name="uniFC8A" unicode="&#xfee8;&#xfeae;" horiz-adv-x="792" arabic-form="final" 
d="M96 -258c-40 0 -81 7 -112 16l10 64c33 -12 70 -20 108 -20c89 0 143 44 143 185v483h407v-409h140v-61h-216v409h-254v-414c0 -148 -56 -253 -226 -253zM565 612c0 26 22 49 48 49s49 -22 49 -49s-23 -48 -49 -48c-27 0 -48 21 -48 48z" />
    <glyph glyph-name="uniFC8D" unicode="&#xfee8;&#xfee6;" horiz-adv-x="1042" arabic-form="final" 
d="M902 470v-409h140v-61h-216v409h-255v-366c0 -183 -90 -274 -257 -274c-128 0 -242 70 -242 277c0 68 8 134 24 194l79 15c-18 -67 -27 -135 -27 -202c0 -178 92 -223 175 -223c98 0 172 51 172 208v432h407zM267 426c0 26 22 49 48 49s49 -22 49 -49s-23 -48 -49 -48
c-27 0 -48 21 -48 48zM815 612c0 26 22 49 48 49s49 -22 49 -49s-23 -48 -49 -48c-27 0 -48 21 -48 48z" />
    <glyph glyph-name="uniFC91" unicode="&#xfef4;&#xfeae;" horiz-adv-x="795" arabic-form="final" 
d="M96 -258c-40 0 -81 7 -112 16l10 64c33 -12 70 -20 108 -20c89 0 143 44 143 185v483h410v-409h140v-61h-216v409h-257v-414c0 -148 -56 -253 -226 -253zM497 -146c0 26 21 48 47 48s48 -21 48 -48c0 -26 -22 -47 -48 -47s-47 21 -47 47zM636 -146c0 26 21 48 47 48
s47 -21 47 -48c0 -26 -21 -47 -47 -47s-47 21 -47 47z" />
    <glyph glyph-name="uniFC94" unicode="&#xfef4;&#xfee6;" horiz-adv-x="1042" arabic-form="final" 
d="M902 470v-409h140v-61h-216v409h-255v-366c0 -183 -90 -274 -257 -274c-128 0 -242 70 -242 277c0 68 8 134 24 194l79 15c-18 -67 -27 -135 -27 -202c0 -178 92 -223 175 -223c98 0 172 51 172 208v432h407zM267 426c0 26 22 49 48 49s49 -22 49 -49s-23 -48 -49 -48
c-27 0 -48 21 -48 48zM746 -146c0 26 21 48 47 48s48 -21 48 -48c0 -26 -22 -47 -48 -47s-47 21 -47 47zM885 -146c0 26 21 48 47 48s47 -21 47 -48c0 -26 -21 -47 -47 -47s-47 21 -47 47z" />
    <glyph glyph-name="uniFDF2" unicode="&#xfedf;&#xfee0;&#xfeea;" horiz-adv-x="1325" arabic-form="isolated" 
d="M332 0c-191 0 -260 91 -260 234c0 131 81 247 247 247c107 0 198 -35 198 -35v-385h271v567h76v-567h279v644h77v-705h-888zM442 61v334s-53 25 -132 25c-99 0 -161 -70 -161 -177c0 -123 57 -182 195 -182h98z" />
    <glyph glyph-name="uni0621" unicode="&#x621;" horiz-adv-x="486" arabic-form="isolated" 
d="M53 0v60c52 0 100 -2 130 -5c-38 15 -59 49 -59 94c0 73 52 149 188 149c32 0 62 -3 84 -7l-9 -62c-18 4 -53 9 -84 9c-68 0 -103 -35 -103 -84c0 -52 39 -94 144 -94h90v-60h-381z" />
    <glyph glyph-name="uni0622" unicode="&#x622;" horiz-adv-x="286" arabic-form="isolated" 
d="M105 0v705h76v-705h-76zM24 760v58l82 26c4 -4 36 -35 77 -35c46 0 76 31 80 35v-59c-5 -3 -33 -28 -86 -28c-44 0 -72 24 -77 27z" />
    <glyph glyph-name="uniFE82" unicode="&#x622;" arabic-form="final" 
d="M105 0v705h76v-644h140v-61h-216zM24 760v58l82 26c4 -4 36 -35 77 -35c46 0 76 31 80 35v-59c-5 -3 -33 -28 -86 -28c-44 0 -72 24 -77 27z" />
    <glyph glyph-name="uni0623" unicode="&#x623;" horiz-adv-x="286" arabic-form="isolated" 
d="M105 0v675h76v-675h-76zM14 730v48c30 0 58 -2 76 -5c-22 9 -33 33 -33 52c0 45 34 93 122 93c20 0 38 -2 52 -5l-9 -47c-10 1 -30 4 -49 4c-39 0 -58 -17 -58 -44s21 -48 81 -48h54v-48h-236z" />
    <glyph glyph-name="uniFE84" unicode="&#x623;" arabic-form="final" 
d="M105 0v675h76v-614h140v-61h-216zM14 730v48c30 0 58 -2 76 -5c-22 9 -33 33 -33 52c0 45 34 93 122 93c20 0 38 -2 52 -5l-9 -47c-10 1 -30 4 -49 4c-39 0 -58 -17 -58 -44s21 -48 81 -48h54v-48h-236z" />
    <glyph glyph-name="uni0624" unicode="&#x624;" horiz-adv-x="621" arabic-form="isolated" 
d="M234 -253c-78 0 -158 15 -158 15l6 66s87 -21 161 -21c111 0 199 42 199 165v28h-110c-191 0 -260 91 -260 234c0 131 81 247 247 247c107 0 198 -35 198 -35v-472c0 -109 -71 -227 -283 -227zM442 61v334s-53 25 -132 25c-99 0 -161 -70 -161 -177
c0 -123 57 -182 195 -182h98zM181 568v48c30 0 58 -2 76 -5c-22 9 -33 33 -33 52c0 45 34 93 122 93c20 0 38 -2 52 -5l-9 -47c-10 1 -30 4 -49 4c-39 0 -58 -17 -58 -44s21 -48 81 -48h54v-48h-236z" />
    <glyph glyph-name="uniFE86" unicode="&#x624;" horiz-adv-x="656" arabic-form="final" 
d="M234 -253c-78 0 -158 15 -158 15l6 66s87 -21 161 -21c111 0 199 42 199 165v28h-110c-191 0 -260 91 -260 234c0 131 81 247 247 247c107 0 198 -35 198 -35v-385h139v-61h-139v-26c0 -109 -71 -227 -283 -227zM442 61v334s-53 25 -132 25c-99 0 -161 -70 -161 -177
c0 -123 57 -182 195 -182h98zM183 568v48c30 0 58 -2 76 -5c-22 9 -33 33 -33 52c0 45 34 93 122 93c20 0 38 -2 52 -5l-9 -47c-10 1 -30 4 -49 4c-39 0 -58 -17 -58 -44s21 -48 81 -48h54v-48h-236z" />
    <glyph glyph-name="uni0625" unicode="&#x625;" horiz-adv-x="286" arabic-form="isolated" 
d="M105 0v705h76v-705h-76zM19 -246v47c24 0 46 0 63 -4c-12 7 -22 21 -22 40c0 46 38 84 109 84c19 0 37 -2 52 -6l-8 -48c-14 3 -31 6 -47 6c-31 0 -49 -14 -49 -34c0 -24 21 -38 68 -38h59v-47h-225z" />
    <glyph glyph-name="uniFE88" unicode="&#x625;" arabic-form="final" 
d="M105 0v705h76v-644h140v-61h-216zM19 -246v47c24 0 46 0 63 -4c-12 7 -22 21 -22 40c0 46 38 84 109 84c19 0 37 -2 52 -6l-8 -48c-14 3 -31 6 -47 6c-31 0 -49 -14 -49 -34c0 -24 21 -38 68 -38h59v-47h-225z" />
    <glyph glyph-name="uni0626" unicode="&#x626;" horiz-adv-x="1002" arabic-form="isolated" 
d="M601 0h-178c-245 0 -343 97 -343 289c0 63 16 131 34 170l82 15c-24 -48 -40 -118 -40 -175c0 -157 60 -238 278 -238h92v401s85 19 175 19c163 0 220 -81 220 -218v-143h-75v132c0 120 -46 168 -154 168c-45 0 -91 -10 -91 -10v-410zM59 561v48c30 0 58 -2 76 -5
c-22 9 -33 33 -33 52c0 45 34 93 122 93c20 0 38 -2 52 -5l-9 -47c-10 1 -30 4 -49 4c-39 0 -58 -17 -58 -44s21 -48 81 -48h54v-48h-236z" />
    <glyph glyph-name="uniFE8A" unicode="&#x626;" horiz-adv-x="1030" arabic-form="final" 
d="M601 0h-178c-245 0 -343 97 -343 289c0 63 16 131 34 170l82 15c-24 -48 -40 -118 -40 -175c0 -157 60 -238 278 -238h92v401s85 19 175 19c163 0 220 -81 220 -218v-202h109v-61h-184v252c0 120 -46 168 -154 168c-45 0 -91 -10 -91 -10v-410zM59 561v48
c30 0 58 -2 76 -5c-22 9 -33 33 -33 52c0 45 34 93 122 93c20 0 38 -2 52 -5l-9 -47c-10 1 -30 4 -49 4c-39 0 -58 -17 -58 -44s21 -48 81 -48h54v-48h-236z" />
    <glyph glyph-name="uniFE8B" unicode="&#x626;" arabic-form="initial" 
d="M216 0h-231c-20 0 -60 11 -60 31c0 19 40 30 60 30h155v409h76v-470zM41 525v48c30 0 58 -2 76 -5c-22 9 -33 33 -33 52c0 45 34 93 122 93c20 0 38 -2 52 -5l-9 -47c-10 1 -30 4 -49 4c-39 0 -58 -17 -58 -44s21 -48 81 -48h54v-48h-236z" />
    <glyph glyph-name="uniFE8C" unicode="&#x626;" horiz-adv-x="356" arabic-form="medial" 
d="M356 0h-371c-20 0 -60 11 -60 31c0 19 40 30 60 30h155v409h76v-409h140v-61zM41 525v48c30 0 58 -2 76 -5c-22 9 -33 33 -33 52c0 45 34 93 122 93c20 0 38 -2 52 -5l-9 -47c-10 1 -30 4 -49 4c-39 0 -58 -17 -58 -44s21 -48 81 -48h54v-48h-236z" />
    <glyph glyph-name="uni0627" unicode="&#x627;" horiz-adv-x="286" arabic-form="isolated" 
d="M105 0v705h76v-705h-76z" />
    <glyph glyph-name="uniFE8E" unicode="&#x627;" arabic-form="final" 
d="M105 0v705h76v-644h140v-61h-216z" />
    <glyph glyph-name="uni0628" unicode="&#x628;" horiz-adv-x="798" arabic-form="isolated" 
d="M693 0h-270c-245 0 -343 97 -343 289c0 63 16 131 34 170l82 15c-24 -48 -40 -118 -40 -175c0 -157 60 -238 278 -238h183v409h76v-470zM358 -145c0 27 21 48 48 48s48 -20 48 -48c0 -27 -21 -48 -48 -48s-48 21 -48 48z" />
    <glyph glyph-name="uniFE90" unicode="&#x628;" horiz-adv-x="833" arabic-form="final" 
d="M833 0h-410c-245 0 -343 97 -343 289c0 63 16 131 34 170l82 15c-24 -48 -40 -118 -40 -175c0 -157 60 -238 278 -238h183v409h76v-409h140v-61zM358 -145c0 27 21 48 48 48s48 -20 48 -48c0 -27 -21 -48 -48 -48s-48 21 -48 48z" />
    <glyph glyph-name="uniFE91" unicode="&#x628;" arabic-form="initial" 
d="M216 0h-231c-20 0 -60 11 -60 31c0 19 40 30 60 30h155v409h76v-470zM124 -145c0 27 21 48 48 48s48 -20 48 -48c0 -27 -21 -48 -48 -48s-48 21 -48 48z" />
    <glyph glyph-name="uniFE92" unicode="&#x628;" horiz-adv-x="356" arabic-form="medial" 
d="M-15 0c-20 0 -60 11 -60 31c0 19 40 30 60 30h155v409h76v-409h140v-61h-371zM128 -145c0 27 21 48 48 48s48 -20 48 -48c0 -27 -21 -48 -48 -48s-48 21 -48 48z" />
    <glyph glyph-name="uni0629" unicode="&#x629;" horiz-adv-x="613" arabic-form="isolated" 
d="M527 0h-195c-191 0 -260 91 -260 233c0 133 83 248 245 248c139 0 210 -79 210 -222v-259zM452 61v182c0 128 -53 177 -142 177c-99 0 -161 -70 -161 -178c0 -123 57 -181 195 -181h108zM187 613c0 26 21 47 47 47s48 -20 48 -47c0 -26 -21 -47 -48 -47
c-26 0 -47 20 -47 47zM326 613c0 26 21 47 47 47s47 -20 47 -47c0 -26 -21 -47 -47 -47s-47 20 -47 47z" />
    <glyph glyph-name="uniFE94" unicode="&#x629;" horiz-adv-x="656" arabic-form="final" 
d="M656 0h-324c-191 0 -260 91 -260 234c0 131 81 247 247 247c107 0 198 -35 198 -35v-385h139v-61zM442 61v334s-53 25 -132 25c-99 0 -161 -70 -161 -177c0 -123 57 -182 195 -182h98zM195 613c0 26 21 47 47 47s48 -20 48 -47c0 -26 -21 -47 -48 -47
c-26 0 -47 20 -47 47zM334 613c0 26 21 47 47 47s47 -20 47 -47c0 -26 -21 -47 -47 -47s-47 20 -47 47z" />
    <glyph glyph-name="uni062A" unicode="&#x62a;" horiz-adv-x="798" arabic-form="isolated" 
d="M693 0h-270c-245 0 -343 97 -343 289c0 63 16 131 34 170l82 15c-24 -48 -40 -118 -40 -175c0 -157 60 -238 278 -238h183v409h76v-470zM297 613c0 26 21 47 47 47s48 -20 48 -47c0 -26 -21 -47 -48 -47c-26 0 -47 20 -47 47zM436 613c0 26 21 47 47 47s47 -20 47 -47
c0 -26 -21 -47 -47 -47s-47 20 -47 47z" />
    <glyph glyph-name="uniFE96" unicode="&#x62a;" horiz-adv-x="833" arabic-form="final" 
d="M833 0h-410c-245 0 -343 97 -343 289c0 63 16 131 34 170l82 15c-24 -48 -40 -118 -40 -175c0 -157 60 -238 278 -238h183v409h76v-409h140v-61zM297 613c0 26 21 47 47 47s48 -20 48 -47c0 -26 -21 -47 -48 -47c-26 0 -47 20 -47 47zM436 613c0 26 21 47 47 47
s47 -20 47 -47c0 -26 -21 -47 -47 -47s-47 20 -47 47z" />
    <glyph glyph-name="uniFE97" unicode="&#x62a;" arabic-form="initial" 
d="M216 0h-231c-20 0 -60 11 -60 31c0 19 40 30 60 30h155v409h76v-470zM58 613c0 26 21 47 47 47s48 -20 48 -47c0 -26 -21 -47 -48 -47c-26 0 -47 20 -47 47zM197 613c0 26 21 47 47 47s47 -20 47 -47c0 -26 -21 -47 -47 -47s-47 20 -47 47z" />
    <glyph glyph-name="uniFE98" unicode="&#x62a;" horiz-adv-x="356" arabic-form="medial" 
d="M356 0h-371c-20 0 -60 11 -60 31c0 19 40 30 60 30h155v409h76v-409h140v-61zM61 613c0 26 21 47 47 47s48 -20 48 -47c0 -26 -21 -47 -48 -47c-26 0 -47 20 -47 47zM200 613c0 26 21 47 47 47s47 -20 47 -47c0 -26 -21 -47 -47 -47s-47 20 -47 47z" />
    <glyph glyph-name="uni062B" unicode="&#x62b;" horiz-adv-x="798" arabic-form="isolated" 
d="M693 0h-270c-245 0 -343 97 -343 289c0 63 16 131 34 170l82 15c-24 -48 -40 -118 -40 -175c0 -157 60 -238 278 -238h183v409h76v-470zM296 611c0 26 21 48 47 48s47 -21 47 -48c0 -25 -21 -47 -47 -47s-47 21 -47 47zM436 611c0 26 21 48 47 48s47 -21 47 -48
c0 -25 -21 -47 -47 -47s-47 21 -47 47zM366 718c0 26 21 48 47 48s47 -21 47 -48c0 -25 -21 -47 -47 -47s-47 21 -47 47z" />
    <glyph glyph-name="uniFE9A" unicode="&#x62b;" horiz-adv-x="833" arabic-form="final" 
d="M423 0c-245 0 -343 97 -343 289c0 63 16 131 34 170l82 15c-24 -48 -40 -118 -40 -175c0 -157 60 -238 278 -238h183v409h76v-409h140v-61h-410zM365 718c0 26 21 48 47 48s47 -21 47 -48c0 -25 -21 -47 -47 -47s-47 21 -47 47zM435 611c0 26 21 48 47 48s47 -21 47 -48
c0 -25 -21 -47 -47 -47s-47 21 -47 47zM295 611c0 26 21 48 47 48s47 -21 47 -48c0 -25 -21 -47 -47 -47s-47 21 -47 47z" />
    <glyph glyph-name="uniFE9B" unicode="&#x62b;" arabic-form="initial" 
d="M216 0h-231c-20 0 -60 11 -60 31c0 19 40 30 60 30h155v409h76v-470zM56 611c0 26 21 48 47 48s47 -21 47 -48c0 -25 -21 -47 -47 -47s-47 21 -47 47zM196 611c0 26 21 48 47 48s47 -21 47 -48c0 -25 -21 -47 -47 -47s-47 21 -47 47zM126 718c0 26 21 48 47 48
s47 -21 47 -48c0 -25 -21 -47 -47 -47s-47 21 -47 47z" />
    <glyph glyph-name="uniFE9C" unicode="&#x62b;" horiz-adv-x="356" arabic-form="medial" 
d="M-15 0c-20 0 -60 11 -60 31c0 19 40 30 60 30h155v409h76v-409h140v-61h-371zM130 718c0 26 21 48 47 48s47 -21 47 -48c0 -25 -21 -47 -47 -47s-47 21 -47 47zM200 611c0 26 21 48 47 48s47 -21 47 -48c0 -25 -21 -47 -47 -47s-47 21 -47 47zM60 611c0 26 21 48 47 48
s47 -21 47 -48c0 -25 -21 -47 -47 -47s-47 21 -47 47z" />
    <glyph glyph-name="uni062C" unicode="&#x62c;" horiz-adv-x="619" arabic-form="isolated" 
d="M522 0h-183c-179 0 -223 -57 -223 -131c0 -68 65 -128 197 -128l-5 -61c-179 0 -268 82 -268 182c0 113 78 199 304 199h110c5 39 8 77 8 113c0 161 -56 239 -228 239c-39 0 -72 -2 -110 -7v60c31 4 72 8 116 8c219 0 298 -102 298 -293c0 -47 -4 -109 -16 -181z
M331 -145c0 27 21 48 48 48s48 -20 48 -48c0 -27 -21 -48 -48 -48s-48 21 -48 48z" />
    <glyph glyph-name="uniFE9E" unicode="&#x62c;" horiz-adv-x="614" arabic-form="final" 
d="M339 0c-179 0 -223 -57 -223 -131c0 -68 65 -128 197 -128l-5 -61c-179 0 -268 82 -268 182c0 113 78 199 304 199h110c5 39 8 77 8 113c0 161 -56 239 -228 239c-39 0 -72 -2 -110 -7v60c31 4 72 8 116 8c219 0 298 -102 298 -293c0 -33 -2 -74 -7 -120h83v-61h-275z
M331 -145c0 27 21 48 48 48s48 -20 48 -48c0 -27 -21 -48 -48 -48s-48 21 -48 48z" />
    <glyph glyph-name="uniFE9F" unicode="&#x62c;" horiz-adv-x="532" arabic-form="initial" 
d="M435 0h-450c-20 0 -60 11 -60 31c0 19 40 30 60 30h383c5 39 8 77 8 113c0 161 -56 239 -228 239c-39 0 -86 -4 -123 -10v60c31 5 85 11 129 11c219 0 298 -102 298 -293c0 -47 -5 -109 -17 -181zM133 -145c0 27 21 48 48 48s48 -20 48 -48c0 -27 -21 -48 -48 -48
s-48 21 -48 48z" />
    <glyph glyph-name="uniFEA0" unicode="&#x62c;" horiz-adv-x="528" arabic-form="medial" 
d="M-15 0c-20 0 -60 11 -60 31c0 19 40 30 60 30h383c5 39 8 77 8 113c0 161 -56 239 -228 239c-39 0 -86 -4 -123 -10v60c31 5 85 11 129 11c219 0 298 -102 298 -293c0 -33 -3 -74 -8 -120h84v-61h-543zM133 -145c0 27 21 48 48 48s48 -20 48 -48c0 -27 -21 -48 -48 -48
s-48 21 -48 48z" />
    <glyph glyph-name="uni062D" unicode="&#x62d;" horiz-adv-x="615" arabic-form="isolated" 
d="M308 -320c-179 0 -268 78 -268 182c0 113 78 199 304 199h107c5 39 8 77 8 113c0 161 -57 239 -229 239c-39 0 -72 -2 -109 -7v60c31 4 72 8 116 8c218 0 297 -102 297 -293c0 -47 -4 -109 -16 -181h-179c-179 0 -223 -57 -223 -130s65 -129 198 -129c55 0 117 7 183 21
l7 -59c-68 -16 -133 -23 -196 -23z" />
    <glyph glyph-name="uniFEA2" unicode="&#x62d;" horiz-adv-x="604" arabic-form="final" 
d="M339 0c-179 0 -223 -57 -223 -130s65 -129 198 -129c55 0 117 7 183 21l7 -59c-68 -16 -133 -23 -196 -23c-179 0 -268 78 -268 182c0 113 78 199 304 199h107c5 39 8 77 8 113c0 161 -57 239 -229 239c-39 0 -72 -2 -109 -7v60c31 4 72 8 116 8c218 0 297 -102 297 -293
c0 -33 -2 -74 -7 -120h77v-61h-265z" />
    <glyph glyph-name="uniFEA3" unicode="&#x62d;" horiz-adv-x="532" arabic-form="initial" 
d="M435 0h-450c-20 0 -60 11 -60 31c0 19 40 30 60 30h383c5 39 8 77 8 113c0 161 -56 239 -228 239c-39 0 -86 -4 -123 -10v60c31 5 85 11 129 11c219 0 298 -102 298 -293c0 -47 -5 -109 -17 -181z" />
    <glyph glyph-name="uniFEA4" unicode="&#x62d;" horiz-adv-x="528" arabic-form="medial" 
d="M528 0h-543c-20 0 -60 11 -60 31c0 19 40 30 60 30h383c5 39 8 77 8 113c0 161 -56 239 -228 239c-39 0 -86 -4 -123 -10v60c31 5 85 11 129 11c219 0 298 -102 298 -293c0 -33 -3 -74 -8 -120h84v-61z" />
    <glyph glyph-name="uni062E" unicode="&#x62e;" horiz-adv-x="615" arabic-form="isolated" 
d="M308 -320c-179 0 -268 78 -268 182c0 113 78 199 304 199h107c5 39 8 77 8 113c0 161 -57 239 -229 239c-39 0 -72 -2 -109 -7v60c31 4 72 8 116 8c218 0 297 -102 297 -293c0 -47 -4 -109 -16 -181h-179c-179 0 -223 -57 -223 -130s65 -129 198 -129c55 0 117 7 183 21
l7 -59c-68 -16 -133 -23 -196 -23zM217 612c0 26 22 49 48 49s49 -22 49 -49s-23 -48 -49 -48c-27 0 -48 21 -48 48z" />
    <glyph glyph-name="uniFEA6" unicode="&#x62e;" horiz-adv-x="604" arabic-form="final" 
d="M339 0c-179 0 -223 -57 -223 -130s65 -129 198 -129c55 0 117 7 183 21l7 -59c-68 -16 -133 -23 -196 -23c-179 0 -268 78 -268 182c0 113 78 199 304 199h107c5 39 8 77 8 113c0 161 -57 239 -229 239c-39 0 -72 -2 -109 -7v60c31 4 72 8 116 8c218 0 297 -102 297 -293
c0 -33 -2 -74 -7 -120h77v-61h-265zM217 612c0 26 22 49 48 49s49 -22 49 -49s-23 -48 -49 -48c-27 0 -48 21 -48 48z" />
    <glyph glyph-name="uniFEA7" unicode="&#x62e;" horiz-adv-x="532" arabic-form="initial" 
d="M435 0h-450c-20 0 -60 11 -60 31c0 19 40 30 60 30h383c5 39 8 77 8 113c0 161 -56 239 -228 239c-39 0 -86 -4 -123 -10v60c31 5 85 11 129 11c219 0 298 -102 298 -293c0 -47 -5 -109 -17 -181zM133 612c0 26 22 49 48 49s49 -22 49 -49s-23 -48 -49 -48
c-27 0 -48 21 -48 48z" />
    <glyph glyph-name="uniFEA8" unicode="&#x62e;" horiz-adv-x="528" arabic-form="medial" 
d="M528 0h-543c-20 0 -60 11 -60 31c0 19 40 30 60 30h383c5 39 8 77 8 113c0 161 -56 239 -228 239c-39 0 -86 -4 -123 -10v60c31 5 85 11 129 11c219 0 298 -102 298 -293c0 -33 -3 -74 -8 -120h84v-61zM133 612c0 26 22 49 48 49s49 -22 49 -49s-23 -48 -49 -48
c-27 0 -48 21 -48 48z" />
    <glyph glyph-name="uni062F" unicode="&#x62f;" horiz-adv-x="548" arabic-form="isolated" 
d="M61 0v61h330c-1 197 -73 303 -258 362l20 65c217 -70 314 -192 314 -445v-43h-406z" />
    <glyph glyph-name="uniFEAA" unicode="&#x62f;" horiz-adv-x="540" arabic-form="final" 
d="M61 0v61h330c-1 197 -73 303 -258 362l20 65c211 -69 309 -187 314 -427h73v-61h-479z" />
    <glyph glyph-name="uni0630" unicode="&#x630;" horiz-adv-x="548" arabic-form="isolated" 
d="M61 0v61h330c-1 197 -73 303 -258 362l20 65c217 -70 314 -192 314 -445v-43h-406zM148 612c0 26 22 49 48 49s49 -22 49 -49s-23 -48 -49 -48c-27 0 -48 21 -48 48z" />
    <glyph glyph-name="uniFEAC" unicode="&#x630;" horiz-adv-x="540" arabic-form="final" 
d="M61 0v61h330c-1 197 -73 303 -258 362l20 65c211 -69 309 -187 314 -427h73v-61h-479zM148 612c0 26 22 49 48 49s49 -22 49 -49s-23 -48 -49 -48c-27 0 -48 21 -48 48z" />
    <glyph glyph-name="uni0631" unicode="&#x631;" horiz-adv-x="426" arabic-form="isolated" 
d="M96 -258c-40 0 -81 7 -112 16l10 64c33 -12 70 -20 108 -20c89 0 143 44 143 185v483h77v-475c0 -148 -56 -253 -226 -253z" />
    <glyph glyph-name="uniFEAE" unicode="&#x631;" horiz-adv-x="461" arabic-form="final" 
d="M96 -258c-40 0 -81 7 -112 16l10 64c33 -12 70 -20 108 -20c89 0 143 44 143 185v483h77v-409h139v-61h-139v-5c0 -148 -56 -253 -226 -253z" />
    <glyph glyph-name="uni0632" unicode="&#x632;" horiz-adv-x="426" arabic-form="isolated" 
d="M96 -258c-40 0 -81 7 -112 16l10 64c33 -12 70 -20 108 -20c89 0 143 44 143 185v483h77v-475c0 -148 -56 -253 -226 -253zM234 612c0 26 22 49 48 49s49 -22 49 -49s-23 -48 -49 -48c-27 0 -48 21 -48 48z" />
    <glyph glyph-name="uniFEB0" unicode="&#x632;" horiz-adv-x="461" arabic-form="final" 
d="M96 -258c-40 0 -81 7 -112 16l10 64c33 -12 70 -20 108 -20c89 0 143 44 143 185v483h77v-409h139v-61h-139v-5c0 -148 -56 -253 -226 -253zM234 612c0 26 22 49 48 49s49 -22 49 -49s-23 -48 -49 -48c-27 0 -48 21 -48 48z" />
    <glyph glyph-name="uni0633" unicode="&#x633;" horiz-adv-x="1199" arabic-form="isolated" 
d="M312 -231c-128 0 -240 70 -240 277c0 68 8 134 24 194l79 15c-18 -67 -27 -135 -27 -202c0 -178 90 -223 173 -223s154 51 154 208v372h76v-181c0 -117 25 -175 98 -175c71 0 105 51 105 174v222h75v-258c0 -115 43 -131 159 -131h35c5 44 9 108 9 147
c0 112 -15 207 -36 278l75 15c21 -73 37 -173 37 -286c0 -66 -7 -150 -17 -215h-93c-135 0 -191 20 -217 85c-20 -67 -83 -92 -130 -92c-54 0 -82 16 -103 50c3 -210 -109 -274 -236 -274z" />
    <glyph glyph-name="uniFEB2" unicode="&#x633;" horiz-adv-x="1228" arabic-form="final" 
d="M312 -231c-128 0 -240 70 -240 277c0 68 8 134 24 194l79 15c-18 -67 -27 -135 -27 -202c0 -178 90 -223 173 -223s154 51 154 208v372h76v-181c0 -117 25 -175 98 -175c71 0 105 51 105 174v222h75v-258c0 -115 43 -131 159 -131h35c5 44 9 108 9 147
c0 112 -15 207 -36 278l75 15c21 -73 37 -173 37 -286c0 -47 -4 -103 -9 -154h129v-61h-230c-135 0 -191 20 -217 85c-20 -67 -83 -92 -130 -92c-54 0 -82 16 -103 50c3 -210 -109 -274 -236 -274z" />
    <glyph glyph-name="uniFEB3" unicode="&#x633;" horiz-adv-x="865" arabic-form="initial" 
d="M32 0h-47c-20 0 -60 11 -60 31c0 19 40 30 60 30h47c75 0 109 34 109 142v207h76v-181c0 -108 1 -175 89 -175c65 0 114 34 114 174v222h75v-258c0 -116 44 -131 159 -131h35c5 44 8 107 8 147c0 112 -14 207 -35 278l75 15c20 -73 37 -173 37 -286
c0 -66 -7 -150 -17 -215h-93c-134 0 -189 18 -217 85c-14 -43 -59 -92 -153 -92c-68 0 -114 37 -127 89c-18 -50 -58 -82 -135 -82z" />
    <glyph glyph-name="uniFEB4" unicode="&#x633;" horiz-adv-x="894" arabic-form="medial" 
d="M32 0h-47c-20 0 -60 11 -60 31c0 19 40 30 60 30h47c75 0 109 34 109 142v207h76v-181c0 -108 1 -175 89 -175c65 0 114 34 114 174v222h75v-258c0 -116 44 -131 159 -131h35c5 44 8 107 8 147c0 112 -14 207 -35 278l75 15c20 -73 37 -173 37 -286
c0 -47 -4 -103 -9 -154h129v-61h-230c-134 0 -189 18 -217 85c-14 -43 -59 -92 -153 -92c-68 0 -114 37 -127 89c-18 -50 -58 -82 -135 -82z" />
    <glyph glyph-name="uni0634" unicode="&#x634;" horiz-adv-x="1199" arabic-form="isolated" 
d="M312 -231c-128 0 -240 70 -240 277c0 68 8 134 24 194l79 15c-18 -67 -27 -135 -27 -202c0 -178 90 -223 173 -223s154 51 154 208v372h76v-181c0 -117 25 -175 98 -175c71 0 105 51 105 174v222h75v-258c0 -115 43 -131 159 -131h35c5 44 9 108 9 147
c0 112 -15 207 -36 278l75 15c21 -73 37 -173 37 -286c0 -66 -7 -150 -17 -215h-93c-135 0 -191 20 -217 85c-20 -67 -83 -92 -130 -92c-54 0 -82 16 -103 50c3 -210 -109 -274 -236 -274zM671 611c0 26 21 48 47 48s47 -21 47 -48c0 -25 -21 -47 -47 -47s-47 21 -47 47z
M811 611c0 26 21 48 47 48s47 -21 47 -48c0 -25 -21 -47 -47 -47s-47 21 -47 47zM741 718c0 26 21 48 47 48s47 -21 47 -48c0 -25 -21 -47 -47 -47s-47 21 -47 47z" />
    <glyph glyph-name="uniFEB6" unicode="&#x634;" horiz-adv-x="1228" arabic-form="final" 
d="M998 0c-135 0 -191 20 -217 85c-20 -67 -83 -92 -130 -92c-54 0 -82 16 -103 50c3 -210 -109 -274 -236 -274c-128 0 -240 70 -240 277c0 68 8 134 24 194l79 15c-18 -67 -27 -135 -27 -202c0 -178 90 -223 173 -223s154 51 154 208v372h76v-181c0 -117 25 -175 98 -175
c71 0 105 51 105 174v222h75v-258c0 -115 43 -131 159 -131h35c5 44 9 108 9 147c0 112 -15 207 -36 278l75 15c21 -73 37 -173 37 -286c0 -47 -4 -103 -9 -154h129v-61h-230zM741 718c0 26 21 48 47 48s47 -21 47 -48c0 -25 -21 -47 -47 -47s-47 21 -47 47zM811 611
c0 26 21 48 47 48s47 -21 47 -48c0 -25 -21 -47 -47 -47s-47 21 -47 47zM671 611c0 26 21 48 47 48s47 -21 47 -48c0 -25 -21 -47 -47 -47s-47 21 -47 47z" />
    <glyph glyph-name="uniFEB7" unicode="&#x634;" horiz-adv-x="865" arabic-form="initial" 
d="M32 0h-47c-20 0 -60 11 -60 31c0 19 40 30 60 30h47c75 0 109 34 109 142v207h76v-181c0 -108 1 -175 89 -175c65 0 114 34 114 174v222h75v-258c0 -116 44 -131 159 -131h35c5 44 8 107 8 147c0 112 -14 207 -35 278l75 15c20 -73 37 -173 37 -286
c0 -66 -7 -150 -17 -215h-93c-134 0 -189 18 -217 85c-14 -43 -59 -92 -153 -92c-68 0 -114 37 -127 89c-18 -50 -58 -82 -135 -82zM335 611c0 26 21 48 47 48s47 -21 47 -48c0 -25 -21 -47 -47 -47s-47 21 -47 47zM475 611c0 26 21 48 47 48s47 -21 47 -48
c0 -25 -21 -47 -47 -47s-47 21 -47 47zM405 718c0 26 21 48 47 48s47 -21 47 -48c0 -25 -21 -47 -47 -47s-47 21 -47 47z" />
    <glyph glyph-name="uniFEB8" unicode="&#x634;" horiz-adv-x="893" arabic-form="medial" 
d="M32 0h-47c-20 0 -60 11 -60 31c0 19 40 30 60 30h47c75 0 109 34 109 142v207h76v-181c0 -108 1 -175 89 -175c65 0 114 34 114 174v222h75v-258c0 -116 44 -131 159 -131h35c5 44 8 107 8 147c0 112 -14 207 -35 278l75 15c20 -73 37 -173 37 -286
c0 -47 -4 -103 -9 -154h128v-61h-229c-134 0 -189 18 -217 85c-14 -43 -59 -92 -153 -92c-68 0 -114 37 -127 89c-18 -50 -58 -82 -135 -82zM405 718c0 26 21 48 47 48s47 -21 47 -48c0 -25 -21 -47 -47 -47s-47 21 -47 47zM475 611c0 26 21 48 47 48s47 -21 47 -48
c0 -25 -21 -47 -47 -47s-47 21 -47 47zM335 611c0 26 21 48 47 48s47 -21 47 -48c0 -25 -21 -47 -47 -47s-47 21 -47 47z" />
    <glyph glyph-name="uni0635" unicode="&#x635;" horiz-adv-x="1083" arabic-form="isolated" 
d="M312 -231c-128 0 -240 70 -240 277c0 68 8 134 24 194l79 15c-18 -67 -27 -135 -27 -202c0 -178 90 -223 173 -223s154 51 154 208v432h76v-45c0 -58 -3 -132 -11 -191h2c47 162 162 247 282 247c125 0 196 -83 196 -228c0 -136 -73 -253 -286 -253h-185
c-12 -158 -111 -231 -237 -231zM550 61h192c157 0 199 86 199 186c0 106 -41 173 -130 173c-148 0 -247 -190 -261 -359z" />
    <glyph glyph-name="uniFEBA" unicode="&#x635;" horiz-adv-x="1091" arabic-form="final" 
d="M549 0c-12 -158 -111 -231 -237 -231c-128 0 -240 70 -240 277c0 68 8 134 24 194l79 15c-18 -67 -27 -135 -27 -202c0 -178 90 -223 173 -223s154 51 154 208v432h76v-45c0 -58 -3 -132 -11 -191h2c47 162 162 247 282 247c125 0 196 -83 196 -228
c0 -76 -23 -145 -79 -192h150v-61h-342h-15h-185zM550 61h192c157 0 199 86 199 186c0 106 -41 173 -130 173c-148 0 -247 -190 -261 -359z" />
    <glyph glyph-name="uniFEBB" unicode="&#x635;" horiz-adv-x="748" arabic-form="initial" 
d="M399 0h-414c-20 0 -60 11 -60 31c0 19 40 30 60 30h155v409h76v-45c0 -58 -3 -132 -11 -191h2c47 162 162 247 282 247c124 0 196 -83 196 -228c0 -136 -73 -253 -286 -253zM215 61h192c157 0 199 86 199 186c0 106 -41 173 -130 173c-149 0 -247 -190 -261 -359z" />
    <glyph glyph-name="uniFEBC" unicode="&#x635;" horiz-adv-x="764" arabic-form="medial" 
d="M764 0h-779c-20 0 -60 11 -60 31c0 19 40 30 60 30h155v409h76v-45c0 -58 -3 -132 -11 -191h2c47 162 162 247 282 247c124 0 196 -83 196 -228c0 -76 -23 -145 -79 -192h158v-61zM215 61h203c148 4 188 88 188 186c0 106 -41 173 -130 173c-149 0 -247 -190 -261 -359z
" />
    <glyph glyph-name="uni0636" unicode="&#x636;" horiz-adv-x="1083" arabic-form="isolated" 
d="M312 -231c-128 0 -240 70 -240 277c0 68 8 134 24 194l79 15c-18 -67 -27 -135 -27 -202c0 -178 90 -223 173 -223s154 51 154 208v432h76v-45c0 -58 -3 -132 -11 -191h2c47 162 162 247 282 247c125 0 196 -83 196 -228c0 -136 -73 -253 -286 -253h-185
c-12 -158 -111 -231 -237 -231zM550 61h192c157 0 199 86 199 186c0 106 -41 173 -130 173c-148 0 -247 -190 -261 -359zM754 612c0 26 22 49 48 49s49 -22 49 -49s-23 -48 -49 -48c-27 0 -48 21 -48 48z" />
    <glyph glyph-name="uniFEBE" unicode="&#x636;" horiz-adv-x="1091" arabic-form="final" 
d="M312 -231c-128 0 -240 70 -240 277c0 68 8 134 24 194l79 15c-18 -67 -27 -135 -27 -202c0 -178 90 -223 173 -223s154 51 154 208v432h76v-45c0 -58 -3 -132 -11 -191h2c47 162 162 247 282 247c125 0 196 -83 196 -228c0 -76 -23 -145 -79 -192h150v-61h-342h-15h-185
c-12 -158 -111 -231 -237 -231zM550 61h203c148 4 188 88 188 186c0 106 -41 173 -130 173c-148 0 -247 -190 -261 -359zM754 612c0 26 22 49 48 49s49 -22 49 -49s-23 -48 -49 -48c-27 0 -48 21 -48 48z" />
    <glyph glyph-name="uniFEBF" unicode="&#x636;" horiz-adv-x="748" arabic-form="initial" 
d="M399 0h-414c-20 0 -60 11 -60 31c0 19 40 30 60 30h155v409h76v-45c0 -58 -3 -132 -11 -191h2c47 162 162 247 282 247c124 0 196 -83 196 -228c0 -136 -73 -253 -286 -253zM215 61h192c157 0 199 86 199 186c0 106 -41 173 -130 173c-149 0 -247 -190 -261 -359z
M424 612c0 26 22 49 48 49s49 -22 49 -49s-23 -48 -49 -48c-27 0 -48 21 -48 48z" />
    <glyph glyph-name="uniFEC0" unicode="&#x636;" horiz-adv-x="764" arabic-form="medial" 
d="M764 0h-779c-20 0 -60 11 -60 31c0 19 40 30 60 30h155v409h76v-45c0 -58 -3 -132 -11 -191h2c47 162 162 247 282 247c124 0 196 -83 196 -228c0 -76 -23 -145 -79 -192h158v-61zM215 61h203c148 4 188 88 188 186c0 106 -41 173 -130 173c-149 0 -247 -190 -261 -359z
M424 612c0 26 22 49 48 49s49 -22 49 -49s-23 -48 -49 -48c-27 0 -48 21 -48 48z" />
    <glyph glyph-name="uni0637" unicode="&#x637;" horiz-adv-x="760" arabic-form="isolated" 
d="M8 0v61h144v644h76v-280c0 -58 -3 -132 -11 -191h1c48 162 163 247 283 247c124 0 196 -83 196 -228c0 -136 -74 -253 -287 -253h-402zM227 61h192c157 0 199 86 199 186c0 106 -41 173 -130 173c-149 0 -247 -190 -261 -359z" />
    <glyph glyph-name="uniFEC2" unicode="&#x637;" horiz-adv-x="776" arabic-form="final" 
d="M8 0v61h144v644h76v-280c0 -58 -3 -132 -11 -191h1c48 162 163 247 283 247c124 0 196 -83 196 -228c0 -76 -23 -145 -80 -192h159v-61h-768zM227 61h203c148 4 188 88 188 186c0 106 -41 173 -130 173c-149 0 -247 -190 -261 -359z" />
    <glyph glyph-name="uniFEC3" unicode="&#x637;" horiz-adv-x="748" arabic-form="initial" 
d="M399 0h-414c-20 0 -60 11 -60 31c0 19 40 30 60 30h155v644h76v-280c0 -58 -3 -132 -11 -191h2c47 162 162 247 282 247c124 0 196 -83 196 -228c0 -136 -73 -253 -286 -253zM215 61h192c157 0 199 86 199 186c0 106 -41 173 -130 173c-149 0 -247 -190 -261 -359z" />
    <glyph glyph-name="uniFEC4" unicode="&#x637;" horiz-adv-x="764" arabic-form="medial" 
d="M764 0h-779c-20 0 -60 11 -60 31c0 19 40 30 60 30h155v644h76v-280c0 -58 -3 -132 -11 -191h2c47 162 162 247 282 247c124 0 196 -83 196 -228c0 -76 -23 -145 -79 -192h158v-61zM215 61h203c148 4 188 88 188 186c0 106 -41 173 -130 173c-149 0 -247 -190 -261 -359z
" />
    <glyph glyph-name="uni0638" unicode="&#x638;" horiz-adv-x="760" arabic-form="isolated" 
d="M8 0v61h144v644h76v-280c0 -58 -3 -132 -11 -191h1c48 162 163 247 283 247c124 0 196 -83 196 -228c0 -136 -74 -253 -287 -253h-402zM227 61h192c157 0 199 86 199 186c0 106 -41 173 -130 173c-149 0 -247 -190 -261 -359zM439 612c0 26 22 49 48 49s49 -22 49 -49
s-23 -48 -49 -48c-27 0 -48 21 -48 48z" />
    <glyph glyph-name="uniFEC6" unicode="&#x638;" horiz-adv-x="776" arabic-form="final" 
d="M8 0v61h144v644h76v-280c0 -58 -3 -132 -11 -191h1c48 162 163 247 283 247c124 0 196 -83 196 -228c0 -76 -23 -145 -80 -192h159v-61h-768zM227 61h203c148 4 188 88 188 186c0 106 -41 173 -130 173c-149 0 -247 -190 -261 -359zM439 612c0 26 22 49 48 49
s49 -22 49 -49s-23 -48 -49 -48c-27 0 -48 21 -48 48z" />
    <glyph glyph-name="uniFEC7" unicode="&#x638;" horiz-adv-x="748" arabic-form="initial" 
d="M399 0h-414c-20 0 -60 11 -60 31c0 19 40 30 60 30h155v644h76v-280c0 -58 -3 -132 -11 -191h2c47 162 162 247 282 247c124 0 196 -83 196 -228c0 -136 -73 -253 -286 -253zM215 61h192c157 0 199 86 199 186c0 106 -41 173 -130 173c-149 0 -247 -190 -261 -359z
M427 612c0 26 22 49 48 49s49 -22 49 -49s-23 -48 -49 -48c-27 0 -48 21 -48 48z" />
    <glyph glyph-name="uniFEC8" unicode="&#x638;" horiz-adv-x="764" arabic-form="medial" 
d="M764 0h-779c-20 0 -60 11 -60 31c0 19 40 30 60 30h155v644h76v-280c0 -58 -3 -132 -11 -191h2c47 162 162 247 282 247c124 0 196 -83 196 -228c0 -76 -23 -145 -79 -192h158v-61zM215 61h203c148 4 188 88 188 186c0 106 -41 173 -130 173c-149 0 -247 -190 -261 -359z
M427 612c0 26 22 49 48 49s49 -22 49 -49s-23 -48 -49 -48c-27 0 -48 21 -48 48z" />
    <glyph glyph-name="uni0639" unicode="&#x639;" horiz-adv-x="524" arabic-form="isolated" 
d="M319 -259c-191 0 -269 77 -269 170c0 92 83 156 204 214c-80 0 -162 60 -162 164c0 112 84 194 227 194c47 0 93 -11 93 -11l-11 -63s-44 14 -87 14c-85 0 -145 -54 -145 -128c0 -131 128 -150 224 -102l36 18l25 -54l-162 -79c-109 -54 -165 -100 -165 -161
c0 -65 57 -115 201 -115c76 0 159 14 159 14l6 -59s-90 -16 -174 -16z" />
    <glyph glyph-name="uniFECA" unicode="&#x639;" horiz-adv-x="633" arabic-form="final" 
d="M319 -259c-191 0 -269 78 -269 171c0 119 135 174 255 232c-65 63 -132 129 -227 162l6 53c77 59 188 123 289 123c132 0 186 -73 186 -152c0 -91 -66 -149 -146 -195c51 -43 106 -74 176 -74h44v-61h-56c-96 0 -163 45 -226 101c-111 -55 -224 -100 -224 -183
c0 -66 57 -116 201 -116c76 0 159 14 159 14l6 -59s-90 -16 -174 -16zM156 336c85 -33 148 -100 211 -160c66 37 116 80 116 144c0 57 -35 104 -117 104c-75 0 -163 -54 -210 -88z" />
    <glyph glyph-name="uniFECB" unicode="&#x639;" horiz-adv-x="567" arabic-form="initial" 
d="M523 0h-538c-20 0 -60 11 -60 31c0 19 40 30 60 30h216c-67 27 -119 97 -119 188c0 124 79 232 241 232c71 0 132 -24 132 -24l-14 -62s-58 26 -125 26c-93 0 -158 -62 -158 -167c0 -108 82 -193 281 -193h84v-61z" />
    <glyph glyph-name="uniFECC" unicode="&#x639;" horiz-adv-x="599" arabic-form="medial" 
d="M3 0h-18c-20 0 -60 11 -60 31c0 19 40 30 60 30h20c116 0 214 24 288 62c-72 68 -142 147 -249 183l6 53c77 59 188 123 289 123c132 0 186 -73 186 -152c0 -71 -44 -149 -125 -212c45 -34 94 -57 155 -57h44v-61h-56c-84 0 -146 34 -202 80c-86 -48 -200 -80 -338 -80z
M122 336c94 -36 160 -114 230 -177c62 46 97 104 97 161s-35 104 -118 104c-74 0 -162 -54 -209 -88z" />
    <glyph glyph-name="uni063A" unicode="&#x63a;" horiz-adv-x="524" arabic-form="isolated" 
d="M319 -259c-191 0 -269 77 -269 170c0 92 83 156 204 214c-80 0 -162 60 -162 164c0 112 84 194 227 194c47 0 93 -11 93 -11l-11 -63s-44 14 -87 14c-85 0 -145 -54 -145 -128c0 -131 128 -150 224 -102l36 18l25 -54l-162 -79c-109 -54 -165 -100 -165 -161
c0 -65 57 -115 201 -115c76 0 159 14 159 14l6 -59s-90 -16 -174 -16zM228 612c0 26 22 49 48 49s49 -22 49 -49s-23 -48 -49 -48c-27 0 -48 21 -48 48z" />
    <glyph glyph-name="uniFECE" unicode="&#x63a;" horiz-adv-x="633" arabic-form="final" 
d="M319 -259c-191 0 -269 78 -269 171c0 119 135 174 255 232c-65 63 -132 129 -227 162l6 53c77 59 188 123 289 123c132 0 186 -73 186 -152c0 -91 -66 -149 -146 -195c51 -43 106 -74 176 -74h44v-61h-56c-96 0 -163 45 -226 101c-111 -55 -224 -100 -224 -183
c0 -66 57 -116 201 -116c76 0 159 14 159 14l6 -59s-90 -16 -174 -16zM156 336c85 -33 148 -100 211 -160c66 37 116 80 116 144c0 57 -35 104 -117 104c-75 0 -163 -54 -210 -88zM305 612c0 26 22 49 48 49s49 -22 49 -49s-23 -48 -49 -48c-27 0 -48 21 -48 48z" />
    <glyph glyph-name="uniFECF" unicode="&#x63a;" horiz-adv-x="567" arabic-form="initial" 
d="M523 0h-538c-20 0 -60 11 -60 31c0 19 40 30 60 30h216c-67 27 -119 97 -119 188c0 124 79 232 241 232c71 0 132 -24 132 -24l-14 -62s-58 26 -125 26c-93 0 -158 -62 -158 -167c0 -108 82 -193 281 -193h84v-61zM255 612c0 26 22 49 48 49s49 -22 49 -49
s-23 -48 -49 -48c-27 0 -48 21 -48 48z" />
    <glyph glyph-name="uniFED0" unicode="&#x63a;" horiz-adv-x="599" arabic-form="medial" 
d="M3 0h-18c-20 0 -60 11 -60 31c0 19 40 30 60 30h20c116 0 214 24 288 62c-72 68 -142 147 -249 183l6 53c77 59 188 123 289 123c132 0 186 -73 186 -152c0 -71 -44 -149 -125 -212c45 -34 94 -57 155 -57h44v-61h-56c-84 0 -146 34 -202 80c-86 -48 -200 -80 -338 -80z
M122 336c94 -36 160 -114 230 -177c62 46 97 104 97 161s-35 104 -118 104c-74 0 -162 -54 -209 -88zM271 612c0 26 22 49 48 49s49 -22 49 -49s-23 -48 -49 -48c-27 0 -48 21 -48 48z" />
    <glyph glyph-name="uni0641" unicode="&#x641;" horiz-adv-x="939" arabic-form="isolated" 
d="M875 247c0 -137 -91 -247 -238 -247h-214c-245 0 -343 97 -343 289c0 63 16 131 34 170l82 15c-24 -48 -40 -118 -40 -175c0 -157 61 -238 271 -238h63c-46 31 -71 93 -71 177c0 133 87 243 237 243c121 0 219 -63 219 -234zM797 244c0 110 -50 176 -149 176
c-77 0 -152 -54 -152 -177c0 -117 55 -182 152 -182c79 0 149 55 149 183zM603 612c0 26 22 49 48 49s49 -22 49 -49s-23 -48 -49 -48c-27 0 -48 21 -48 48z" />
    <glyph glyph-name="uniFED2" unicode="&#x641;" horiz-adv-x="950" arabic-form="final" 
d="M950 61v-61h-527c-245 0 -343 97 -343 289c0 63 16 131 34 170l82 15c-24 -48 -40 -118 -40 -175c0 -157 61 -238 271 -238h63c-46 31 -71 93 -71 177c0 133 87 243 237 243c121 0 219 -63 219 -233c0 -77 -30 -150 -85 -190c0 0 54 3 91 3h69zM797 244
c0 110 -50 176 -149 176c-77 0 -152 -54 -152 -177c0 -117 55 -182 152 -182c79 0 149 55 149 183zM603 612c0 26 22 49 48 49s49 -22 49 -49s-23 -48 -49 -48c-27 0 -48 21 -48 48z" />
    <glyph glyph-name="uniFED3" unicode="&#x641;" horiz-adv-x="622" arabic-form="initial" 
d="M536 0h-551c-20 0 -60 11 -60 31c0 19 40 30 60 30h118c35 0 58 -4 58 -4c-53 32 -81 89 -81 179c0 130 84 245 246 245c139 0 210 -79 210 -222v-259zM461 61v182c0 128 -53 177 -143 177c-99 0 -160 -70 -160 -178c0 -123 57 -181 195 -181h108zM268 612
c0 26 22 49 48 49s49 -22 49 -49s-23 -48 -49 -48c-27 0 -48 21 -48 48z" />
    <glyph glyph-name="uniFED4" unicode="&#x641;" horiz-adv-x="608" arabic-form="medial" 
d="M608 0h-623c-20 0 -60 11 -60 31c0 19 40 30 60 30h91c35 0 75 -3 75 -3c-47 32 -74 91 -74 180c0 133 87 243 237 243c121 0 220 -63 220 -233c0 -77 -30 -150 -86 -190c0 0 54 3 91 3h69v-61zM307 61c78 0 149 55 149 183c0 110 -51 176 -150 176
c-77 0 -151 -54 -151 -176c0 -118 54 -183 152 -183zM261 613c0 26 22 49 48 49s49 -22 49 -49s-23 -48 -49 -48c-27 0 -48 21 -48 48z" />
    <glyph glyph-name="uni0642" unicode="&#x642;" horiz-adv-x="902" arabic-form="isolated" 
d="M797 446v-684s-152 -13 -295 -13c-304 0 -430 89 -430 301c0 64 8 130 24 190l79 15c-18 -67 -27 -135 -27 -196c0 -181 103 -249 365 -249c99 0 209 9 209 9v181h-109c-192 0 -261 91 -261 234c0 131 82 247 247 247c107 0 198 -35 198 -35zM722 61v334s-53 25 -132 25
c-99 0 -161 -70 -161 -177c0 -123 57 -182 196 -182h97zM475 613c0 26 21 47 47 47s48 -20 48 -47c0 -26 -21 -47 -48 -47c-26 0 -47 20 -47 47zM614 613c0 26 21 47 47 47s47 -20 47 -47c0 -26 -21 -47 -47 -47s-47 20 -47 47z" />
    <glyph glyph-name="uniFED6" unicode="&#x642;" horiz-adv-x="937" arabic-form="final" 
d="M797 446v-385h140v-61h-140v-238s-152 -13 -295 -13c-304 0 -430 89 -430 301c0 64 8 130 24 190l79 15c-18 -67 -27 -135 -27 -196c0 -181 103 -249 365 -249c99 0 209 9 209 9v181h-109c-192 0 -261 91 -261 234c0 131 82 247 247 247c107 0 198 -35 198 -35zM722 61
v334s-53 25 -132 25c-99 0 -161 -70 -161 -177c0 -123 57 -182 196 -182h97zM475 613c0 26 21 47 47 47s48 -20 48 -47c0 -26 -21 -47 -48 -47c-26 0 -47 20 -47 47zM614 613c0 26 21 47 47 47s47 -20 47 -47c0 -26 -21 -47 -47 -47s-47 20 -47 47z" />
    <glyph glyph-name="uniFED7" unicode="&#x642;" horiz-adv-x="622" arabic-form="initial" 
d="M536 0h-551c-20 0 -60 11 -60 31c0 19 40 30 60 30h118c35 0 58 -4 58 -4c-53 32 -81 89 -81 179c0 130 84 245 246 245c139 0 210 -79 210 -222v-259zM461 61v182c0 128 -53 177 -143 177c-99 0 -160 -70 -160 -178c0 -123 57 -181 195 -181h108zM199 613
c0 26 21 47 47 47s48 -20 48 -47c0 -26 -21 -47 -48 -47c-26 0 -47 20 -47 47zM338 613c0 26 21 47 47 47s47 -20 47 -47c0 -26 -21 -47 -47 -47s-47 20 -47 47z" />
    <glyph glyph-name="uniFED8" unicode="&#x642;" horiz-adv-x="608" arabic-form="medial" 
d="M608 0h-623c-20 0 -60 11 -60 31c0 19 40 30 60 30h91c35 0 75 -3 75 -3c-47 32 -74 91 -74 180c0 133 87 243 237 243c121 0 220 -63 220 -233c0 -77 -30 -150 -86 -190c0 0 54 3 91 3h69v-61zM307 61c78 0 149 55 149 183c0 110 -51 176 -150 176
c-77 0 -151 -54 -151 -176c0 -118 54 -183 152 -183zM193 613c0 26 21 47 47 47s48 -20 48 -47c0 -26 -21 -47 -48 -47c-26 0 -47 20 -47 47zM332 613c0 26 21 47 47 47s47 -20 47 -47c0 -26 -21 -47 -47 -47s-47 20 -47 47z" />
    <glyph glyph-name="uni0643" unicode="&#x643;" horiz-adv-x="867" arabic-form="isolated" 
d="M423 0c-245 0 -343 97 -343 289c0 63 16 131 34 170l82 15c-24 -48 -40 -118 -40 -175c0 -157 60 -238 278 -238h251v644h77v-705h-339zM327 406v48c30 0 58 -2 76 -5c-22 9 -33 33 -33 52c0 45 34 93 122 93c20 0 38 -2 52 -5l-9 -47c-10 1 -30 4 -49 4
c-39 0 -58 -17 -58 -44s21 -48 81 -48h54v-48h-236z" />
    <glyph glyph-name="uniFEDA" unicode="&#x643;" horiz-adv-x="902" arabic-form="final" 
d="M423 0c-245 0 -343 97 -343 289c0 63 16 131 34 170l82 15c-24 -48 -40 -118 -40 -175c0 -157 60 -238 278 -238h251v644h77v-644h140v-61h-479zM327 406v48c30 0 58 -2 76 -5c-22 9 -33 33 -33 52c0 45 34 93 122 93c20 0 38 -2 52 -5l-9 -47c-10 1 -30 4 -49 4
c-39 0 -58 -17 -58 -44s21 -48 81 -48h54v-48h-236z" />
    <glyph glyph-name="uniFEDB" unicode="&#x643;" horiz-adv-x="457" arabic-form="initial" 
d="M366 0h-381c-20 0 -60 11 -60 31c0 19 40 30 60 30h306c-2 212 -87 310 -269 365v57l373 234v-77l-283 -175c163 -67 254 -178 254 -421v-44z" />
    <glyph glyph-name="uniFEDC" unicode="&#x643;" horiz-adv-x="447" arabic-form="medial" 
d="M-15 0c-20 0 -60 11 -60 31c0 19 40 30 60 30h306c-2 212 -87 310 -269 365v57l373 234v-77l-283 -175c159 -66 250 -173 254 -404h81v-61h-462z" />
    <glyph glyph-name="uni0644" unicode="&#x644;" horiz-adv-x="656" arabic-form="isolated" 
d="M475 45v660h76v-652c0 -204 -104 -284 -239 -284c-128 0 -240 70 -240 277c0 68 8 134 24 194l79 15c-18 -67 -27 -135 -27 -202c0 -178 90 -223 173 -223s154 51 154 215z" />
    <glyph glyph-name="uniFEDE" unicode="&#x644;" horiz-adv-x="683" arabic-form="final" 
d="M475 45v660h76v-644h132v-61h-135c-17 -165 -114 -231 -236 -231c-128 0 -240 70 -240 277c0 68 8 134 24 194l79 15c-18 -67 -27 -135 -27 -202c0 -178 90 -223 173 -223s154 51 154 215z" />
    <glyph glyph-name="uniFEDF" unicode="&#x644;" arabic-form="initial" 
d="M216 0h-231c-20 0 -60 11 -60 31c0 19 40 30 60 30h155v644h76v-705z" />
    <glyph glyph-name="uniFEE0" unicode="&#x644;" horiz-adv-x="356" arabic-form="medial" 
d="M-15 0c-20 0 -60 11 -60 31c0 19 40 30 60 30h155v644h76v-644h140v-61h-371z" />
    <glyph glyph-name="uni0645" unicode="&#x645;" horiz-adv-x="801" arabic-form="isolated" 
d="M715 0h-195c-184 0 -255 84 -260 217h-32c-76 0 -102 -47 -86 -151l52 -326h-75l-51 318c-20 133 28 220 165 220h30c16 113 98 203 242 203c138 0 210 -79 210 -222v-259zM640 61v182c0 128 -53 177 -143 177c-99 0 -160 -70 -160 -178c0 -123 57 -181 195 -181h108z
" />
    <glyph glyph-name="uniFEE2" unicode="&#x645;" horiz-adv-x="815" arabic-form="final" 
d="M520 0c-184 0 -255 84 -260 217h-32c-76 0 -102 -47 -86 -151l52 -326h-75l-51 318c-20 133 28 220 165 220h30c16 113 98 203 242 203c138 0 210 -79 210 -222v-198h100v-61h-295zM640 61v182c0 128 -53 177 -143 177c-99 0 -160 -70 -160 -178c0 -123 57 -181 195 -181
h108z" />
    <glyph glyph-name="uniFEE3" unicode="&#x645;" horiz-adv-x="622" arabic-form="initial" 
d="M536 0h-551c-20 0 -60 11 -60 31c0 19 40 30 60 30h118c35 0 58 -4 58 -4c-53 32 -81 89 -81 179c0 130 84 245 246 245c139 0 210 -79 210 -222v-259zM461 61v182c0 128 -53 177 -143 177c-99 0 -160 -70 -160 -178c0 -123 57 -181 195 -181h108z" />
    <glyph glyph-name="uniFEE4" unicode="&#x645;" horiz-adv-x="682" arabic-form="medial" 
d="M391 0c-147 0 -201 40 -234 100c-13 -56 -61 -100 -145 -100h-27c-20 0 -60 11 -60 31c0 19 40 30 60 30h13c68 0 120 30 120 175c0 130 83 245 246 245c138 0 209 -79 209 -222v-198h109v-61h-291zM498 61v182c0 128 -53 177 -142 177c-99 0 -161 -70 -161 -178
c0 -123 57 -181 195 -181h108z" />
    <glyph glyph-name="uni0646" unicode="&#x646;" horiz-adv-x="676" arabic-form="isolated" 
d="M571 470v-427c0 -183 -90 -274 -257 -274c-128 0 -242 70 -242 277c0 68 8 134 24 194l79 15c-18 -67 -27 -135 -27 -202c0 -178 92 -223 175 -223c98 0 172 51 172 208v432h76zM267 426c0 26 22 49 48 49s49 -22 49 -49s-23 -48 -49 -48c-27 0 -48 21 -48 48z" />
    <glyph glyph-name="uniFEE6" unicode="&#x646;" horiz-adv-x="711" arabic-form="final" 
d="M571 470v-409h140v-61h-142c-14 -154 -102 -231 -255 -231c-128 0 -242 70 -242 277c0 68 8 134 24 194l79 15c-18 -67 -27 -135 -27 -202c0 -178 92 -223 175 -223c98 0 172 51 172 208v432h76zM267 426c0 26 22 49 48 49s49 -22 49 -49s-23 -48 -49 -48
c-27 0 -48 21 -48 48z" />
    <glyph glyph-name="uniFEE7" unicode="&#x646;" arabic-form="initial" 
d="M216 0h-231c-20 0 -60 11 -60 31c0 19 40 30 60 30h155v409h76v-470zM129 612c0 26 22 49 48 49s49 -22 49 -49s-23 -48 -49 -48c-27 0 -48 21 -48 48z" />
    <glyph glyph-name="uniFEE8" unicode="&#x646;" horiz-adv-x="356" arabic-form="medial" 
d="M-15 0c-20 0 -60 11 -60 31c0 19 40 30 60 30h155v409h76v-409h140v-61h-371zM129 612c0 26 22 49 48 49s49 -22 49 -49s-23 -48 -49 -48c-27 0 -48 21 -48 48z" />
    <glyph glyph-name="uni0647" unicode="&#x647;" horiz-adv-x="613" arabic-form="isolated" 
d="M527 0h-195c-191 0 -260 91 -260 233c0 133 83 248 245 248c139 0 210 -79 210 -222v-259zM452 61v182c0 128 -53 177 -142 177c-99 0 -161 -70 -161 -178c0 -123 57 -181 195 -181h108z" />
    <glyph glyph-name="uniFEEA" unicode="&#x647;" horiz-adv-x="656" arabic-form="final" 
d="M656 0h-324c-191 0 -260 91 -260 234c0 131 81 247 247 247c107 0 198 -35 198 -35v-385h139v-61zM442 61v334s-53 25 -132 25c-99 0 -161 -70 -161 -177c0 -123 57 -182 195 -182h98z" />
    <glyph glyph-name="uniFEEB" unicode="&#x647;" horiz-adv-x="765" arabic-form="initial" 
d="M683 0h-698c-20 0 -60 11 -60 31c0 19 40 30 60 30h139c19 0 37 -2 38 -2c-2 1 -45 32 -45 99c0 103 74 164 182 164c122 0 174 -89 174 -216v-45h136v23c0 264 -99 364 -307 364c-64 0 -148 -14 -212 -35l-9 60c67 21 154 36 232 36c238 0 370 -119 370 -421v-88z
M404 60v42c0 103 -32 163 -111 163c-68 0 -106 -38 -106 -98c0 -77 56 -107 119 -107h98z" />
    <glyph glyph-name="uniFEEC" unicode="&#x647;" horiz-adv-x="760" arabic-form="medial" 
d="M-15 0c-20 0 -60 11 -60 31c0 19 40 30 60 30h139c19 0 37 -2 38 -2c-2 1 -45 32 -45 99c0 103 74 164 182 164c122 0 174 -89 174 -216v-45h136v23c0 264 -99 364 -307 364c-64 0 -148 -14 -212 -35l-9 60c67 21 154 36 232 36c238 0 370 -119 370 -421v-27h78v-61h-776
zM404 60v42c0 103 -32 163 -111 163c-68 0 -106 -38 -106 -98c0 -77 56 -107 119 -107h98z" />
    <glyph glyph-name="uni0648" unicode="&#x648;" horiz-adv-x="621" arabic-form="isolated" 
d="M234 -253c-78 0 -158 15 -158 15l6 66s87 -21 161 -21c111 0 199 42 199 165v28h-110c-191 0 -260 91 -260 234c0 131 81 247 247 247c107 0 198 -35 198 -35v-472c0 -109 -71 -227 -283 -227zM442 61v334s-53 25 -132 25c-99 0 -161 -70 -161 -177
c0 -123 57 -182 195 -182h98z" />
    <glyph glyph-name="uniFEEE" unicode="&#x648;" horiz-adv-x="656" arabic-form="final" 
d="M234 -253c-78 0 -158 15 -158 15l6 66s87 -21 161 -21c111 0 199 42 199 165v28h-110c-191 0 -260 91 -260 234c0 131 81 247 247 247c107 0 198 -35 198 -35v-385h139v-61h-139v-26c0 -109 -71 -227 -283 -227zM442 61v334s-53 25 -132 25c-99 0 -161 -70 -161 -177
c0 -123 57 -182 195 -182h98z" />
    <glyph glyph-name="uni0649" unicode="&#x649;" horiz-adv-x="1002" arabic-form="isolated" 
d="M601 0h-178c-245 0 -343 97 -343 289c0 63 16 131 34 170l82 15c-24 -48 -40 -118 -40 -175c0 -157 60 -238 278 -238h92v401s85 19 175 19c163 0 220 -81 220 -218v-143h-75v132c0 120 -46 168 -154 168c-45 0 -91 -10 -91 -10v-410z" />
    <glyph glyph-name="uniFEF0" unicode="&#x649;" horiz-adv-x="1030" arabic-form="final" 
d="M601 0h-178c-245 0 -343 97 -343 289c0 63 16 131 34 170l82 15c-24 -48 -40 -118 -40 -175c0 -157 60 -238 278 -238h92v401s85 19 175 19c163 0 220 -81 220 -218v-202h109v-61h-184v252c0 120 -46 168 -154 168c-45 0 -91 -10 -91 -10v-410z" />
    <glyph glyph-name="uniFBE8" unicode="&#x649;" arabic-form="initial" 
d="M216 0h-231c-20 0 -60 11 -60 31c0 19 40 30 60 30h155v409h76v-470z" />
    <glyph glyph-name="uniFBE9" unicode="&#x649;" horiz-adv-x="356" arabic-form="medial" 
d="M-15 0c-20 0 -60 11 -60 31c0 19 40 30 60 30h155v409h76v-409h140v-61h-371z" />
    <glyph glyph-name="uni064A" unicode="&#x64a;" horiz-adv-x="1002" arabic-form="isolated" 
d="M601 0h-178c-245 0 -343 97 -343 289c0 63 16 131 34 170l82 15c-24 -48 -40 -118 -40 -175c0 -157 60 -238 278 -238h92v401s85 19 175 19c163 0 220 -81 220 -218v-143h-75v132c0 120 -46 168 -154 168c-45 0 -91 -10 -91 -10v-410zM285 -146c0 26 21 48 47 48
s48 -21 48 -48c0 -26 -22 -47 -48 -47s-47 21 -47 47zM424 -146c0 26 21 48 47 48s47 -21 47 -48c0 -26 -21 -47 -47 -47s-47 21 -47 47z" />
    <glyph glyph-name="uniFEF2" unicode="&#x64a;" horiz-adv-x="1030" arabic-form="final" 
d="M601 0h-178c-245 0 -343 97 -343 289c0 63 16 131 34 170l82 15c-24 -48 -40 -118 -40 -175c0 -157 60 -238 278 -238h92v401s85 19 175 19c163 0 220 -81 220 -218v-202h109v-61h-184v252c0 120 -46 168 -154 168c-45 0 -91 -10 -91 -10v-410zM285 -146
c0 26 21 48 47 48s48 -21 48 -48c0 -26 -22 -47 -48 -47s-47 21 -47 47zM424 -146c0 26 21 48 47 48s47 -21 47 -48c0 -26 -21 -47 -47 -47s-47 21 -47 47z" />
    <glyph glyph-name="uniFEF3" unicode="&#x64a;" arabic-form="initial" 
d="M216 0h-231c-20 0 -60 11 -60 31c0 19 40 30 60 30h155v409h76v-470zM58 -146c0 26 21 48 47 48s48 -21 48 -48c0 -26 -22 -47 -48 -47s-47 21 -47 47zM197 -146c0 26 21 48 47 48s47 -21 47 -48c0 -26 -21 -47 -47 -47s-47 21 -47 47z" />
    <glyph glyph-name="uniFEF4" unicode="&#x64a;" horiz-adv-x="356" arabic-form="medial" 
d="M356 0h-371c-20 0 -60 11 -60 31c0 19 40 30 60 30h155v409h76v-409h140v-61zM60 -146c0 26 21 48 47 48s48 -21 48 -48c0 -26 -22 -47 -48 -47s-47 21 -47 47zM199 -146c0 26 21 48 47 48s47 -21 47 -48c0 -26 -21 -47 -47 -47s-47 21 -47 47z" />
    <glyph glyph-name="uni0671" unicode="&#x671;" horiz-adv-x="286" arabic-form="isolated" 
d="M105 0v675h76v-675h-76zM85 789h136v12c0 57 -15 74 -44 74c-41 0 -76 -37 -92 -86zM-19 747v42h53c29 83 86 127 148 127c58 0 93 -25 93 -115v-54h-294z" />
    <glyph glyph-name="uniFB51" unicode="&#x671;" arabic-form="final" 
d="M105 0v675h76v-614h140v-61h-216zM-19 747v42h53c29 83 86 127 148 127c58 0 93 -25 93 -115v-54h-294zM85 789h136v12c0 57 -15 74 -44 74c-41 0 -76 -37 -92 -86z" />
    <glyph glyph-name="uni0679" unicode="&#x679;" horiz-adv-x="798" arabic-form="isolated" 
d="M693 0h-270c-245 0 -343 97 -343 289c0 63 16 131 34 170l82 15c-24 -48 -40 -118 -40 -175c0 -157 60 -238 278 -238h183v409h76v-470zM508 667c0 31 -12 55 -44 55c-54 0 -108 -69 -112 -124h74c58 0 82 27 82 69zM352 835v-85c0 -20 -2 -44 -6 -64h1
c25 46 74 80 124 80c59 0 92 -35 92 -92c0 -73 -47 -119 -146 -119h-118v280h53z" />
    <glyph glyph-name="uniFB67" unicode="&#x679;" horiz-adv-x="833" arabic-form="final" 
d="M833 0h-410c-245 0 -343 97 -343 289c0 63 16 131 34 170l82 15c-24 -48 -40 -118 -40 -175c0 -157 60 -238 278 -238h183v409h76v-409h140v-61zM352 835v-85c0 -20 -2 -44 -6 -64h1c25 46 74 80 124 80c59 0 92 -35 92 -92c0 -73 -47 -119 -146 -119h-118v280h53z
M508 667c0 31 -12 55 -44 55c-54 0 -108 -69 -112 -124h74c58 0 82 27 82 69z" />
    <glyph glyph-name="uniFB68" unicode="&#x679;" arabic-form="initial" 
d="M216 0h-231c-20 0 -60 11 -60 31c0 19 40 30 60 30h155v409h76v-470zM255 697c0 31 -12 55 -44 55c-54 0 -108 -69 -112 -124h74c58 0 82 27 82 69zM99 865v-85c0 -20 -2 -44 -6 -64h1c25 46 74 80 124 80c59 0 92 -35 92 -92c0 -73 -47 -119 -146 -119h-118v280h53z" />
    <glyph glyph-name="uniFB69" unicode="&#x679;" horiz-adv-x="356" arabic-form="medial" 
d="M356 0h-371c-20 0 -60 11 -60 31c0 19 40 30 60 30h155v409h76v-409h140v-61zM105 865v-85c0 -20 -2 -44 -6 -64h1c25 46 74 80 124 80c59 0 92 -35 92 -92c0 -73 -47 -119 -146 -119h-118v280h53zM261 697c0 31 -12 55 -44 55c-54 0 -108 -69 -112 -124h74
c58 0 82 27 82 69z" />
    <glyph glyph-name="uni067E" unicode="&#x67e;" horiz-adv-x="798" arabic-form="isolated" 
d="M693 0h-270c-245 0 -343 97 -343 289c0 63 16 131 34 170l82 15c-24 -48 -40 -118 -40 -175c0 -157 60 -238 278 -238h183v409h76v-470zM379 -216c0 26 22 47 48 47s47 -20 47 -47c0 -26 -21 -47 -47 -47c-27 0 -48 20 -48 47zM449 -111c0 26 21 47 47 47
c25 0 46 -20 46 -47c0 -25 -20 -47 -46 -47s-47 21 -47 47zM311 -111c0 26 21 47 47 47s47 -20 47 -47c0 -25 -21 -47 -47 -47s-47 21 -47 47z" />
    <glyph glyph-name="uniFB57" unicode="&#x67e;" horiz-adv-x="833" arabic-form="final" 
d="M833 0h-410c-245 0 -343 97 -343 289c0 63 16 131 34 170l82 15c-24 -48 -40 -118 -40 -175c0 -157 60 -238 278 -238h183v409h76v-409h140v-61zM379 -216c0 26 22 47 48 47s47 -20 47 -47c0 -26 -21 -47 -47 -47c-27 0 -48 20 -48 47zM311 -111c0 26 21 47 47 47
s47 -20 47 -47c0 -25 -21 -47 -47 -47s-47 21 -47 47zM449 -111c0 26 21 47 47 47c25 0 46 -20 46 -47c0 -25 -20 -47 -46 -47s-47 21 -47 47z" />
    <glyph glyph-name="uniFB58" unicode="&#x67e;" arabic-form="initial" 
d="M216 0h-231c-20 0 -60 11 -60 31c0 19 40 30 60 30h155v409h76v-470zM126 -216c0 26 22 47 48 47s47 -20 47 -47c0 -26 -21 -47 -47 -47c-27 0 -48 20 -48 47zM196 -111c0 26 21 47 47 47c25 0 46 -20 46 -47c0 -25 -20 -47 -46 -47s-47 21 -47 47zM58 -111
c0 26 21 47 47 47s47 -20 47 -47c0 -25 -21 -47 -47 -47s-47 21 -47 47z" />
    <glyph glyph-name="uniFB59" unicode="&#x67e;" horiz-adv-x="356" arabic-form="medial" 
d="M356 0h-371c-20 0 -60 11 -60 31c0 19 40 30 60 30h155v409h76v-409h140v-61zM129 -216c0 26 22 47 48 47s47 -20 47 -47c0 -26 -21 -47 -47 -47c-27 0 -48 20 -48 47zM61 -111c0 26 21 47 47 47s47 -20 47 -47c0 -25 -21 -47 -47 -47s-47 21 -47 47zM199 -111
c0 26 21 47 47 47c25 0 46 -20 46 -47c0 -25 -20 -47 -46 -47s-47 21 -47 47z" />
    <glyph glyph-name="uni0686" unicode="&#x686;" horiz-adv-x="624" arabic-form="isolated" 
d="M527 0h-188c-179 0 -223 -57 -223 -131c0 -64 48 -110 137 -123l-16 -63c-121 18 -197 83 -197 179c0 113 78 199 304 199h115c5 39 8 77 8 113c0 161 -56 239 -228 239c-39 0 -72 -2 -110 -7v60c31 4 72 8 116 8c219 0 298 -102 298 -293c0 -47 -4 -109 -16 -181z
M338 -216c0 26 22 47 48 47s47 -20 47 -47c0 -26 -21 -47 -47 -47c-27 0 -48 20 -48 47zM408 -111c0 26 21 47 47 47c25 0 46 -20 46 -47c0 -25 -20 -47 -46 -47s-47 21 -47 47zM270 -111c0 26 21 47 47 47s47 -20 47 -47c0 -25 -21 -47 -47 -47s-47 21 -47 47z" />
    <glyph glyph-name="uniFB7B" unicode="&#x686;" horiz-adv-x="619" arabic-form="final" 
d="M619 0h-280c-179 0 -223 -57 -223 -131c0 -64 48 -110 137 -123l-16 -63c-121 18 -197 83 -197 179c0 113 78 199 304 199h115c5 39 8 77 8 113c0 161 -56 239 -228 239c-39 0 -72 -2 -110 -7v60c31 4 72 8 116 8c219 0 298 -102 298 -293c0 -33 -2 -74 -7 -120h83v-61z
M338 -216c0 26 22 47 48 47s47 -20 47 -47c0 -26 -21 -47 -47 -47c-27 0 -48 20 -48 47zM270 -111c0 26 21 47 47 47s47 -20 47 -47c0 -25 -21 -47 -47 -47s-47 21 -47 47zM408 -111c0 26 21 47 47 47c25 0 46 -20 46 -47c0 -25 -20 -47 -46 -47s-47 21 -47 47z" />
    <glyph glyph-name="uniFB7C" unicode="&#x686;" horiz-adv-x="532" arabic-form="initial" 
d="M435 0h-450c-20 0 -60 11 -60 31c0 19 40 30 60 30h383c5 39 8 77 8 113c0 161 -56 239 -228 239c-39 0 -86 -4 -123 -10v60c31 5 85 11 129 11c219 0 298 -102 298 -293c0 -47 -5 -109 -17 -181zM158 -216c0 26 22 47 48 47s47 -20 47 -47c0 -26 -21 -47 -47 -47
c-27 0 -48 20 -48 47zM228 -111c0 26 21 47 47 47c25 0 46 -20 46 -47c0 -25 -20 -47 -46 -47s-47 21 -47 47zM90 -111c0 26 21 47 47 47s47 -20 47 -47c0 -25 -21 -47 -47 -47s-47 21 -47 47z" />
    <glyph glyph-name="uniFB7D" unicode="&#x686;" horiz-adv-x="528" arabic-form="medial" 
d="M528 0h-543c-20 0 -60 11 -60 31c0 19 40 30 60 30h383c5 39 8 77 8 113c0 161 -56 239 -228 239c-39 0 -86 -4 -123 -10v60c31 5 85 11 129 11c219 0 298 -102 298 -293c0 -33 -3 -74 -8 -120h84v-61zM158 -216c0 26 22 47 48 47s47 -20 47 -47c0 -26 -21 -47 -47 -47
c-27 0 -48 20 -48 47zM90 -111c0 26 21 47 47 47s47 -20 47 -47c0 -25 -21 -47 -47 -47s-47 21 -47 47zM228 -111c0 26 21 47 47 47c25 0 46 -20 46 -47c0 -25 -20 -47 -46 -47s-47 21 -47 47z" />
    <glyph glyph-name="uni0688" unicode="&#x688;" horiz-adv-x="548" arabic-form="isolated" 
d="M61 0v61h330c-1 197 -73 303 -258 362l20 65c217 -70 314 -192 314 -445v-43h-406zM332 697c0 31 -12 55 -44 55c-54 0 -108 -69 -112 -124h74c58 0 82 27 82 69zM176 865v-85c0 -20 -2 -44 -6 -64h1c25 46 74 80 124 80c59 0 92 -35 92 -92c0 -73 -47 -119 -146 -119
h-118v280h53z" />
    <glyph glyph-name="uniFB89" unicode="&#x688;" horiz-adv-x="540" arabic-form="final" 
d="M61 0v61h330c-1 197 -73 303 -258 362l20 65c211 -69 309 -187 314 -427h73v-61h-479zM176 865v-85c0 -20 -2 -44 -6 -64h1c25 46 74 80 124 80c59 0 92 -35 92 -92c0 -73 -47 -119 -146 -119h-118v280h53zM332 697c0 31 -12 55 -44 55c-54 0 -108 -69 -112 -124h74
c58 0 82 27 82 69z" />
    <glyph glyph-name="uni0691" unicode="&#x691;" horiz-adv-x="426" arabic-form="isolated" 
d="M96 -258c-40 0 -81 7 -112 16l10 64c33 -12 70 -20 108 -20c89 0 143 44 143 185v483h77v-475c0 -148 -56 -253 -226 -253zM359 697c0 31 -12 55 -44 55c-54 0 -108 -69 -112 -124h74c58 0 82 27 82 69zM203 865v-85c0 -20 -2 -44 -6 -64h1c25 46 74 80 124 80
c59 0 92 -35 92 -92c0 -73 -47 -119 -146 -119h-118v280h53z" />
    <glyph glyph-name="uniFB8D" unicode="&#x691;" horiz-adv-x="461" arabic-form="final" 
d="M96 -258c-40 0 -81 7 -112 16l10 64c33 -12 70 -20 108 -20c89 0 143 44 143 185v483h77v-409h139v-61h-139v-5c0 -148 -56 -253 -226 -253zM203 865v-85c0 -20 -2 -44 -6 -64h1c25 46 74 80 124 80c59 0 92 -35 92 -92c0 -73 -47 -119 -146 -119h-118v280h53zM359 697
c0 31 -12 55 -44 55c-54 0 -108 -69 -112 -124h74c58 0 82 27 82 69z" />
    <glyph glyph-name="uni0698" unicode="&#x698;" horiz-adv-x="426" arabic-form="isolated" 
d="M96 -258c-40 0 -81 7 -112 16l10 64c33 -12 70 -20 108 -20c89 0 143 44 143 185v483h77v-475c0 -148 -56 -253 -226 -253zM162 611c0 26 21 48 47 48s47 -21 47 -48c0 -25 -21 -47 -47 -47s-47 21 -47 47zM302 611c0 26 21 48 47 48s47 -21 47 -48
c0 -25 -21 -47 -47 -47s-47 21 -47 47zM232 718c0 26 21 48 47 48s47 -21 47 -48c0 -25 -21 -47 -47 -47s-47 21 -47 47z" />
    <glyph glyph-name="uniFB8B" unicode="&#x698;" horiz-adv-x="461" arabic-form="final" 
d="M96 -258c-40 0 -81 7 -112 16l10 64c33 -12 70 -20 108 -20c89 0 143 44 143 185v483h77v-409h139v-61h-139v-5c0 -148 -56 -253 -226 -253zM163 611c0 26 21 48 47 48s47 -21 47 -48c0 -25 -21 -47 -47 -47s-47 21 -47 47zM233 718c0 26 21 48 47 48s47 -21 47 -48
c0 -25 -21 -47 -47 -47s-47 21 -47 47zM303 611c0 26 21 48 47 48s47 -21 47 -48c0 -25 -21 -47 -47 -47s-47 21 -47 47z" />
    <glyph glyph-name="uni06A4" unicode="&#x6a4;" horiz-adv-x="939" arabic-form="isolated" 
d="M875 247c0 -137 -91 -247 -238 -247h-214c-245 0 -343 97 -343 289c0 63 16 131 34 170l82 15c-24 -48 -40 -118 -40 -175c0 -157 61 -238 271 -238h63c-46 31 -71 93 -71 177c0 133 87 243 237 243c121 0 219 -63 219 -234zM797 244c0 110 -50 176 -149 176
c-77 0 -152 -54 -152 -177c0 -117 55 -182 152 -182c79 0 149 55 149 183zM534 611c0 26 21 48 47 48s47 -21 47 -48c0 -25 -21 -47 -47 -47s-47 21 -47 47zM674 611c0 26 21 48 47 48s47 -21 47 -48c0 -25 -21 -47 -47 -47s-47 21 -47 47zM604 718c0 26 21 48 47 48
s47 -21 47 -48c0 -25 -21 -47 -47 -47s-47 21 -47 47z" />
    <glyph glyph-name="uniFB6B" unicode="&#x6a4;" horiz-adv-x="950" arabic-form="final" 
d="M950 61v-61h-527c-245 0 -343 97 -343 289c0 63 16 131 34 170l82 15c-24 -48 -40 -118 -40 -175c0 -157 61 -238 271 -238h63c-46 31 -71 93 -71 177c0 133 87 243 237 243c121 0 219 -63 219 -233c0 -77 -30 -150 -85 -190c0 0 54 3 91 3h69zM797 244
c0 110 -50 176 -149 176c-77 0 -152 -54 -152 -177c0 -117 55 -182 152 -182c79 0 149 55 149 183zM534 611c0 26 21 48 47 48s47 -21 47 -48c0 -25 -21 -47 -47 -47s-47 21 -47 47zM674 611c0 26 21 48 47 48s47 -21 47 -48c0 -25 -21 -47 -47 -47s-47 21 -47 47zM604 718
c0 26 21 48 47 48s47 -21 47 -48c0 -25 -21 -47 -47 -47s-47 21 -47 47z" />
    <glyph glyph-name="uniFB6C" unicode="&#x6a4;" horiz-adv-x="622" arabic-form="initial" 
d="M536 0h-551c-20 0 -60 11 -60 31c0 19 40 30 60 30h118c35 0 58 -4 58 -4c-53 32 -81 89 -81 179c0 130 84 245 246 245c139 0 210 -79 210 -222v-259zM461 61v182c0 128 -53 177 -143 177c-99 0 -160 -70 -160 -178c0 -123 57 -181 195 -181h108zM199 611
c0 26 21 48 47 48s47 -21 47 -48c0 -25 -21 -47 -47 -47s-47 21 -47 47zM339 611c0 26 21 48 47 48s47 -21 47 -48c0 -25 -21 -47 -47 -47s-47 21 -47 47zM269 718c0 26 21 48 47 48s47 -21 47 -48c0 -25 -21 -47 -47 -47s-47 21 -47 47z" />
    <glyph glyph-name="uniFB6D" unicode="&#x6a4;" horiz-adv-x="608" arabic-form="medial" 
d="M608 0h-623c-20 0 -60 11 -60 31c0 19 40 30 60 30h91c35 0 75 -3 75 -3c-47 32 -74 91 -74 180c0 133 87 243 237 243c121 0 220 -63 220 -233c0 -77 -30 -150 -86 -190c0 0 54 3 91 3h69v-61zM307 61c78 0 149 55 149 183c0 110 -51 176 -150 176
c-77 0 -151 -54 -151 -176c0 -118 54 -183 152 -183zM192 611c0 26 21 48 47 48s47 -21 47 -48c0 -25 -21 -47 -47 -47s-47 21 -47 47zM332 611c0 26 21 48 47 48s47 -21 47 -48c0 -25 -21 -47 -47 -47s-47 21 -47 47zM262 718c0 26 21 48 47 48s47 -21 47 -48
c0 -25 -21 -47 -47 -47s-47 21 -47 47z" />
    <glyph glyph-name="uni06A9" unicode="&#x6a9;" horiz-adv-x="868" arabic-form="isolated" 
d="M777 0h-354c-245 0 -343 97 -343 289c0 63 16 131 34 170l82 15c-24 -48 -40 -118 -40 -175c0 -157 60 -238 278 -238h268c-2 212 -88 310 -269 365v57l373 234v-77l-284 -175c164 -67 255 -178 255 -421v-44z" />
    <glyph glyph-name="uniFB8F" unicode="&#x6a9;" horiz-adv-x="858" arabic-form="final" 
d="M858 0h-435c-245 0 -343 97 -343 289c0 63 16 131 34 170l82 15c-24 -48 -40 -118 -40 -175c0 -157 60 -238 278 -238h268c-2 212 -88 310 -269 365v57l373 234v-77l-284 -175c160 -66 251 -173 255 -404h81v-61z" />
    <glyph glyph-name="uniFB90" unicode="&#x6a9;" horiz-adv-x="457" arabic-form="initial" 
d="M366 0h-381c-20 0 -60 11 -60 31c0 19 40 30 60 30h306c-2 212 -87 310 -269 365v57l373 234v-77l-283 -175c163 -67 254 -178 254 -421v-44z" />
    <glyph glyph-name="uniFB91" unicode="&#x6a9;" horiz-adv-x="447" arabic-form="medial" 
d="M-15 0c-20 0 -60 11 -60 31c0 19 40 30 60 30h306c-2 212 -87 310 -269 365v57l373 234v-77l-283 -175c159 -66 250 -173 254 -404h81v-61h-462z" />
    <glyph glyph-name="uni06AF" unicode="&#x6af;" horiz-adv-x="868" arabic-form="isolated" 
d="M777 0h-354c-245 0 -343 97 -343 289c0 63 16 131 34 170l82 15c-24 -48 -40 -118 -40 -175c0 -157 60 -238 278 -238h268c-2 212 -88 310 -269 365v55l373 234v-75l-284 -175c164 -67 255 -178 255 -421v-44zM433 571v72l373 234v-72z" />
    <glyph glyph-name="uniFB93" unicode="&#x6af;" horiz-adv-x="858" arabic-form="final" 
d="M423 0c-245 0 -343 97 -343 289c0 63 16 131 34 170l82 15c-24 -48 -40 -118 -40 -175c0 -157 60 -238 278 -238h268c-2 212 -88 310 -269 365v55l373 234v-75l-284 -175c160 -66 251 -173 255 -404h81v-61h-435zM433 571v72l373 234v-72z" />
    <glyph glyph-name="uniFB94" unicode="&#x6af;" horiz-adv-x="457" arabic-form="initial" 
d="M366 0h-381c-20 0 -60 11 -60 31c0 19 40 30 60 30h306c-2 212 -87 310 -269 365v55l373 234v-75l-283 -175c163 -67 254 -178 254 -421v-44zM22 544v72l373 233v-72z" />
    <glyph glyph-name="uniFB95" unicode="&#x6af;" horiz-adv-x="447" arabic-form="medial" 
d="M447 0h-462c-20 0 -60 11 -60 31c0 19 40 30 60 30h306c-2 212 -87 310 -269 365v55l373 234v-75l-283 -175c159 -66 250 -173 254 -404h81v-61zM22 544v72l373 233v-72z" />
    <glyph glyph-name="uni06BA" unicode="&#x6ba;" horiz-adv-x="676" arabic-form="isolated" 
d="M571 470v-427c0 -183 -90 -274 -257 -274c-128 0 -242 70 -242 277c0 68 8 134 24 194l79 15c-18 -67 -27 -135 -27 -202c0 -178 92 -223 175 -223c98 0 172 51 172 208v432h76z" />
    <glyph glyph-name="uniFB9F" unicode="&#x6ba;" horiz-adv-x="711" arabic-form="final" 
d="M571 470v-409h140v-61h-142c-14 -154 -102 -231 -255 -231c-128 0 -242 70 -242 277c0 68 8 134 24 194l79 15c-18 -67 -27 -135 -27 -202c0 -178 92 -223 175 -223c98 0 172 51 172 208v432h76z" />
    <glyph glyph-name="uni06BE" unicode="&#x6be;" horiz-adv-x="799" arabic-form="isolated" 
d="M716 0h-686v61h128c18 0 36 -2 37 -2c-2 1 -45 32 -45 99c0 103 74 164 182 164c122 0 174 -89 174 -216v-45h136v23c0 264 -98 364 -307 364c-64 0 -148 -14 -212 -35l-9 60c67 21 155 36 232 36c238 0 370 -119 370 -421v-88zM437 60v42c0 103 -32 163 -110 163
c-68 0 -107 -38 -107 -98c0 -77 56 -107 120 -107h97z" />
    <glyph glyph-name="uniFBAB" unicode="&#x6be;" horiz-adv-x="794" arabic-form="final" 
d="M30 0v61h128c18 0 36 -2 37 -2c-2 1 -45 32 -45 99c0 103 74 164 182 164c122 0 174 -89 174 -216v-45h136v23c0 264 -98 364 -307 364c-64 0 -148 -14 -212 -35l-9 60c67 21 155 36 232 36c238 0 370 -119 370 -421v-27h78v-61h-764zM437 60v42c0 103 -32 163 -110 163
c-68 0 -107 -38 -107 -98c0 -77 56 -107 120 -107h97z" />
    <glyph glyph-name="uniFBAC" unicode="&#x6be;" horiz-adv-x="765" arabic-form="initial" 
d="M683 0h-698c-20 0 -60 11 -60 31c0 19 40 30 60 30h139c19 0 37 -2 38 -2c-2 1 -45 32 -45 99c0 103 74 164 182 164c122 0 174 -89 174 -216v-45h136v23c0 264 -99 364 -307 364c-64 0 -148 -14 -212 -35l-9 60c67 21 154 36 232 36c238 0 370 -119 370 -421v-88z
M404 60v42c0 103 -32 163 -111 163c-68 0 -106 -38 -106 -98c0 -77 56 -107 119 -107h98z" />
    <glyph glyph-name="uniFBAD" unicode="&#x6be;" horiz-adv-x="760" arabic-form="medial" 
d="M-15 0c-20 0 -60 11 -60 31c0 19 40 30 60 30h139c19 0 37 -2 38 -2c-2 1 -45 32 -45 99c0 103 74 164 182 164c122 0 174 -89 174 -216v-45h136v23c0 264 -99 364 -307 364c-64 0 -148 -14 -212 -35l-9 60c67 21 154 36 232 36c238 0 370 -119 370 -421v-27h78v-61h-776
zM404 60v42c0 103 -32 163 -111 163c-68 0 -106 -38 -106 -98c0 -77 56 -107 119 -107h98z" />
    <glyph glyph-name="uni06C0" unicode="&#x6c0;" horiz-adv-x="613" arabic-form="isolated" 
d="M527 0h-195c-191 0 -260 91 -260 233c0 133 83 248 245 248c139 0 210 -79 210 -222v-259zM452 61v182c0 128 -53 177 -142 177c-99 0 -161 -70 -161 -178c0 -123 57 -181 195 -181h108zM170 570v48c30 0 58 -2 76 -5c-22 9 -33 33 -33 52c0 45 34 93 122 93
c20 0 38 -2 52 -5l-9 -47c-10 1 -30 4 -49 4c-39 0 -58 -17 -58 -44s21 -48 81 -48h54v-48h-236z" />
    <glyph glyph-name="uniFBA5" unicode="&#x6c0;" horiz-adv-x="656" arabic-form="final" 
d="M656 0h-324c-191 0 -260 91 -260 234c0 131 81 247 247 247c107 0 198 -35 198 -35v-385h139v-61zM442 61v334s-53 25 -132 25c-99 0 -161 -70 -161 -177c0 -123 57 -182 195 -182h98zM178 570v48c30 0 58 -2 76 -5c-22 9 -33 33 -33 52c0 45 34 93 122 93
c20 0 38 -2 52 -5l-9 -47c-10 1 -30 4 -49 4c-39 0 -58 -17 -58 -44s21 -48 81 -48h54v-48h-236z" />
    <glyph glyph-name="uni06CC" unicode="&#x6cc;" horiz-adv-x="1002" arabic-form="isolated" 
d="M601 0h-178c-245 0 -343 97 -343 289c0 63 16 131 34 170l82 15c-24 -48 -40 -118 -40 -175c0 -157 60 -238 278 -238h92v401s85 19 175 19c163 0 220 -81 220 -218v-143h-75v132c0 120 -46 168 -154 168c-45 0 -91 -10 -91 -10v-410z" />
    <glyph glyph-name="uniFBFD" unicode="&#x6cc;" horiz-adv-x="1030" arabic-form="final" 
d="M601 0h-178c-245 0 -343 97 -343 289c0 63 16 131 34 170l82 15c-24 -48 -40 -118 -40 -175c0 -157 60 -238 278 -238h92v401s85 19 175 19c163 0 220 -81 220 -218v-202h109v-61h-184v252c0 120 -46 168 -154 168c-45 0 -91 -10 -91 -10v-410z" />
    <glyph glyph-name="uniFBFE" unicode="&#x6cc;" arabic-form="initial" 
d="M216 0h-231c-20 0 -60 11 -60 31c0 19 40 30 60 30h155v409h76v-470zM58 -146c0 26 21 48 47 48s48 -21 48 -48c0 -26 -22 -47 -48 -47s-47 21 -47 47zM197 -146c0 26 21 48 47 48s47 -21 47 -48c0 -26 -21 -47 -47 -47s-47 21 -47 47z" />
    <glyph glyph-name="uniFBFF" unicode="&#x6cc;" horiz-adv-x="356" arabic-form="medial" 
d="M356 0h-371c-20 0 -60 11 -60 31c0 19 40 30 60 30h155v409h76v-409h140v-61zM60 -146c0 26 21 48 47 48s48 -21 48 -48c0 -26 -22 -47 -48 -47s-47 21 -47 47zM199 -146c0 26 21 48 47 48s47 -21 47 -48c0 -26 -21 -47 -47 -47s-47 21 -47 47z" />
    <glyph glyph-name="uni06D2" unicode="&#x6d2;" horiz-adv-x="728" arabic-form="isolated" 
d="M690 0h-607c-19 234 116 481 311 481c120 0 156 -71 156 -164v-67h-75v45c0 79 -21 124 -93 124c-134 0 -225 -204 -225 -358h533v-61z" />
    <glyph glyph-name="uniFBAF" unicode="&#x6d2;" horiz-adv-x="727" arabic-form="final" 
d="M636 -320h-608c-13 199 112 381 362 381h337v-61h-346c-193 0 -278 -146 -278 -259h533v-61z" />
    <glyph glyph-name="uni06D3" unicode="&#x6d3;" horiz-adv-x="728" arabic-form="isolated" 
d="M690 0h-607c-19 234 116 481 311 481c120 0 156 -71 156 -164v-67h-75v45c0 79 -21 124 -93 124c-134 0 -225 -204 -225 -358h533v-61zM200 570v48c30 0 58 -2 76 -5c-22 9 -33 33 -33 52c0 45 34 93 122 93c20 0 38 -2 52 -5l-9 -47c-10 1 -30 4 -49 4
c-39 0 -58 -17 -58 -44s21 -48 81 -48h54v-48h-236z" />
    <glyph glyph-name="uniFBB1" unicode="&#x6d3;" horiz-adv-x="728" arabic-form="final" 
d="M637 -320h-608c-13 199 112 381 362 381h337v-61h-346c-193 0 -278 -146 -278 -259h533v-61zM87 138v48c30 0 58 -2 76 -5c-22 9 -33 33 -33 52c0 45 34 93 122 93c20 0 38 -2 52 -5l-9 -47c-10 1 -30 4 -49 4c-39 0 -58 -17 -58 -44s21 -48 81 -48h54v-48h-236z" />
    <glyph glyph-name="uni06D5.fina" unicode="&#x6d5;" horiz-adv-x="656" 
d="M656 0h-324c-191 0 -260 91 -260 234c0 131 81 247 247 247c107 0 198 -35 198 -35v-385h139v-61zM442 61v334s-53 25 -132 25c-99 0 -161 -70 -161 -177c0 -123 57 -182 195 -182h98z" />
    <glyph glyph-name="uniFE71" unicode="&#xfe71;" horiz-adv-x="310" arabic-form="medial" 
d="M-15 0v61h326v-61h-326zM43 817v43l224 32v-43zM43 905v43l224 32v-43z" />
    <glyph glyph-name="uniFE77" unicode="&#xfe77;" horiz-adv-x="310" arabic-form="medial" 
d="M-15 0v61h326v-61h-326zM43 903v45l224 32v-45z" />
    <glyph glyph-name="uniFE79" unicode="&#xfe79;" horiz-adv-x="325" arabic-form="medial" 
d="M-15 0v61h344v-61h-344zM46 818v38l76 9s-6 15 -6 33c0 47 38 78 85 78c45 0 75 -26 75 -67c0 -48 -42 -66 -93 -73zM164 871l17 2c38 4 54 14 54 36c0 19 -15 31 -35 31c-26 0 -42 -17 -42 -43c0 -17 6 -26 6 -26z" />
    <glyph glyph-name="uniFE7B" unicode="&#xfe7b;" horiz-adv-x="310" arabic-form="medial" 
d="M-15 0v61h326v-61h-326zM43 -315v45l224 32v-45z" />
    <glyph glyph-name="uniFE7D" unicode="&#xfe7d;" horiz-adv-x="325" arabic-form="medial" 
d="M-15 0v61h344v-61h-344zM160 857c-11 -21 -35 -34 -59 -34c-33 0 -57 18 -63 62l-7 49l43 7l7 -49c4 -21 12 -28 28 -28c20 1 34 16 30 40l-7 46l42 7l7 -47c4 -22 16 -33 31 -33c27 0 33 21 29 48l-7 49l43 6l8 -47c8 -51 -18 -96 -79 -96c-16 0 -36 7 -46 20z" />
    <glyph glyph-name="uniFE7F" unicode="&#xfe7f;" horiz-adv-x="310" arabic-form="medial" 
d="M-15 0v61h326v-61h-326zM114 905c0 -25 18 -38 40 -38c25 0 40 15 40 39s-16 38 -40 38c-23 0 -40 -16 -40 -39zM70 903c0 45 40 76 85 76c47 0 83 -25 83 -72c0 -44 -40 -75 -86 -75c-44 0 -82 25 -82 71z" />
    <glyph glyph-name="uniFCF2" unicode="&#xfcf2;" horiz-adv-x="325" arabic-form="medial" 
d="M-15 0v61h344v-61h-344zM57 904v39l200 37v-39zM165 793c-10 -19 -29 -31 -53 -31c-28 0 -47 16 -53 53l-7 37l37 6l7 -34c3 -18 10 -25 24 -25c19 0 29 15 25 37l-6 34l37 6l7 -35c3 -20 11 -28 25 -28c23 0 29 19 25 44l-6 35l38 6l6 -37c9 -51 -19 -85 -67 -85
c-17 0 -27 5 -39 17z" />
    <glyph glyph-name="uniFCF3" unicode="&#xfcf3;" horiz-adv-x="325" arabic-form="medial" 
d="M-15 0v61h344v-61h-344zM169 710c-9 -20 -29 -32 -54 -32c-28 0 -46 16 -53 52l-7 37l37 7l7 -34c4 -18 10 -25 24 -25c19 0 29 15 25 37l-6 34l36 7l7 -35c4 -20 12 -27 26 -27c22 0 29 19 24 43l-6 35l38 7l7 -35c10 -54 -19 -88 -67 -88c-16 0 -27 5 -38 17zM47 809
v39l72 15s-8 17 -8 37c0 49 39 80 89 80c41 0 71 -27 71 -65c0 -48 -38 -66 -88 -76zM161 872l16 3c38 8 51 18 51 37s-12 31 -32 31c-27 0 -42 -17 -42 -42c0 -18 7 -29 7 -29z" />
    <glyph glyph-name="uniFCF4" unicode="&#xfcf4;" horiz-adv-x="325" arabic-form="medial" 
d="M-15 0v61h344v-61h-344zM63 755v37l202 36v-38zM156 875c-9 -19 -29 -31 -53 -31c-28 0 -46 16 -53 53l-7 37l37 6l7 -33c3 -19 10 -26 24 -26c18 0 29 15 25 37l-6 34l37 6l7 -35c3 -20 12 -28 25 -28c22 0 29 20 25 44l-6 35l38 6l6 -36c9 -52 -19 -86 -67 -86
c-18 0 -27 5 -39 17z" />
    <glyph glyph-name="uniFE70" unicode="&#xfe70;" horiz-adv-x="423" arabic-form="isolated" 
d="M99 817v43l224 32v-43zM99 905v43l224 32v-43z" />
    <glyph glyph-name="uniFE72" unicode="&#xfe72;" horiz-adv-x="475" arabic-form="isolated" 
d="M147 809l-26 116l40 9l16 -81l42 10s-7 17 -7 37c0 49 39 80 88 80c42 0 71 -27 71 -65c0 -48 -37 -66 -87 -76zM262 872l15 3c39 8 52 18 52 37s-12 31 -33 31c-27 0 -41 -17 -41 -42c0 -18 7 -29 7 -29z" />
    <glyph glyph-name="uniFE74" unicode="&#xfe74;" horiz-adv-x="423" arabic-form="isolated" 
d="M100 -320v43l224 32v-43zM100 -233v43l224 32v-43z" />
    <glyph glyph-name="uniFE76" unicode="&#xfe76;" horiz-adv-x="422" arabic-form="isolated" 
d="M99 903v45l224 32v-45z" />
    <glyph glyph-name="uniFE78" unicode="&#xfe78;" horiz-adv-x="430" arabic-form="isolated" 
d="M100 818v38l76 9s-6 15 -6 33c0 47 38 78 85 78c45 0 75 -26 75 -67c0 -48 -42 -66 -93 -73zM218 871l17 2c38 4 54 14 54 36c0 19 -15 31 -35 31c-26 0 -42 -17 -42 -43c0 -17 6 -26 6 -26z" />
    <glyph glyph-name="uniFE7A" unicode="&#xfe7a;" horiz-adv-x="422" arabic-form="isolated" 
d="M99 -317v45l224 32v-45z" />
    <glyph glyph-name="uniFE7C" unicode="&#xfe7c;" horiz-adv-x="455" arabic-form="isolated" 
d="M229 857c-11 -21 -35 -34 -59 -34c-33 0 -57 18 -63 62l-7 49l43 7l7 -49c4 -21 12 -28 28 -28c20 1 34 16 30 40l-7 46l42 7l7 -47c4 -22 16 -33 31 -33c27 0 33 21 29 48l-7 49l43 6l8 -47c8 -51 -18 -96 -79 -96c-16 0 -36 7 -46 20z" />
    <glyph glyph-name="uniFE7E" unicode="&#xfe7e;" horiz-adv-x="367" arabic-form="isolated" 
d="M144 905c0 -25 18 -38 40 -38c25 0 40 15 40 39s-16 38 -40 38c-23 0 -40 -16 -40 -39zM100 903c0 45 40 76 85 76c47 0 83 -25 83 -72c0 -44 -40 -75 -86 -75c-44 0 -82 25 -82 71z" />
    <glyph glyph-name="uniFC5E" unicode="&#xfc5e;" horiz-adv-x="469" arabic-form="isolated" 
d="M133 806l-25 120l41 9l18 -84l47 9s-7 19 -7 36c0 49 37 84 88 84c41 0 66 -24 66 -62c0 -42 -28 -72 -81 -82zM254 868l24 5c29 5 42 19 42 43c0 17 -13 27 -30 27c-26 0 -42 -18 -42 -45c0 -16 6 -30 6 -30zM244 703c-9 -20 -29 -32 -54 -32c-28 0 -46 16 -53 52l-7 37
l37 7l7 -34c4 -18 10 -25 24 -25c19 0 29 15 25 36l-6 35l36 7l8 -35c4 -20 12 -28 25 -28c22 0 29 20 25 44l-7 34l38 8l7 -35c10 -54 -19 -88 -67 -88c-16 0 -26 5 -38 17z" />
    <glyph glyph-name="uniFC5F" unicode="&#xfc5f;" horiz-adv-x="446" arabic-form="isolated" 
d="M129 700v37l202 30v-37zM129 770v37l202 31v-37zM218 875c-10 -19 -30 -31 -54 -31c-28 0 -46 16 -53 53l-7 37l38 6l6 -33c4 -19 11 -26 24 -26c19 0 29 15 26 37l-6 34l37 6l6 -35c4 -20 12 -28 25 -28c23 0 30 20 25 44l-6 35l39 6l6 -36c9 -52 -19 -86 -67 -86
c-18 0 -28 5 -39 17z" />
    <glyph glyph-name="uniFC60" unicode="&#xfc60;" horiz-adv-x="432" arabic-form="isolated" 
d="M108 904v39l200 37v-39zM216 793c-10 -19 -29 -31 -53 -31c-28 0 -47 16 -53 53l-7 37l37 6l7 -34c3 -18 10 -25 24 -25c19 0 29 15 25 37l-6 34l37 6l7 -35c3 -20 11 -28 25 -28c23 0 29 19 25 44l-6 35l38 6l6 -37c9 -51 -19 -85 -67 -85c-17 0 -27 5 -39 17z" />
    <glyph glyph-name="uniFC61" unicode="&#xfc61;" horiz-adv-x="438" arabic-form="isolated" 
d="M223 710c-9 -20 -29 -32 -54 -32c-28 0 -46 16 -53 52l-7 37l37 7l7 -34c4 -18 10 -25 24 -25c19 0 29 15 25 37l-6 34l36 7l7 -35c4 -20 12 -27 26 -27c22 0 29 19 24 43l-6 35l38 7l7 -35c10 -54 -19 -88 -67 -88c-16 0 -27 5 -38 17zM101 809v39l72 15s-8 17 -8 37
c0 49 39 80 89 80c41 0 71 -27 71 -65c0 -48 -38 -66 -88 -76zM215 872l16 3c38 8 51 18 51 37s-12 31 -32 31c-27 0 -42 -17 -42 -42c0 -18 7 -29 7 -29z" />
    <glyph glyph-name="uniFC62" unicode="&#xfc62;" horiz-adv-x="433" arabic-form="isolated" 
d="M119 755v37l202 36v-38zM212 875c-9 -19 -29 -31 -53 -31c-28 0 -46 16 -53 53l-7 37l37 6l7 -33c3 -19 10 -26 24 -26c18 0 29 15 25 37l-6 34l37 6l7 -35c3 -20 12 -28 25 -28c22 0 29 20 25 44l-6 35l38 6l6 -36c9 -52 -19 -86 -67 -86c-18 0 -27 5 -39 17z" />
    <glyph glyph-name="uniFC63" unicode="&#xfc63;" horiz-adv-x="420" arabic-form="isolated" 
d="M219 894l-39 -8v94h39v-86zM210 768c-10 -20 -30 -32 -54 -32c-28 0 -46 16 -53 53l-8 36l38 7l7 -33c4 -19 10 -26 24 -26c18 0 29 15 25 37l-6 34l36 7l7 -35c4 -20 12 -27 25 -27c23 0 30 19 25 44l-6 34l38 7l6 -35c11 -54 -18 -87 -66 -87c-17 0 -27 4 -38 16z" />
    <glyph glyph-name="uni066E.init" unicode="&#x66e;" 
d="M216 0h-231c-20 0 -60 11 -60 31c0 19 40 30 60 30h155v409h76v-470z" />
    <glyph glyph-name="uni066E.medi" unicode="&#x66e;" horiz-adv-x="356" 
d="M-15 0c-20 0 -60 11 -60 31c0 19 40 30 60 30h155v409h76v-409h140v-61h-371z" />
    <glyph glyph-name="uni066E.fina" unicode="&#x66e;" horiz-adv-x="833" 
d="M833 0h-410c-245 0 -343 97 -343 289c0 63 16 131 34 170l82 15c-24 -48 -40 -118 -40 -175c0 -157 60 -238 278 -238h183v409h76v-409h140v-61z" />
    <glyph glyph-name="uni066F.init" unicode="&#x66f;" horiz-adv-x="622" 
d="M536 0h-551c-20 0 -60 11 -60 31c0 19 40 30 60 30h118c35 0 58 -4 58 -4c-53 32 -81 89 -81 179c0 130 84 245 246 245c139 0 210 -79 210 -222v-259zM461 61v182c0 128 -53 177 -143 177c-99 0 -160 -70 -160 -178c0 -123 57 -181 195 -181h108z" />
    <glyph glyph-name="uni066F.medi" unicode="&#x66f;" horiz-adv-x="608" 
d="M608 0h-623c-20 0 -60 11 -60 31c0 19 40 30 60 30h91c35 0 75 -3 75 -3c-47 32 -74 91 -74 180c0 133 87 243 237 243c121 0 220 -63 220 -233c0 -77 -30 -150 -86 -190c0 0 54 3 91 3h69v-61zM307 61c78 0 149 55 149 183c0 110 -51 176 -150 176
c-77 0 -151 -54 -151 -176c0 -118 54 -183 152 -183z" />
    <glyph glyph-name="uni066F.fina" unicode="&#x66f;" horiz-adv-x="937" 
d="M797 446v-385h140v-61h-140v-238s-152 -13 -295 -13c-304 0 -430 89 -430 301c0 64 8 130 24 190l79 15c-18 -67 -27 -135 -27 -196c0 -181 103 -249 365 -249c99 0 209 9 209 9v181h-109c-192 0 -261 91 -261 234c0 131 82 247 247 247c107 0 198 -35 198 -35zM722 61
v334s-53 25 -132 25c-99 0 -161 -70 -161 -177c0 -123 57 -182 196 -182h97z" />
    <glyph glyph-name="uni0672.fina" unicode="&#x672;" 
d="M105 0v675h76v-614h140v-61h-216zM-18 764v52c86 9 97 -38 134 -38c-23 12 -35 32 -35 52c0 44 33 92 121 92c20 0 38 -2 52 -5l-9 -47c-10 2 -30 5 -49 5c-39 0 -57 -18 -57 -44c0 -28 20 -49 80 -49h54v-48h-116c-91 0 -113 43 -175 30z" />
    <glyph glyph-name="uni0673.fina" unicode="&#x673;" 
d="M105 0v675h76v-614h140v-61h-216zM-18 -217v52c86 9 97 -38 134 -38c-23 12 -35 32 -35 52c0 44 33 92 121 92c20 0 38 -2 52 -5l-9 -47c-10 2 -30 5 -49 5c-39 0 -57 -18 -57 -44c0 -28 20 -49 80 -49h54v-48h-116c-91 0 -113 43 -175 30z" />
    <glyph glyph-name="uni0675.fina" unicode="&#x675;" 
d="M105 0v675h76v-614h140v-61h-216zM140 730v48c30 0 58 -2 76 -5c-22 9 -33 33 -33 52c0 45 34 93 122 93c20 0 38 -2 52 -5l-9 -47c-10 1 -30 4 -49 4c-39 0 -58 -17 -58 -44s21 -48 81 -48h54v-48h-236z" />
    <glyph glyph-name="uni0676.fina" unicode="&#x676;" horiz-adv-x="656" 
d="M234 -253c-78 0 -158 15 -158 15l6 66s87 -21 161 -21c111 0 199 42 199 165v28h-110c-191 0 -260 91 -260 234c0 131 81 247 247 247c107 0 198 -35 198 -35v-385h139v-61h-139v-26c0 -109 -71 -227 -283 -227zM442 61v334s-53 25 -132 25c-99 0 -161 -70 -161 -177
c0 -123 57 -182 195 -182h98zM352 568v48c30 0 58 -2 76 -5c-22 9 -33 33 -33 52c0 45 34 93 122 93c20 0 38 -2 52 -5l-9 -47c-10 1 -30 4 -49 4c-39 0 -58 -17 -58 -44s21 -48 81 -48h54v-48h-236z" />
    <glyph glyph-name="uni0677.isol" unicode="&#x677;" horiz-adv-x="621" arabic-form="isolated" 
d="M58 538v47l54 12s-9 20 -9 45c0 60 46 99 107 99c51 0 87 -33 87 -81c0 -59 -45 -80 -106 -94zM164 608l19 3c46 9 63 22 63 46c0 22 -15 38 -40 38c-33 0 -52 -21 -52 -52c0 -23 10 -35 10 -35zM349 573v45c29 0 57 -1 74 -4c-21 9 -32 32 -32 52c0 43 33 89 118 89
c18 0 35 -2 49 -5l-8 -44c-10 1 -30 4 -46 4c-39 0 -58 -18 -58 -44s22 -48 80 -48h51v-45h-228zM234 -253c-78 0 -158 15 -158 15l6 66s87 -21 161 -21c111 0 199 42 199 165v28h-110c-191 0 -260 91 -260 234c0 131 81 247 247 247c107 0 198 -35 198 -35v-472
c0 -109 -71 -227 -283 -227zM442 61v334s-53 25 -132 25c-99 0 -161 -70 -161 -177c0 -123 57 -182 195 -182h98z" />
    <glyph glyph-name="uni0678.fina" unicode="&#x678;" horiz-adv-x="1030" 
d="M601 0h-178c-245 0 -343 97 -343 289c0 63 16 131 34 170l82 15c-24 -48 -40 -118 -40 -175c0 -157 60 -238 278 -238h92v401s85 19 175 19c163 0 220 -81 220 -218v-202h109v-61h-184v252c0 120 -46 168 -154 168c-45 0 -91 -10 -91 -10v-410zM571 569v48
c30 0 58 -2 76 -5c-22 9 -33 33 -33 52c0 45 34 93 122 93c20 0 38 -2 52 -5l-9 -47c-10 1 -30 4 -49 4c-39 0 -58 -17 -58 -44s21 -48 81 -48h54v-48h-236z" />
    <glyph glyph-name="uni067A" unicode="&#x67a;" horiz-adv-x="798" arabic-form="isolated" 
d="M693 0h-270c-245 0 -343 97 -343 289c0 63 16 131 34 170l82 15c-24 -48 -40 -118 -40 -175c0 -157 60 -238 278 -238h183v409h76v-470zM413 566c-26 0 -47 20 -47 47c0 26 21 47 47 47c27 0 47 -20 47 -47c0 -26 -20 -47 -47 -47zM413 703c-26 0 -47 20 -47 47
c0 26 21 47 47 47s47 -20 47 -47c0 -26 -21 -47 -47 -47z" />
    <glyph glyph-name="uniFB5F" unicode="&#x67a;" horiz-adv-x="833" arabic-form="final" 
d="M423 0c-245 0 -343 97 -343 289c0 63 16 131 34 170l82 15c-24 -48 -40 -118 -40 -175c0 -157 60 -238 278 -238h183v409h76v-409h140v-61h-410zM413 566c-26 0 -47 20 -47 47c0 26 21 47 47 47c27 0 47 -20 47 -47c0 -26 -20 -47 -47 -47zM413 703c-26 0 -47 20 -47 47
c0 26 21 47 47 47s47 -20 47 -47c0 -26 -21 -47 -47 -47z" />
    <glyph glyph-name="uniFB60" unicode="&#x67a;" arabic-form="initial" 
d="M216 0h-231c-20 0 -60 11 -60 31c0 19 40 30 60 30h155v409h76v-470zM178 566c-26 0 -47 20 -47 47c0 26 21 47 47 47c27 0 47 -20 47 -47c0 -26 -20 -47 -47 -47zM178 703c-26 0 -47 20 -47 47c0 26 21 47 47 47s47 -20 47 -47c0 -26 -21 -47 -47 -47z" />
    <glyph glyph-name="uniFB61" unicode="&#x67a;" horiz-adv-x="356" arabic-form="medial" 
d="M-15 0c-20 0 -60 11 -60 31c0 19 40 30 60 30h155v409h76v-409h140v-61h-371zM178 566c-26 0 -47 20 -47 47c0 26 21 47 47 47c27 0 47 -20 47 -47c0 -26 -20 -47 -47 -47zM178 703c-26 0 -47 20 -47 47c0 26 21 47 47 47s47 -20 47 -47c0 -26 -21 -47 -47 -47z" />
    <glyph glyph-name="uni067B" unicode="&#x67b;" horiz-adv-x="798" arabic-form="isolated" 
d="M693 0h-270c-245 0 -343 97 -343 289c0 63 16 131 34 170l82 15c-24 -48 -40 -118 -40 -175c0 -157 60 -238 278 -238h183v409h76v-470zM413 -263c-25 0 -45 19 -45 45s20 46 45 46c26 0 46 -19 46 -46c0 -25 -20 -45 -46 -45zM413 -138c-25 0 -45 20 -45 46
c0 25 20 46 45 46c26 0 46 -20 46 -46s-20 -46 -46 -46z" />
    <glyph glyph-name="uniFB53" unicode="&#x67b;" horiz-adv-x="833" arabic-form="final" 
d="M423 0c-245 0 -343 97 -343 289c0 63 16 131 34 170l82 15c-24 -48 -40 -118 -40 -175c0 -157 60 -238 278 -238h183v409h76v-409h140v-61h-410zM413 -138c-25 0 -45 20 -45 46c0 25 20 46 45 46c26 0 46 -20 46 -46s-20 -46 -46 -46zM413 -263c-25 0 -45 19 -45 45
s20 46 45 46c26 0 46 -19 46 -46c0 -25 -20 -45 -46 -45z" />
    <glyph glyph-name="uniFB54" unicode="&#x67b;" arabic-form="initial" 
d="M216 0h-231c-20 0 -60 11 -60 31c0 19 40 30 60 30h155v409h76v-470zM167 -263c-25 0 -45 19 -45 45s20 46 45 46c26 0 46 -19 46 -46c0 -25 -20 -45 -46 -45zM167 -138c-25 0 -45 20 -45 46c0 25 20 46 45 46c26 0 46 -20 46 -46s-20 -46 -46 -46z" />
    <glyph glyph-name="uniFB55" unicode="&#x67b;" horiz-adv-x="356" arabic-form="medial" 
d="M-15 0c-20 0 -60 11 -60 31c0 19 40 30 60 30h155v409h76v-409h140v-61h-371zM178 -138c-25 0 -45 20 -45 46c0 25 20 46 45 46c26 0 46 -20 46 -46s-20 -46 -46 -46zM178 -263c-25 0 -45 19 -45 45s20 46 45 46c26 0 46 -19 46 -46c0 -25 -20 -45 -46 -45z" />
    <glyph glyph-name="uni067C.init" unicode="&#x67c;" 
d="M172 -40c0 -50 -34 -90 -87 -90c-44 0 -81 24 -81 85c0 17 4 32 10 45h-29c-20 0 -60 11 -60 31c0 19 40 30 60 30h155v409h76v-470h-51c4 -11 7 -24 7 -40zM58 613c0 26 21 47 47 47s48 -20 48 -47c0 -26 -21 -47 -48 -47c-26 0 -47 20 -47 47zM197 613
c0 26 21 47 47 47s47 -20 47 -47c0 -26 -21 -47 -47 -47s-47 20 -47 47zM119 -43c0 29 -12 43 -31 43c-15 0 -31 -13 -31 -42c0 -28 12 -43 31 -43c16 0 31 15 31 42z" />
    <glyph glyph-name="uni067C.medi" unicode="&#x67c;" horiz-adv-x="356" 
d="M262 -40c0 -50 -34 -90 -87 -90c-44 0 -81 24 -81 85c0 17 4 32 10 45h-119c-20 0 -60 11 -60 31c0 19 40 30 60 30h155v409h76v-409h140v-61h-101c4 -11 7 -24 7 -40zM58 613c0 26 21 47 47 47s48 -20 48 -47c0 -26 -21 -47 -48 -47c-26 0 -47 20 -47 47zM197 613
c0 26 21 47 47 47s47 -20 47 -47c0 -26 -21 -47 -47 -47s-47 20 -47 47zM209 -43c0 27 -11 41 -27 43h-4c-15 0 -31 -13 -31 -42c0 -28 12 -43 31 -43c16 0 31 15 31 42z" />
    <glyph glyph-name="uni067C.fina" unicode="&#x67c;" horiz-adv-x="833" 
d="M574 -40c0 -50 -34 -90 -87 -90c-44 0 -81 24 -81 85c0 17 4 32 10 45c-240 1 -336 98 -336 289c0 63 16 131 34 170l82 15c-24 -48 -40 -118 -40 -175c0 -157 60 -238 278 -238h183v409h76v-409h140v-61h-266c4 -11 7 -24 7 -40zM297 613c0 26 21 47 47 47
s48 -20 48 -47c0 -26 -21 -47 -48 -47c-26 0 -47 20 -47 47zM436 613c0 26 21 47 47 47s47 -20 47 -47c0 -26 -21 -47 -47 -47s-47 20 -47 47zM521 -43c0 29 -12 43 -31 43c-15 0 -31 -13 -31 -42c0 -28 12 -43 31 -43c16 0 31 15 31 42z" />
    <glyph glyph-name="uni067D.init" unicode="&#x67d;" 
d="M216 0h-231c-20 0 -60 11 -60 31c0 19 40 30 60 30h155v409h76v-470zM175 658c26 0 47 -20 47 -47c0 -26 -21 -47 -47 -47s-47 20 -47 47c0 26 21 47 47 47zM105 764c26 0 47 -20 47 -47c0 -26 -21 -47 -47 -47s-47 21 -47 47s21 47 47 47zM245 764c26 0 47 -20 47 -47
c0 -26 -21 -47 -47 -47s-47 21 -47 47s21 47 47 47z" />
    <glyph glyph-name="uni067D.medi" unicode="&#x67d;" horiz-adv-x="356" 
d="M356 0h-371c-20 0 -60 11 -60 31c0 19 40 30 60 30h155v409h76v-409h140v-61zM175 658c26 0 47 -20 47 -47c0 -26 -21 -47 -47 -47s-47 20 -47 47c0 26 21 47 47 47zM245 764c26 0 47 -20 47 -47c0 -26 -21 -47 -47 -47s-47 21 -47 47s21 47 47 47zM105 764
c26 0 47 -20 47 -47c0 -26 -21 -47 -47 -47s-47 21 -47 47s21 47 47 47z" />
    <glyph glyph-name="uni067D.fina" unicode="&#x67d;" horiz-adv-x="833" 
d="M423 0c-245 0 -343 97 -343 289c0 63 16 131 34 170l82 15c-24 -48 -40 -118 -40 -175c0 -157 60 -238 278 -238h183v409h76v-409h140v-61h-410zM414 658c26 0 47 -20 47 -47c0 -26 -21 -47 -47 -47s-47 20 -47 47c0 26 21 47 47 47zM344 764c26 0 47 -20 47 -47
c0 -26 -21 -47 -47 -47s-47 21 -47 47s21 47 47 47zM484 764c26 0 47 -20 47 -47c0 -26 -21 -47 -47 -47s-47 21 -47 47s21 47 47 47z" />
    <glyph glyph-name="uni067F" unicode="&#x67f;" horiz-adv-x="798" arabic-form="isolated" 
d="M693 0h-270c-245 0 -343 97 -343 289c0 63 16 131 34 170l82 15c-24 -48 -40 -118 -40 -175c0 -157 60 -238 278 -238h183v409h76v-470zM482 566c-26 0 -47 20 -47 47c0 25 21 47 47 47c25 0 47 -21 47 -47s-22 -47 -47 -47zM344 566c-26 0 -47 20 -47 47
c0 25 21 47 47 47s47 -21 47 -47s-21 -47 -47 -47zM482 704c-26 0 -47 20 -47 47c0 25 21 46 47 46c25 0 47 -20 47 -46s-22 -47 -47 -47zM344 704c-26 0 -47 20 -47 47c0 25 21 46 47 46s47 -20 47 -46s-21 -47 -47 -47z" />
    <glyph glyph-name="uniFB63" unicode="&#x67f;" horiz-adv-x="833" arabic-form="final" 
d="M423 0c-245 0 -343 97 -343 289c0 63 16 131 34 170l82 15c-24 -48 -40 -118 -40 -175c0 -157 60 -238 278 -238h183v409h76v-409h140v-61h-410zM344 566c-26 0 -47 20 -47 47c0 25 21 47 47 47s47 -21 47 -47s-21 -47 -47 -47zM482 566c-26 0 -47 20 -47 47
c0 25 21 47 47 47c25 0 47 -21 47 -47s-22 -47 -47 -47zM344 704c-26 0 -47 20 -47 47c0 25 21 46 47 46s47 -20 47 -46s-21 -47 -47 -47zM482 704c-26 0 -47 20 -47 47c0 25 21 46 47 46c25 0 47 -20 47 -46s-22 -47 -47 -47z" />
    <glyph glyph-name="uniFB64" unicode="&#x67f;" arabic-form="initial" 
d="M216 0h-231c-20 0 -60 11 -60 31c0 19 40 30 60 30h155v409h76v-470zM246 566c-26 0 -47 20 -47 47c0 25 21 47 47 47c25 0 47 -21 47 -47s-22 -47 -47 -47zM108 566c-26 0 -47 20 -47 47c0 25 21 47 47 47s47 -21 47 -47s-21 -47 -47 -47zM246 704c-26 0 -47 20 -47 47
c0 25 21 46 47 46c25 0 47 -20 47 -46s-22 -47 -47 -47zM108 704c-26 0 -47 20 -47 47c0 25 21 46 47 46s47 -20 47 -46s-21 -47 -47 -47z" />
    <glyph glyph-name="uniFB65" unicode="&#x67f;" horiz-adv-x="356" arabic-form="medial" 
d="M-15 0c-20 0 -60 11 -60 31c0 19 40 30 60 30h155v409h76v-409h140v-61h-371zM108 566c-26 0 -47 20 -47 47c0 25 21 47 47 47s47 -21 47 -47s-21 -47 -47 -47zM246 566c-26 0 -47 20 -47 47c0 25 21 47 47 47c25 0 47 -21 47 -47s-22 -47 -47 -47zM108 704
c-26 0 -47 20 -47 47c0 25 21 46 47 46s47 -20 47 -46s-21 -47 -47 -47zM246 704c-26 0 -47 20 -47 47c0 25 21 46 47 46c25 0 47 -20 47 -46s-22 -47 -47 -47z" />
    <glyph glyph-name="uni0680" unicode="&#x680;" horiz-adv-x="798" arabic-form="isolated" 
d="M693 0h-270c-245 0 -343 97 -343 289c0 63 16 131 34 170l82 15c-24 -48 -40 -118 -40 -175c0 -157 60 -238 278 -238h183v409h76v-470zM358 -263c-25 0 -45 19 -45 45c0 25 20 45 45 45s46 -19 46 -45c0 -25 -21 -45 -46 -45zM358 -138c-25 0 -45 20 -45 46
c0 25 20 45 45 45s46 -19 46 -45s-21 -46 -46 -46zM484 -263c-25 0 -46 19 -46 45c0 25 21 45 46 45s45 -19 45 -45c0 -25 -20 -45 -45 -45zM484 -138c-25 0 -46 20 -46 46c0 25 21 45 46 45s45 -19 45 -45s-20 -46 -45 -46z" />
    <glyph glyph-name="uniFB5B" unicode="&#x680;" horiz-adv-x="833" arabic-form="final" 
d="M423 0c-245 0 -343 97 -343 289c0 63 16 131 34 170l82 15c-24 -48 -40 -118 -40 -175c0 -157 60 -238 278 -238h183v409h76v-409h140v-61h-410zM484 -138c-25 0 -46 20 -46 46c0 25 21 45 46 45s45 -19 45 -45s-20 -46 -45 -46zM358 -138c-25 0 -45 20 -45 46
c0 25 20 45 45 45s46 -19 46 -45s-21 -46 -46 -46zM484 -263c-25 0 -46 19 -46 45c0 25 21 45 46 45s45 -19 45 -45c0 -25 -20 -45 -45 -45zM358 -263c-25 0 -45 19 -45 45c0 25 20 45 45 45s46 -19 46 -45c0 -25 -21 -45 -46 -45z" />
    <glyph glyph-name="uniFB5C" unicode="&#x680;" arabic-form="initial" 
d="M216 0h-231c-20 0 -60 11 -60 31c0 19 40 30 60 30h155v409h76v-470zM114 -263c-25 0 -45 19 -45 45c0 25 20 45 45 45s46 -19 46 -45c0 -25 -21 -45 -46 -45zM114 -138c-25 0 -45 20 -45 46c0 25 20 45 45 45s46 -19 46 -45s-21 -46 -46 -46zM240 -263
c-25 0 -46 19 -46 45c0 25 21 45 46 45s45 -19 45 -45c0 -25 -20 -45 -45 -45zM240 -138c-25 0 -46 20 -46 46c0 25 21 45 46 45s45 -19 45 -45s-20 -46 -45 -46z" />
    <glyph glyph-name="uniFB5D" unicode="&#x680;" horiz-adv-x="356" arabic-form="medial" 
d="M-15 0c-20 0 -60 11 -60 31c0 19 40 30 60 30h155v409h76v-409h140v-61h-371zM240 -138c-25 0 -46 20 -46 46c0 25 21 45 46 45s45 -19 45 -45s-20 -46 -45 -46zM114 -138c-25 0 -45 20 -45 46c0 25 20 45 45 45s46 -19 46 -45s-21 -46 -46 -46zM240 -263
c-25 0 -46 19 -46 45c0 25 21 45 46 45s45 -19 45 -45c0 -25 -20 -45 -45 -45zM114 -263c-25 0 -45 19 -45 45c0 25 20 45 45 45s46 -19 46 -45c0 -25 -21 -45 -46 -45z" />
    <glyph glyph-name="uni0681.init" unicode="&#x681;" horiz-adv-x="532" 
d="M435 0h-450c-20 0 -60 11 -60 31c0 19 40 30 60 30h383c5 39 8 77 8 113c0 161 -56 239 -228 239c-39 0 -86 -4 -123 -10v60c31 5 85 11 129 11c219 0 298 -102 298 -293c0 -47 -5 -109 -17 -181zM63 570v48c30 0 58 -2 76 -5c-22 9 -33 33 -33 52c0 45 34 93 122 93
c20 0 38 -2 52 -5l-9 -47c-10 1 -30 4 -49 4c-39 0 -58 -17 -58 -44s21 -48 81 -48h54v-48h-236z" />
    <glyph glyph-name="uni0681.medi" unicode="&#x681;" horiz-adv-x="528" 
d="M-15 0c-20 0 -60 11 -60 31c0 19 40 30 60 30h383c5 39 8 77 8 113c0 161 -56 239 -228 239c-39 0 -86 -4 -123 -10v60c31 5 85 11 129 11c219 0 298 -102 298 -293c0 -33 -3 -74 -8 -120h84v-61h-543zM63 570v48c30 0 58 -2 76 -5c-22 9 -33 33 -33 52
c0 45 34 93 122 93c20 0 38 -2 52 -5l-9 -47c-10 1 -30 4 -49 4c-39 0 -58 -17 -58 -44s21 -48 81 -48h54v-48h-236z" />
    <glyph glyph-name="uni0681.fina" unicode="&#x681;" horiz-adv-x="604" 
d="M308 -320c-179 0 -268 78 -268 182c0 113 78 199 304 199h107c5 39 8 77 8 113c0 161 -57 239 -229 239c-39 0 -72 -2 -109 -7v60c31 4 72 8 116 8c218 0 297 -102 297 -293c0 -33 -2 -74 -7 -120h77v-61h-265c-179 0 -223 -57 -223 -130s65 -129 198 -129
c55 0 117 7 183 21l7 -59c-68 -16 -133 -23 -196 -23zM129 570v48c30 0 58 -2 76 -5c-22 9 -33 33 -33 52c0 45 34 93 122 93c20 0 38 -2 52 -5l-9 -47c-10 1 -30 4 -49 4c-39 0 -58 -17 -58 -44s21 -48 81 -48h54v-48h-236z" />
    <glyph glyph-name="uni0682.init" unicode="&#x682;" horiz-adv-x="532" 
d="M435 0h-450c-20 0 -60 11 -60 31c0 19 40 30 60 30h383c5 39 8 77 8 113c0 161 -56 239 -228 239c-39 0 -86 -4 -123 -10v60c31 5 85 11 129 11c219 0 298 -102 298 -293c0 -47 -5 -109 -17 -181zM178 566c-26 0 -47 20 -47 47c0 26 21 47 47 47c27 0 47 -20 47 -47
c0 -26 -20 -47 -47 -47zM178 703c-26 0 -47 20 -47 47c0 26 21 47 47 47s47 -20 47 -47c0 -26 -21 -47 -47 -47z" />
    <glyph glyph-name="uni0682.medi" unicode="&#x682;" horiz-adv-x="528" 
d="M-15 0c-20 0 -60 11 -60 31c0 19 40 30 60 30h383c5 39 8 77 8 113c0 161 -56 239 -228 239c-39 0 -86 -4 -123 -10v60c31 5 85 11 129 11c219 0 298 -102 298 -293c0 -33 -3 -74 -8 -120h84v-61h-543zM178 566c-26 0 -47 20 -47 47c0 26 21 47 47 47c27 0 47 -20 47 -47
c0 -26 -20 -47 -47 -47zM178 703c-26 0 -47 20 -47 47c0 26 21 47 47 47s47 -20 47 -47c0 -26 -21 -47 -47 -47z" />
    <glyph glyph-name="uni0682.fina" unicode="&#x682;" horiz-adv-x="604" 
d="M308 -320c-179 0 -268 78 -268 182c0 113 78 199 304 199h107c5 39 8 77 8 113c0 161 -57 239 -229 239c-39 0 -72 -2 -109 -7v60c31 4 72 8 116 8c218 0 297 -102 297 -293c0 -33 -2 -74 -7 -120h77v-61h-265c-179 0 -223 -57 -223 -130s65 -129 198 -129
c55 0 117 7 183 21l7 -59c-68 -16 -133 -23 -196 -23zM274 566c-26 0 -47 20 -47 47c0 26 21 47 47 47c27 0 47 -20 47 -47c0 -26 -20 -47 -47 -47zM274 703c-26 0 -47 20 -47 47c0 26 21 47 47 47s47 -20 47 -47c0 -26 -21 -47 -47 -47z" />
    <glyph glyph-name="uni0683" unicode="&#x683;" horiz-adv-x="624" arabic-form="isolated" 
d="M527 0h-188c-179 0 -223 -57 -223 -131c0 -64 48 -110 137 -123l-16 -63c-121 18 -197 83 -197 179c0 113 78 199 304 199h115c5 39 8 77 8 113c0 161 -56 239 -228 239c-39 0 -72 -2 -110 -7v60c31 4 72 8 116 8c219 0 298 -102 298 -293c0 -47 -4 -109 -16 -181z
M250 -146c0 26 21 48 47 48s48 -21 48 -48c0 -26 -22 -47 -48 -47s-47 21 -47 47zM389 -146c0 26 21 48 47 48s47 -21 47 -48c0 -26 -21 -47 -47 -47s-47 21 -47 47z" />
    <glyph glyph-name="uniFB77" unicode="&#x683;" horiz-adv-x="619" arabic-form="final" 
d="M339 0c-179 0 -223 -57 -223 -131c0 -64 48 -110 137 -123l-16 -63c-121 18 -197 83 -197 179c0 113 78 199 304 199h115c5 39 8 77 8 113c0 161 -56 239 -228 239c-39 0 -72 -2 -110 -7v60c31 4 72 8 116 8c219 0 298 -102 298 -293c0 -33 -2 -74 -7 -120h83v-61h-280z
M246 -146c0 26 21 48 47 48s48 -21 48 -48c0 -26 -22 -47 -48 -47s-47 21 -47 47zM385 -146c0 26 21 48 47 48s47 -21 47 -48c0 -26 -21 -47 -47 -47s-47 21 -47 47z" />
    <glyph glyph-name="uniFB78" unicode="&#x683;" horiz-adv-x="532" arabic-form="initial" 
d="M435 0h-450c-20 0 -60 11 -60 31c0 19 40 30 60 30h383c5 39 8 77 8 113c0 161 -56 239 -228 239c-39 0 -86 -4 -123 -10v60c31 5 85 11 129 11c219 0 298 -102 298 -293c0 -47 -5 -109 -17 -181zM101 -146c0 26 21 48 47 48s48 -21 48 -48c0 -26 -22 -47 -48 -47
s-47 21 -47 47zM240 -146c0 26 21 48 47 48s47 -21 47 -48c0 -26 -21 -47 -47 -47s-47 21 -47 47z" />
    <glyph glyph-name="uniFB79" unicode="&#x683;" horiz-adv-x="528" arabic-form="medial" 
d="M-15 0c-20 0 -60 11 -60 31c0 19 40 30 60 30h383c5 39 8 77 8 113c0 161 -56 239 -228 239c-39 0 -86 -4 -123 -10v60c31 5 85 11 129 11c219 0 298 -102 298 -293c0 -33 -3 -74 -8 -120h84v-61h-543zM101 -146c0 26 21 48 47 48s48 -21 48 -48c0 -26 -22 -47 -48 -47
s-47 21 -47 47zM240 -146c0 26 21 48 47 48s47 -21 47 -48c0 -26 -21 -47 -47 -47s-47 21 -47 47z" />
    <glyph glyph-name="uni0684" unicode="&#x684;" horiz-adv-x="624" arabic-form="isolated" 
d="M527 0h-188c-179 0 -223 -57 -223 -131c0 -64 48 -110 137 -123l-16 -63c-121 18 -197 83 -197 179c0 113 78 199 304 199h115c5 39 8 77 8 113c0 161 -56 239 -228 239c-39 0 -72 -2 -110 -7v60c31 4 72 8 116 8c219 0 298 -102 298 -293c0 -47 -4 -109 -16 -181z
M359 -263c-25 0 -45 19 -45 45s20 46 45 46c26 0 46 -19 46 -46c0 -25 -20 -45 -46 -45zM359 -138c-25 0 -45 20 -45 46c0 25 20 46 45 46c26 0 46 -20 46 -46s-20 -46 -46 -46z" />
    <glyph glyph-name="uniFB73" unicode="&#x684;" horiz-adv-x="619" arabic-form="final" 
d="M619 0h-280c-179 0 -223 -57 -223 -131c0 -64 48 -110 137 -123l-16 -63c-121 18 -197 83 -197 179c0 113 78 199 304 199h115c5 39 8 77 8 113c0 161 -56 239 -228 239c-39 0 -72 -2 -110 -7v60c31 4 72 8 116 8c219 0 298 -102 298 -293c0 -33 -2 -74 -7 -120h83v-61z
M359 -138c-25 0 -45 20 -45 46c0 25 20 46 45 46c26 0 46 -20 46 -46s-20 -46 -46 -46zM359 -263c-25 0 -45 19 -45 45s20 46 45 46c26 0 46 -19 46 -46c0 -25 -20 -45 -46 -45z" />
    <glyph glyph-name="uniFB74" unicode="&#x684;" horiz-adv-x="532" arabic-form="initial" 
d="M435 0h-450c-20 0 -60 11 -60 31c0 19 40 30 60 30h383c5 39 8 77 8 113c0 161 -56 239 -228 239c-39 0 -86 -4 -123 -10v60c31 5 85 11 129 11c219 0 298 -102 298 -293c0 -47 -5 -109 -17 -181zM184 -263c-25 0 -45 19 -45 45s20 46 45 46c26 0 46 -19 46 -46
c0 -25 -20 -45 -46 -45zM184 -138c-25 0 -45 20 -45 46c0 25 20 46 45 46c26 0 46 -20 46 -46s-20 -46 -46 -46z" />
    <glyph glyph-name="uniFB75" unicode="&#x684;" horiz-adv-x="528" arabic-form="medial" 
d="M-15 0c-20 0 -60 11 -60 31c0 19 40 30 60 30h383c5 39 8 77 8 113c0 161 -56 239 -228 239c-39 0 -86 -4 -123 -10v60c31 5 85 11 129 11c219 0 298 -102 298 -293c0 -33 -3 -74 -8 -120h84v-61h-543zM184 -138c-25 0 -45 20 -45 46c0 25 20 46 45 46
c26 0 46 -20 46 -46s-20 -46 -46 -46zM184 -263c-25 0 -45 19 -45 45s20 46 45 46c26 0 46 -19 46 -46c0 -25 -20 -45 -46 -45z" />
    <glyph glyph-name="uni0685.init" unicode="&#x685;" horiz-adv-x="532" 
d="M435 0h-450c-20 0 -60 11 -60 31c0 19 40 30 60 30h383c5 39 8 77 8 113c0 161 -56 239 -228 239c-39 0 -86 -4 -123 -10v60c31 5 85 11 129 11c219 0 298 -102 298 -293c0 -47 -5 -109 -17 -181zM62 611c0 26 21 48 47 48s47 -21 47 -48c0 -25 -21 -47 -47 -47
s-47 21 -47 47zM202 611c0 26 21 48 47 48s47 -21 47 -48c0 -25 -21 -47 -47 -47s-47 21 -47 47zM132 718c0 26 21 48 47 48s47 -21 47 -48c0 -25 -21 -47 -47 -47s-47 21 -47 47z" />
    <glyph glyph-name="uni0685.medi" unicode="&#x685;" horiz-adv-x="528" 
d="M-15 0c-20 0 -60 11 -60 31c0 19 40 30 60 30h383c5 39 8 77 8 113c0 161 -56 239 -228 239c-39 0 -86 -4 -123 -10v60c31 5 85 11 129 11c219 0 298 -102 298 -293c0 -33 -3 -74 -8 -120h84v-61h-543zM132 718c0 26 21 48 47 48s47 -21 47 -48c0 -25 -21 -47 -47 -47
s-47 21 -47 47zM202 611c0 26 21 48 47 48s47 -21 47 -48c0 -25 -21 -47 -47 -47s-47 21 -47 47zM62 611c0 26 21 48 47 48s47 -21 47 -48c0 -25 -21 -47 -47 -47s-47 21 -47 47z" />
    <glyph glyph-name="uni0685.fina" unicode="&#x685;" horiz-adv-x="604" 
d="M308 -320c-179 0 -268 78 -268 182c0 113 78 199 304 199h107c5 39 8 77 8 113c0 161 -57 239 -229 239c-39 0 -72 -2 -109 -7v60c31 4 72 8 116 8c218 0 297 -102 297 -293c0 -33 -2 -74 -7 -120h77v-61h-265c-179 0 -223 -57 -223 -130s65 -129 198 -129
c55 0 117 7 183 21l7 -59c-68 -16 -133 -23 -196 -23zM228 718c0 26 21 48 47 48s47 -21 47 -48c0 -25 -21 -47 -47 -47s-47 21 -47 47zM298 611c0 26 21 48 47 48s47 -21 47 -48c0 -25 -21 -47 -47 -47s-47 21 -47 47zM158 611c0 26 21 48 47 48s47 -21 47 -48
c0 -25 -21 -47 -47 -47s-47 21 -47 47z" />
    <glyph glyph-name="uni0687" unicode="&#x687;" horiz-adv-x="624" arabic-form="isolated" 
d="M527 0h-188c-179 0 -223 -57 -223 -131c0 -64 48 -110 137 -123l-16 -63c-121 18 -197 83 -197 179c0 113 78 199 304 199h115c5 39 8 77 8 113c0 161 -56 239 -228 239c-39 0 -72 -2 -110 -7v60c31 4 72 8 116 8c219 0 298 -102 298 -293c0 -47 -4 -109 -16 -181z
M324 -263c-25 0 -45 19 -45 45c0 25 20 45 45 45s46 -19 46 -45c0 -25 -21 -45 -46 -45zM324 -138c-25 0 -45 20 -45 46c0 25 20 45 45 45s46 -19 46 -45s-21 -46 -46 -46zM450 -263c-25 0 -46 19 -46 45c0 25 21 45 46 45s45 -19 45 -45c0 -25 -20 -45 -45 -45zM450 -138
c-25 0 -46 20 -46 46c0 25 21 45 46 45s45 -19 45 -45s-20 -46 -45 -46z" />
    <glyph glyph-name="uniFB7F" unicode="&#x687;" horiz-adv-x="619" arabic-form="final" 
d="M339 0c-179 0 -223 -57 -223 -131c0 -64 48 -110 137 -123l-16 -63c-121 18 -197 83 -197 179c0 113 78 199 304 199h115c5 39 8 77 8 113c0 161 -56 239 -228 239c-39 0 -72 -2 -110 -7v60c31 4 72 8 116 8c219 0 298 -102 298 -293c0 -33 -2 -74 -7 -120h83v-61h-280z
M450 -138c-25 0 -46 20 -46 46c0 25 21 45 46 45s45 -19 45 -45s-20 -46 -45 -46zM324 -138c-25 0 -45 20 -45 46c0 25 20 45 45 45s46 -19 46 -45s-21 -46 -46 -46zM450 -263c-25 0 -46 19 -46 45c0 25 21 45 46 45s45 -19 45 -45c0 -25 -20 -45 -45 -45zM324 -263
c-25 0 -45 19 -45 45c0 25 20 45 45 45s46 -19 46 -45c0 -25 -21 -45 -46 -45z" />
    <glyph glyph-name="uniFB80" unicode="&#x687;" horiz-adv-x="532" arabic-form="initial" 
d="M435 0h-450c-20 0 -60 11 -60 31c0 19 40 30 60 30h383c5 39 8 77 8 113c0 161 -56 239 -228 239c-39 0 -86 -4 -123 -10v60c31 5 85 11 129 11c219 0 298 -102 298 -293c0 -47 -5 -109 -17 -181zM158 -263c-25 0 -45 19 -45 45c0 25 20 45 45 45s46 -19 46 -45
c0 -25 -21 -45 -46 -45zM158 -138c-25 0 -45 20 -45 46c0 25 20 45 45 45s46 -19 46 -45s-21 -46 -46 -46zM284 -263c-25 0 -46 19 -46 45c0 25 21 45 46 45s45 -19 45 -45c0 -25 -20 -45 -45 -45zM284 -138c-25 0 -46 20 -46 46c0 25 21 45 46 45s45 -19 45 -45
s-20 -46 -45 -46z" />
    <glyph glyph-name="uniFB81" unicode="&#x687;" horiz-adv-x="528" arabic-form="medial" 
d="M-15 0c-20 0 -60 11 -60 31c0 19 40 30 60 30h383c5 39 8 77 8 113c0 161 -56 239 -228 239c-39 0 -86 -4 -123 -10v60c31 5 85 11 129 11c219 0 298 -102 298 -293c0 -33 -3 -74 -8 -120h84v-61h-543zM284 -138c-25 0 -46 20 -46 46c0 25 21 45 46 45s45 -19 45 -45
s-20 -46 -45 -46zM158 -138c-25 0 -45 20 -45 46c0 25 20 45 45 45s46 -19 46 -45s-21 -46 -46 -46zM284 -263c-25 0 -46 19 -46 45c0 25 21 45 46 45s45 -19 45 -45c0 -25 -20 -45 -45 -45zM158 -263c-25 0 -45 19 -45 45c0 25 20 45 45 45s46 -19 46 -45
c0 -25 -21 -45 -46 -45z" />
    <glyph glyph-name="uni0689.fina" unicode="&#x689;" horiz-adv-x="540" 
d="M61 0v61h330c-1 197 -73 303 -258 362l20 65c211 -69 309 -187 314 -427h73v-61h-172c4 -11 7 -24 7 -40c0 -50 -34 -90 -87 -90c-44 0 -81 24 -81 85c0 17 4 32 10 45h-156zM322 -43c0 29 -12 43 -31 43h-4c-14 -2 -27 -15 -27 -42c0 -28 12 -43 31 -43
c16 0 31 15 31 42z" />
    <glyph glyph-name="uni068A.fina" unicode="&#x68a;" horiz-adv-x="540" 
d="M61 0v61h330c-1 197 -73 303 -258 362l20 65c211 -69 309 -187 314 -427h73v-61h-479zM207 -145c0 27 21 48 48 48s48 -20 48 -48c0 -27 -21 -48 -48 -48s-48 21 -48 48z" />
    <glyph glyph-name="uni068B.fina" unicode="&#x68b;" horiz-adv-x="540" 
d="M61 0v61h330c-1 197 -73 303 -258 362l20 65c211 -69 309 -187 314 -427h73v-61h-479zM176 865v-85c0 -20 -2 -44 -6 -64h1c25 46 74 80 124 80c59 0 92 -35 92 -92c0 -73 -47 -119 -146 -119h-118v280h53zM332 697c0 31 -12 55 -44 55c-54 0 -108 -69 -112 -124h74
c58 0 82 27 82 69zM207 -145c0 27 21 48 48 48s48 -20 48 -48c0 -27 -21 -48 -48 -48s-48 21 -48 48z" />
    <glyph glyph-name="uni068C" unicode="&#x68c;" horiz-adv-x="548" arabic-form="isolated" 
d="M61 0v61h330c-1 197 -73 303 -258 362l20 65c217 -70 314 -192 314 -445v-43h-406zM48 613c0 26 21 47 47 47s48 -20 48 -47c0 -26 -21 -47 -48 -47c-26 0 -47 20 -47 47zM187 613c0 26 21 47 47 47s47 -20 47 -47c0 -26 -21 -47 -47 -47s-47 20 -47 47z" />
    <glyph glyph-name="uniFB85" unicode="&#x68c;" horiz-adv-x="540" arabic-form="final" 
d="M61 0v61h330c-1 197 -73 303 -258 362l20 65c211 -69 309 -187 314 -427h73v-61h-479zM48 613c0 26 21 47 47 47s48 -20 48 -47c0 -26 -21 -47 -48 -47c-26 0 -47 20 -47 47zM187 613c0 26 21 47 47 47s47 -20 47 -47c0 -26 -21 -47 -47 -47s-47 20 -47 47z" />
    <glyph glyph-name="uni068D" unicode="&#x68d;" horiz-adv-x="548" arabic-form="isolated" 
d="M61 0v61h330c-1 197 -73 303 -258 362l20 65c217 -70 314 -192 314 -445v-43h-406zM141 -146c0 26 21 48 47 48s48 -21 48 -48c0 -26 -22 -47 -48 -47s-47 21 -47 47zM280 -146c0 26 21 48 47 48s47 -21 47 -48c0 -26 -21 -47 -47 -47s-47 21 -47 47z" />
    <glyph glyph-name="uniFB83" unicode="&#x68d;" horiz-adv-x="540" arabic-form="final" 
d="M61 0v61h330c-1 197 -73 303 -258 362l20 65c211 -69 309 -187 314 -427h73v-61h-479zM141 -146c0 26 21 48 47 48s48 -21 48 -48c0 -26 -22 -47 -48 -47s-47 21 -47 47zM280 -146c0 26 21 48 47 48s47 -21 47 -48c0 -26 -21 -47 -47 -47s-47 21 -47 47z" />
    <glyph glyph-name="uni068E" unicode="&#x68e;" horiz-adv-x="548" arabic-form="isolated" 
d="M61 0v61h330c-1 197 -73 303 -258 362l20 65c217 -70 314 -192 314 -445v-43h-406zM86 611c0 26 21 48 47 48s47 -21 47 -48c0 -25 -21 -47 -47 -47s-47 21 -47 47zM226 611c0 26 21 48 47 48s47 -21 47 -48c0 -25 -21 -47 -47 -47s-47 21 -47 47zM156 718
c0 26 21 48 47 48s47 -21 47 -48c0 -25 -21 -47 -47 -47s-47 21 -47 47z" />
    <glyph glyph-name="uniFB87" unicode="&#x68e;" horiz-adv-x="540" arabic-form="final" 
d="M61 0v61h330c-1 197 -73 303 -258 362l20 65c211 -69 309 -187 314 -427h73v-61h-479zM156 718c0 26 21 48 47 48s47 -21 47 -48c0 -25 -21 -47 -47 -47s-47 21 -47 47zM226 611c0 26 21 48 47 48s47 -21 47 -48c0 -25 -21 -47 -47 -47s-47 21 -47 47zM86 611
c0 26 21 48 47 48s47 -21 47 -48c0 -25 -21 -47 -47 -47s-47 21 -47 47z" />
    <glyph glyph-name="uni068F.fina" unicode="&#x68f;" horiz-adv-x="540" 
d="M61 0v61h330c-1 197 -73 303 -258 362l20 65c211 -69 309 -187 314 -427h73v-61h-479zM203 658c26 0 47 -20 47 -47c0 -26 -21 -47 -47 -47s-47 20 -47 47c0 26 21 47 47 47zM133 764c26 0 47 -20 47 -47c0 -26 -21 -47 -47 -47s-47 21 -47 47s21 47 47 47zM273 764
c26 0 47 -20 47 -47c0 -26 -21 -47 -47 -47s-47 21 -47 47s21 47 47 47z" />
    <glyph glyph-name="uni0690.fina" unicode="&#x690;" horiz-adv-x="540" 
d="M61 0v61h330c-1 197 -73 303 -258 362l20 65c211 -69 309 -187 314 -427h73v-61h-479zM133 566c-26 0 -47 20 -47 47c0 25 21 47 47 47s47 -21 47 -47s-21 -47 -47 -47zM271 566c-26 0 -47 20 -47 47c0 25 21 47 47 47c25 0 47 -21 47 -47s-22 -47 -47 -47zM133 704
c-26 0 -47 20 -47 47c0 25 21 46 47 46s47 -20 47 -46s-21 -47 -47 -47zM271 704c-26 0 -47 20 -47 47c0 25 21 46 47 46c25 0 47 -20 47 -46s-22 -47 -47 -47z" />
    <glyph glyph-name="uni0692.fina" unicode="&#x692;" horiz-adv-x="461" 
d="M96 -258c-40 0 -81 7 -112 16l10 64c33 -12 70 -20 108 -20c89 0 143 44 143 185v483h77v-409h139v-61h-139v-5c0 -148 -56 -253 -226 -253zM417 641l-134 -129l-132 127l35 38l99 -86l98 86z" />
    <glyph glyph-name="uni0693.fina" unicode="&#x693;" horiz-adv-x="461" 
d="M362 -216c0 -51 -34 -91 -87 -91c-39 0 -72 19 -80 64c-27 -10 -60 -15 -99 -15c-40 0 -81 7 -112 16l10 64c33 -12 70 -20 108 -20c89 0 143 44 143 185v483h77v-409h139v-61h-139v-5c0 -48 -6 -91 -20 -128c35 -7 60 -33 60 -83zM309 -219c0 28 -12 43 -31 43
c-15 0 -31 -14 -31 -43c0 -28 12 -43 31 -43c16 0 31 15 31 43z" />
    <glyph glyph-name="uni0694.fina" unicode="&#x694;" horiz-adv-x="461" 
d="M96 -258c-40 0 -81 7 -112 16l10 64c33 -12 70 -20 108 -20c89 0 143 44 143 185v483h77v-409h139v-61h-139v-5c0 -148 -56 -253 -226 -253zM280 -273c0 27 21 48 47 48c27 0 47 -20 47 -48c0 -26 -20 -47 -47 -47c-26 0 -47 21 -47 47z" />
    <glyph glyph-name="uni0695.fina" unicode="&#x695;" horiz-adv-x="461" 
d="M96 -182c-40 0 -81 7 -112 17l10 64c33 -12 70 -20 108 -20c89 0 143 43 143 184v407h77v-399v-10h139v-61h-144c-17 -109 -80 -182 -221 -182zM377 -184l-111 -136l-175 29l9 50l147 -18l95 108z" />
    <glyph glyph-name="uni0696.fina" unicode="&#x696;" horiz-adv-x="477" 
d="M112 -258c-40 0 -81 7 -112 16l10 64c33 -12 70 -20 108 -20c89 0 143 44 143 185v483h77v-409h139v-61h-139v-5c0 -148 -56 -253 -226 -253zM96 -78c0 27 21 48 47 48c27 0 47 -20 47 -48c0 -26 -20 -47 -47 -47c-26 0 -47 21 -47 47zM298 -273c0 27 21 48 47 48
c27 0 47 -20 47 -48c0 -26 -20 -47 -47 -47c-26 0 -47 21 -47 47z" />
    <glyph glyph-name="uni0697.fina" unicode="&#x697;" horiz-adv-x="461" 
d="M96 -258c-40 0 -81 7 -112 16l10 64c33 -12 70 -20 108 -20c89 0 143 44 143 185v483h77v-409h139v-61h-139v-5c0 -148 -56 -253 -226 -253zM164 613c0 26 21 47 47 47s48 -20 48 -47c0 -26 -21 -47 -48 -47c-26 0 -47 20 -47 47zM303 613c0 26 21 47 47 47
s47 -20 47 -47c0 -26 -21 -47 -47 -47s-47 20 -47 47z" />
    <glyph glyph-name="uni0699.fina" unicode="&#x699;" horiz-adv-x="461" 
d="M96 -258c-40 0 -81 7 -112 16l10 64c33 -12 70 -20 108 -20c89 0 143 44 143 185v483h77v-409h139v-61h-139v-5c0 -148 -56 -253 -226 -253zM211 566c-26 0 -47 20 -47 47c0 25 21 47 47 47s47 -21 47 -47s-21 -47 -47 -47zM349 566c-26 0 -47 20 -47 47
c0 25 21 47 47 47c25 0 47 -21 47 -47s-22 -47 -47 -47zM211 704c-26 0 -47 20 -47 47c0 25 21 46 47 46s47 -20 47 -46s-21 -47 -47 -47zM349 704c-26 0 -47 20 -47 47c0 25 21 46 47 46c25 0 47 -20 47 -46s-22 -47 -47 -47z" />
    <glyph glyph-name="uni069A.init" unicode="&#x69a;" horiz-adv-x="865" 
d="M32 0h-47c-20 0 -60 11 -60 31c0 19 40 30 60 30h47c75 0 109 34 109 142v207h76v-181c0 -108 1 -175 89 -175c65 0 114 34 114 174v222h75v-258c0 -116 44 -131 159 -131h35c5 44 8 107 8 147c0 112 -14 207 -35 278l75 15c20 -73 37 -173 37 -286
c0 -66 -7 -150 -17 -215h-93c-134 0 -189 18 -217 85c-14 -43 -59 -92 -153 -92c-68 0 -114 37 -127 89c-18 -50 -58 -82 -135 -82zM404 -145c0 27 21 48 48 48s48 -20 48 -48c0 -27 -21 -48 -48 -48s-48 21 -48 48zM404 612c0 26 22 49 48 49s49 -22 49 -49
s-23 -48 -49 -48c-27 0 -48 21 -48 48z" />
    <glyph glyph-name="uni069A.medi" unicode="&#x69a;" horiz-adv-x="894" 
d="M32 0h-47c-20 0 -60 11 -60 31c0 19 40 30 60 30h47c75 0 109 34 109 142v207h76v-181c0 -108 1 -175 89 -175c65 0 114 34 114 174v222h75v-258c0 -116 44 -131 159 -131h35c5 44 8 107 8 147c0 112 -14 207 -35 278l75 15c20 -73 37 -173 37 -286
c0 -47 -4 -103 -9 -154h129v-61h-230c-134 0 -189 18 -217 85c-14 -43 -59 -92 -153 -92c-68 0 -114 37 -127 89c-18 -50 -58 -82 -135 -82zM404 612c0 26 22 49 48 49s49 -22 49 -49s-23 -48 -49 -48c-27 0 -48 21 -48 48zM404 -145c0 27 21 48 48 48s48 -20 48 -48
c0 -27 -21 -48 -48 -48s-48 21 -48 48z" />
    <glyph glyph-name="uni069A.fina" unicode="&#x69a;" horiz-adv-x="1228" 
d="M312 -231c-128 0 -240 70 -240 277c0 68 8 134 24 194l79 15c-18 -67 -27 -135 -27 -202c0 -178 90 -223 173 -223s154 51 154 208v372h76v-181c0 -117 25 -175 98 -175c71 0 105 51 105 174v222h75v-258c0 -115 43 -131 159 -131h35c5 44 9 108 9 147
c0 112 -15 207 -36 278l75 15c21 -73 37 -173 37 -286c0 -47 -4 -103 -9 -154h129v-61h-230c-135 0 -191 20 -217 85c-20 -67 -83 -92 -130 -92c-54 0 -82 16 -103 50c3 -210 -109 -274 -236 -274zM739 612c0 26 22 49 48 49s49 -22 49 -49s-23 -48 -49 -48
c-27 0 -48 21 -48 48zM730 -145c0 27 21 48 48 48s48 -20 48 -48c0 -27 -21 -48 -48 -48s-48 21 -48 48z" />
    <glyph glyph-name="uni069B.init" unicode="&#x69b;" horiz-adv-x="865" 
d="M32 0h-47c-20 0 -60 11 -60 31c0 19 40 30 60 30h47c75 0 109 34 109 142v207h76v-181c0 -108 1 -175 89 -175c65 0 114 34 114 174v222h75v-258c0 -116 44 -131 159 -131h35c5 44 8 107 8 147c0 112 -14 207 -35 278l75 15c20 -73 37 -173 37 -286
c0 -66 -7 -150 -17 -215h-93c-134 0 -189 18 -217 85c-14 -43 -59 -92 -153 -92c-68 0 -114 37 -127 89c-18 -50 -58 -82 -135 -82zM406 -216c0 26 22 47 48 47s47 -20 47 -47c0 -26 -21 -47 -47 -47c-27 0 -48 20 -48 47zM476 -111c0 26 21 47 47 47c25 0 46 -20 46 -47
c0 -25 -20 -47 -46 -47s-47 21 -47 47zM338 -111c0 26 21 47 47 47s47 -20 47 -47c0 -25 -21 -47 -47 -47s-47 21 -47 47z" />
    <glyph glyph-name="uni069B.medi" unicode="&#x69b;" horiz-adv-x="894" 
d="M664 0c-134 0 -189 18 -217 85c-14 -43 -59 -92 -153 -92c-68 0 -114 37 -127 89c-18 -50 -58 -82 -135 -82h-47c-20 0 -60 11 -60 31c0 19 40 30 60 30h47c75 0 109 34 109 142v207h76v-181c0 -108 1 -175 89 -175c65 0 114 34 114 174v222h75v-258
c0 -116 44 -131 159 -131h35c5 44 8 107 8 147c0 112 -14 207 -35 278l75 15c20 -73 37 -173 37 -286c0 -47 -4 -103 -9 -154h129v-61h-230zM406 -216c0 26 22 47 48 47s47 -20 47 -47c0 -26 -21 -47 -47 -47c-27 0 -48 20 -48 47zM338 -111c0 26 21 47 47 47s47 -20 47 -47
c0 -25 -21 -47 -47 -47s-47 21 -47 47zM476 -111c0 26 21 47 47 47c25 0 46 -20 46 -47c0 -25 -20 -47 -46 -47s-47 21 -47 47z" />
    <glyph glyph-name="uni069B.fina" unicode="&#x69b;" horiz-adv-x="1228" 
d="M312 -231c-128 0 -240 70 -240 277c0 68 8 134 24 194l79 15c-18 -67 -27 -135 -27 -202c0 -178 90 -223 173 -223s154 51 154 208v372h76v-181c0 -117 25 -175 98 -175c71 0 105 51 105 174v222h75v-258c0 -115 43 -131 159 -131h35c5 44 9 108 9 147
c0 112 -15 207 -36 278l75 15c21 -73 37 -173 37 -286c0 -47 -4 -103 -9 -154h129v-61h-230c-135 0 -191 20 -217 85c-20 -67 -83 -92 -130 -92c-54 0 -82 16 -103 50c3 -210 -109 -274 -236 -274zM735 -216c0 26 22 47 48 47s47 -20 47 -47c0 -26 -21 -47 -47 -47
c-27 0 -48 20 -48 47zM667 -111c0 26 21 47 47 47s47 -20 47 -47c0 -25 -21 -47 -47 -47s-47 21 -47 47zM805 -111c0 26 21 47 47 47c25 0 46 -20 46 -47c0 -25 -20 -47 -46 -47s-47 21 -47 47z" />
    <glyph glyph-name="uni069C.init" unicode="&#x69c;" horiz-adv-x="865" 
d="M32 0h-47c-20 0 -60 11 -60 31c0 19 40 30 60 30h47c75 0 109 34 109 142v207h76v-181c0 -108 1 -175 89 -175c65 0 114 34 114 174v222h75v-258c0 -116 44 -131 159 -131h35c5 44 8 107 8 147c0 112 -14 207 -35 278l75 15c20 -73 37 -173 37 -286
c0 -66 -7 -150 -17 -215h-93c-134 0 -189 18 -217 85c-14 -43 -59 -92 -153 -92c-68 0 -114 37 -127 89c-18 -50 -58 -82 -135 -82zM406 -216c0 26 22 47 48 47s47 -20 47 -47c0 -26 -21 -47 -47 -47c-27 0 -48 20 -48 47zM476 -111c0 26 21 47 47 47c25 0 46 -20 46 -47
c0 -25 -20 -47 -46 -47s-47 21 -47 47zM338 -111c0 26 21 47 47 47s47 -20 47 -47c0 -25 -21 -47 -47 -47s-47 21 -47 47zM336 611c0 26 21 48 47 48s47 -21 47 -48c0 -25 -21 -47 -47 -47s-47 21 -47 47zM476 611c0 26 21 48 47 48s47 -21 47 -48c0 -25 -21 -47 -47 -47
s-47 21 -47 47zM406 718c0 26 21 48 47 48s47 -21 47 -48c0 -25 -21 -47 -47 -47s-47 21 -47 47z" />
    <glyph glyph-name="uni069C.medi" unicode="&#x69c;" horiz-adv-x="894" 
d="M32 0h-47c-20 0 -60 11 -60 31c0 19 40 30 60 30h47c75 0 109 34 109 142v207h76v-181c0 -108 1 -175 89 -175c65 0 114 34 114 174v222h75v-258c0 -116 44 -131 159 -131h35c5 44 8 107 8 147c0 112 -14 207 -35 278l75 15c20 -73 37 -173 37 -286
c0 -47 -4 -103 -9 -154h129v-61h-230c-134 0 -189 18 -217 85c-14 -43 -59 -92 -153 -92c-68 0 -114 37 -127 89c-18 -50 -58 -82 -135 -82zM406 -216c0 26 22 47 48 47s47 -20 47 -47c0 -26 -21 -47 -47 -47c-27 0 -48 20 -48 47zM476 611c0 26 21 48 47 48s47 -21 47 -48
c0 -25 -21 -47 -47 -47s-47 21 -47 47zM406 718c0 26 21 48 47 48s47 -21 47 -48c0 -25 -21 -47 -47 -47s-47 21 -47 47zM336 611c0 26 21 48 47 48s47 -21 47 -48c0 -25 -21 -47 -47 -47s-47 21 -47 47zM338 -111c0 26 21 47 47 47s47 -20 47 -47c0 -25 -21 -47 -47 -47
s-47 21 -47 47zM476 -111c0 26 21 47 47 47c25 0 46 -20 46 -47c0 -25 -20 -47 -46 -47s-47 21 -47 47z" />
    <glyph glyph-name="uni069C.fina" unicode="&#x69c;" horiz-adv-x="1228" 
d="M998 0c-135 0 -191 20 -217 85c-20 -67 -83 -92 -130 -92c-54 0 -82 16 -103 50c3 -210 -109 -274 -236 -274c-128 0 -240 70 -240 277c0 68 8 134 24 194l79 15c-18 -67 -27 -135 -27 -202c0 -178 90 -223 173 -223s154 51 154 208v372h76v-181c0 -117 25 -175 98 -175
c71 0 105 51 105 174v222h75v-258c0 -115 43 -131 159 -131h35c5 44 9 108 9 147c0 112 -15 207 -36 278l75 15c21 -73 37 -173 37 -286c0 -47 -4 -103 -9 -154h129v-61h-230zM735 -216c0 26 22 47 48 47s47 -20 47 -47c0 -26 -21 -47 -47 -47c-27 0 -48 20 -48 47zM811 611
c0 26 21 48 47 48s47 -21 47 -48c0 -25 -21 -47 -47 -47s-47 21 -47 47zM741 718c0 26 21 48 47 48s47 -21 47 -48c0 -25 -21 -47 -47 -47s-47 21 -47 47zM671 611c0 26 21 48 47 48s47 -21 47 -48c0 -25 -21 -47 -47 -47s-47 21 -47 47zM667 -111c0 26 21 47 47 47
s47 -20 47 -47c0 -25 -21 -47 -47 -47s-47 21 -47 47zM805 -111c0 26 21 47 47 47c25 0 46 -20 46 -47c0 -25 -20 -47 -46 -47s-47 21 -47 47z" />
    <glyph glyph-name="uni069D.init" unicode="&#x69d;" horiz-adv-x="748" 
d="M399 0h-414c-20 0 -60 11 -60 31c0 19 40 30 60 30h155v409h76v-45c0 -58 -3 -132 -11 -191h2c47 162 162 247 282 247c124 0 196 -83 196 -228c0 -136 -73 -253 -286 -253zM215 61h192c157 0 199 86 199 186c0 106 -41 173 -130 173c-149 0 -247 -190 -261 -359z
M228 -146c0 26 21 48 47 48s48 -21 48 -48c0 -26 -22 -47 -48 -47s-47 21 -47 47zM367 -146c0 26 21 48 47 48s47 -21 47 -48c0 -26 -21 -47 -47 -47s-47 21 -47 47z" />
    <glyph glyph-name="uni069D.medi" unicode="&#x69d;" horiz-adv-x="764" 
d="M-15 0c-20 0 -60 11 -60 31c0 19 40 30 60 30h155v409h76v-45c0 -58 -3 -132 -11 -191h2c47 162 162 247 282 247c124 0 196 -83 196 -228c0 -76 -23 -145 -79 -192h158v-61h-350h-15h-414zM215 61h203c148 4 188 88 188 186c0 106 -41 173 -130 173
c-149 0 -247 -190 -261 -359zM228 -146c0 26 21 48 47 48s48 -21 48 -48c0 -26 -22 -47 -48 -47s-47 21 -47 47zM367 -146c0 26 21 48 47 48s47 -21 47 -48c0 -26 -21 -47 -47 -47s-47 21 -47 47z" />
    <glyph glyph-name="uni069D.fina" unicode="&#x69d;" horiz-adv-x="1091" 
d="M312 -231c-128 0 -240 70 -240 277c0 68 8 134 24 194l79 15c-18 -67 -27 -135 -27 -202c0 -178 90 -223 173 -223s154 51 154 208v432h76v-45c0 -58 -3 -132 -11 -191h2c47 162 162 247 282 247c125 0 196 -83 196 -228c0 -76 -23 -145 -79 -192h150v-61h-342h-15h-185
c-12 -158 -111 -231 -237 -231zM550 61h203c148 4 188 88 188 186c0 106 -41 173 -130 173c-148 0 -247 -190 -261 -359zM606 -146c0 26 21 48 47 48s48 -21 48 -48c0 -26 -22 -47 -48 -47s-47 21 -47 47zM745 -146c0 26 21 48 47 48s47 -21 47 -48c0 -26 -21 -47 -47 -47
s-47 21 -47 47z" />
    <glyph glyph-name="uni069E.init" unicode="&#x69e;" horiz-adv-x="748" 
d="M399 0h-414c-20 0 -60 11 -60 31c0 19 40 30 60 30h155v409h76v-45c0 -58 -3 -132 -11 -191h2c47 162 162 247 282 247c124 0 196 -83 196 -228c0 -136 -73 -253 -286 -253zM215 61h192c157 0 199 86 199 186c0 106 -41 173 -130 173c-149 0 -247 -190 -261 -359z
M286 611c0 26 21 48 47 48s47 -21 47 -48c0 -25 -21 -47 -47 -47s-47 21 -47 47zM426 611c0 26 21 48 47 48s47 -21 47 -48c0 -25 -21 -47 -47 -47s-47 21 -47 47zM356 718c0 26 21 48 47 48s47 -21 47 -48c0 -25 -21 -47 -47 -47s-47 21 -47 47z" />
    <glyph glyph-name="uni069E.medi" unicode="&#x69e;" horiz-adv-x="764" 
d="M-15 0c-20 0 -60 11 -60 31c0 19 40 30 60 30h155v409h76v-45c0 -58 -3 -132 -11 -191h2c47 162 162 247 282 247c124 0 196 -83 196 -228c0 -76 -23 -145 -79 -192h158v-61h-350h-15h-414zM215 61h192c157 0 199 86 199 186c0 106 -41 173 -130 173
c-149 0 -247 -190 -261 -359zM286 611c0 26 21 48 47 48s47 -21 47 -48c0 -25 -21 -47 -47 -47s-47 21 -47 47zM356 718c0 26 21 48 47 48s47 -21 47 -48c0 -25 -21 -47 -47 -47s-47 21 -47 47zM426 611c0 26 21 48 47 48s47 -21 47 -48c0 -25 -21 -47 -47 -47
s-47 21 -47 47z" />
    <glyph glyph-name="uni069E.fina" unicode="&#x69e;" horiz-adv-x="1091" 
d="M312 -231c-128 0 -240 70 -240 277c0 68 8 134 24 194l79 15c-18 -67 -27 -135 -27 -202c0 -178 90 -223 173 -223s154 51 154 208v432h76v-45c0 -58 -3 -132 -11 -191h2c47 162 162 247 282 247c125 0 196 -83 196 -228c0 -76 -23 -145 -79 -192h150v-61h-342h-15h-185
c-12 -158 -111 -231 -237 -231zM550 61h203c148 4 188 88 188 186c0 106 -41 173 -130 173c-148 0 -247 -190 -261 -359zM615 611c0 26 21 48 47 48s47 -21 47 -48c0 -25 -21 -47 -47 -47s-47 21 -47 47zM685 718c0 26 21 48 47 48s47 -21 47 -48c0 -25 -21 -47 -47 -47
s-47 21 -47 47zM755 611c0 26 21 48 47 48s47 -21 47 -48c0 -25 -21 -47 -47 -47s-47 21 -47 47z" />
    <glyph glyph-name="uni069F.init" unicode="&#x69f;" horiz-adv-x="748" 
d="M399 0h-414c-20 0 -60 11 -60 31c0 19 40 30 60 30h155v644h76v-280c0 -58 -3 -132 -11 -191h2c47 162 162 247 282 247c124 0 196 -83 196 -228c0 -136 -73 -253 -286 -253zM215 61h192c157 0 199 86 199 186c0 106 -41 173 -130 173c-149 0 -247 -190 -261 -359z
M315 611c0 26 21 48 47 48s47 -21 47 -48c0 -25 -21 -47 -47 -47s-47 21 -47 47zM455 611c0 26 21 48 47 48s47 -21 47 -48c0 -25 -21 -47 -47 -47s-47 21 -47 47zM385 718c0 26 21 48 47 48s47 -21 47 -48c0 -25 -21 -47 -47 -47s-47 21 -47 47z" />
    <glyph glyph-name="uni069F.medi" unicode="&#x69f;" horiz-adv-x="764" 
d="M-15 0c-20 0 -60 11 -60 31c0 19 40 30 60 30h155v644h76v-280c0 -58 -3 -132 -11 -191h2c47 162 162 247 282 247c124 0 196 -83 196 -228c0 -76 -23 -145 -79 -192h158v-61h-779zM215 61h203c148 4 188 88 188 186c0 106 -41 173 -130 173c-149 0 -247 -190 -261 -359z
M315 611c0 26 21 48 47 48s47 -21 47 -48c0 -25 -21 -47 -47 -47s-47 21 -47 47zM385 718c0 26 21 48 47 48s47 -21 47 -48c0 -25 -21 -47 -47 -47s-47 21 -47 47zM455 611c0 26 21 48 47 48s47 -21 47 -48c0 -25 -21 -47 -47 -47s-47 21 -47 47z" />
    <glyph glyph-name="uni069F.fina" unicode="&#x69f;" horiz-adv-x="776" 
d="M8 0v61h144v644h76v-280c0 -58 -3 -132 -11 -191h1c48 162 163 247 283 247c124 0 196 -83 196 -228c0 -76 -23 -145 -80 -192h159v-61h-351h-15h-402zM227 61h192c157 0 199 86 199 186c0 106 -41 173 -130 173c-149 0 -247 -190 -261 -359zM327 611c0 26 21 48 47 48
s47 -21 47 -48c0 -25 -21 -47 -47 -47s-47 21 -47 47zM397 718c0 26 21 48 47 48s47 -21 47 -48c0 -25 -21 -47 -47 -47s-47 21 -47 47zM467 611c0 26 21 48 47 48s47 -21 47 -48c0 -25 -21 -47 -47 -47s-47 21 -47 47z" />
    <glyph glyph-name="uni06A0.init" unicode="&#x6a0;" horiz-adv-x="567" 
d="M523 0h-538c-20 0 -60 11 -60 31c0 19 40 30 60 30h216c-67 27 -119 97 -119 188c0 124 79 232 241 232c71 0 132 -24 132 -24l-14 -62s-58 26 -125 26c-93 0 -158 -62 -158 -167c0 -108 82 -193 281 -193h84v-61zM186 611c0 26 21 48 47 48s47 -21 47 -48
c0 -25 -21 -47 -47 -47s-47 21 -47 47zM326 611c0 26 21 48 47 48s47 -21 47 -48c0 -25 -21 -47 -47 -47s-47 21 -47 47zM256 718c0 26 21 48 47 48s47 -21 47 -48c0 -25 -21 -47 -47 -47s-47 21 -47 47z" />
    <glyph glyph-name="uni06A0.medi" unicode="&#x6a0;" horiz-adv-x="599" 
d="M3 0h-18c-20 0 -60 11 -60 31c0 19 40 30 60 30h20c116 0 214 24 288 62c-72 68 -142 147 -249 183l6 53c77 59 188 123 289 123c132 0 186 -73 186 -152c0 -71 -44 -149 -125 -212c45 -34 94 -57 155 -57h44v-61h-56c-84 0 -146 34 -202 80c-86 -48 -200 -80 -338 -80z
M122 336c94 -36 160 -114 230 -177c62 46 97 104 97 161s-35 104 -118 104c-74 0 -162 -54 -209 -88zM342 611c0 26 21 48 47 48s47 -21 47 -48c0 -25 -21 -47 -47 -47s-47 21 -47 47zM202 611c0 26 21 48 47 48s47 -21 47 -48c0 -25 -21 -47 -47 -47s-47 21 -47 47z
M272 718c0 26 21 48 47 48s47 -21 47 -48c0 -25 -21 -47 -47 -47s-47 21 -47 47z" />
    <glyph glyph-name="uni06A0.fina" unicode="&#x6a0;" horiz-adv-x="633" 
d="M319 -259c-191 0 -269 78 -269 171c0 119 135 174 255 232c-65 63 -132 129 -227 162l6 53c77 59 188 123 289 123c132 0 186 -73 186 -152c0 -91 -66 -149 -146 -195c51 -43 106 -74 176 -74h44v-61h-56c-96 0 -163 45 -226 101c-111 -55 -224 -100 -224 -183
c0 -66 57 -116 201 -116c76 0 159 14 159 14l6 -59s-90 -16 -174 -16zM156 336c85 -33 148 -100 211 -160c66 37 116 80 116 144c0 57 -35 104 -117 104c-75 0 -163 -54 -210 -88zM376 611c0 26 21 48 47 48s47 -21 47 -48c0 -25 -21 -47 -47 -47s-47 21 -47 47zM236 611
c0 26 21 48 47 48s47 -21 47 -48c0 -25 -21 -47 -47 -47s-47 21 -47 47zM306 718c0 26 21 48 47 48s47 -21 47 -48c0 -25 -21 -47 -47 -47s-47 21 -47 47z" />
    <glyph glyph-name="uni06A1.init" unicode="&#x6a1;" horiz-adv-x="622" 
d="M536 0h-551c-20 0 -60 11 -60 31c0 19 40 30 60 30h118c35 0 58 -4 58 -4c-53 32 -81 89 -81 179c0 130 84 245 246 245c139 0 210 -79 210 -222v-259zM461 61v182c0 128 -53 177 -143 177c-99 0 -160 -70 -160 -178c0 -123 57 -181 195 -181h108z" />
    <glyph glyph-name="uni06A1.medi" unicode="&#x6a1;" horiz-adv-x="608" 
d="M608 0h-623c-20 0 -60 11 -60 31c0 19 40 30 60 30h91c35 0 75 -3 75 -3c-47 32 -74 91 -74 180c0 133 87 243 237 243c121 0 220 -63 220 -233c0 -77 -30 -150 -86 -190c0 0 54 3 91 3h69v-61zM307 61c78 0 149 55 149 183c0 110 -51 176 -150 176
c-77 0 -151 -54 -151 -176c0 -118 54 -183 152 -183z" />
    <glyph glyph-name="uni06A1.fina" unicode="&#x6a1;" horiz-adv-x="950" 
d="M950 61v-61h-527c-245 0 -343 97 -343 289c0 63 16 131 34 170l82 15c-24 -48 -40 -118 -40 -175c0 -157 61 -238 271 -238h63c-46 31 -71 93 -71 177c0 133 87 243 237 243c121 0 219 -63 219 -233c0 -77 -30 -150 -85 -190c0 0 54 3 91 3h69zM797 244
c0 110 -50 176 -149 176c-77 0 -152 -54 -152 -177c0 -117 55 -182 152 -182c79 0 149 55 149 183z" />
    <glyph glyph-name="uni06A2.init" unicode="&#x6a2;" horiz-adv-x="622" 
d="M536 0h-551c-20 0 -60 11 -60 31c0 19 40 30 60 30h118c35 0 58 -4 58 -4c-53 32 -81 89 -81 179c0 130 84 245 246 245c139 0 210 -79 210 -222v-259zM461 61v182c0 128 -53 177 -143 177c-99 0 -160 -70 -160 -178c0 -123 57 -181 195 -181h108zM281 -145
c0 27 21 48 48 48s48 -20 48 -48c0 -27 -21 -48 -48 -48s-48 21 -48 48z" />
    <glyph glyph-name="uni06A2.medi" unicode="&#x6a2;" horiz-adv-x="608" 
d="M608 0h-623c-20 0 -60 11 -60 31c0 19 40 30 60 30h91c35 0 75 -3 75 -3c-47 32 -74 91 -74 180c0 133 87 243 237 243c121 0 220 -63 220 -233c0 -77 -30 -150 -86 -190c0 0 54 3 91 3h69v-61zM307 61c78 0 149 55 149 183c0 110 -51 176 -150 176
c-77 0 -151 -54 -151 -176c0 -118 54 -183 152 -183zM261 -145c0 27 21 48 48 48s48 -20 48 -48c0 -27 -21 -48 -48 -48s-48 21 -48 48z" />
    <glyph glyph-name="uni06A2.fina" unicode="&#x6a2;" horiz-adv-x="950" 
d="M950 61v-61h-527c-245 0 -343 97 -343 289c0 63 16 131 34 170l82 15c-24 -48 -40 -118 -40 -175c0 -157 61 -238 271 -238h63c-46 31 -71 93 -71 177c0 133 87 243 237 243c121 0 219 -63 219 -233c0 -77 -30 -150 -85 -190c0 0 54 3 91 3h69zM797 244
c0 110 -50 176 -149 176c-77 0 -152 -54 -152 -177c0 -117 55 -182 152 -182c79 0 149 55 149 183zM605 -145c0 27 21 48 48 48s48 -20 48 -48c0 -27 -21 -48 -48 -48s-48 21 -48 48z" />
    <glyph glyph-name="uni06A3.init" unicode="&#x6a3;" horiz-adv-x="622" 
d="M536 0h-551c-20 0 -60 11 -60 31c0 19 40 30 60 30h118c35 0 58 -4 58 -4c-53 32 -81 89 -81 179c0 130 84 245 246 245c139 0 210 -79 210 -222v-259zM461 61v182c0 128 -53 177 -143 177c-99 0 -160 -70 -160 -178c0 -123 57 -181 195 -181h108zM281 -145
c0 27 21 48 48 48s48 -20 48 -48c0 -27 -21 -48 -48 -48s-48 21 -48 48zM268 612c0 26 22 49 48 49s49 -22 49 -49s-23 -48 -49 -48c-27 0 -48 21 -48 48z" />
    <glyph glyph-name="uni06A3.medi" unicode="&#x6a3;" horiz-adv-x="608" 
d="M608 0h-623c-20 0 -60 11 -60 31c0 19 40 30 60 30h91c35 0 75 -3 75 -3c-47 32 -74 91 -74 180c0 133 87 243 237 243c121 0 220 -63 220 -233c0 -77 -30 -150 -86 -190c0 0 54 3 91 3h69v-61zM307 61c78 0 149 55 149 183c0 110 -51 176 -150 176
c-77 0 -151 -54 -151 -176c0 -118 54 -183 152 -183zM261 -145c0 27 21 48 48 48s48 -20 48 -48c0 -27 -21 -48 -48 -48s-48 21 -48 48zM261 613c0 26 22 49 48 49s49 -22 49 -49s-23 -48 -49 -48c-27 0 -48 21 -48 48z" />
    <glyph glyph-name="uni06A3.fina" unicode="&#x6a3;" horiz-adv-x="950" 
d="M950 61v-61h-527c-245 0 -343 97 -343 289c0 63 16 131 34 170l82 15c-24 -48 -40 -118 -40 -175c0 -157 61 -238 271 -238h63c-46 31 -71 93 -71 177c0 133 87 243 237 243c121 0 219 -63 219 -233c0 -77 -30 -150 -85 -190c0 0 54 3 91 3h69zM797 244
c0 110 -50 176 -149 176c-77 0 -152 -54 -152 -177c0 -117 55 -182 152 -182c79 0 149 55 149 183zM603 612c0 26 22 49 48 49s49 -22 49 -49s-23 -48 -49 -48c-27 0 -48 21 -48 48zM444 -145c0 27 21 48 48 48s48 -20 48 -48c0 -27 -21 -48 -48 -48s-48 21 -48 48z" />
    <glyph glyph-name="uni06A5.init" unicode="&#x6a5;" horiz-adv-x="622" 
d="M536 0h-551c-20 0 -60 11 -60 31c0 19 40 30 60 30h118c35 0 58 -4 58 -4c-53 32 -81 89 -81 179c0 130 84 245 246 245c139 0 210 -79 210 -222v-259zM461 61v182c0 128 -53 177 -143 177c-99 0 -160 -70 -160 -178c0 -123 57 -181 195 -181h108zM281 -216
c0 26 22 47 48 47s47 -20 47 -47c0 -26 -21 -47 -47 -47c-27 0 -48 20 -48 47zM351 -111c0 26 21 47 47 47c25 0 46 -20 46 -47c0 -25 -20 -47 -46 -47s-47 21 -47 47zM213 -111c0 26 21 47 47 47s47 -20 47 -47c0 -25 -21 -47 -47 -47s-47 21 -47 47z" />
    <glyph glyph-name="uni06A5.medi" unicode="&#x6a5;" horiz-adv-x="608" 
d="M608 0h-623c-20 0 -60 11 -60 31c0 19 40 30 60 30h91c35 0 75 -3 75 -3c-47 32 -74 91 -74 180c0 133 87 243 237 243c121 0 220 -63 220 -233c0 -77 -30 -150 -86 -190c0 0 54 3 91 3h69v-61zM307 61c78 0 149 55 149 183c0 110 -51 176 -150 176
c-77 0 -151 -54 -151 -176c0 -118 54 -183 152 -183zM265 -216c0 26 22 47 48 47s47 -20 47 -47c0 -26 -21 -47 -47 -47c-27 0 -48 20 -48 47zM335 -111c0 26 21 47 47 47c25 0 46 -20 46 -47c0 -25 -20 -47 -46 -47s-47 21 -47 47zM197 -111c0 26 21 47 47 47
s47 -20 47 -47c0 -25 -21 -47 -47 -47s-47 21 -47 47z" />
    <glyph glyph-name="uni06A5.fina" unicode="&#x6a5;" horiz-adv-x="950" 
d="M950 61v-61h-527c-245 0 -343 97 -343 289c0 63 16 131 34 170l82 15c-24 -48 -40 -118 -40 -175c0 -157 61 -238 271 -238h63c-46 31 -71 93 -71 177c0 133 87 243 237 243c121 0 219 -63 219 -233c0 -77 -30 -150 -85 -190c0 0 54 3 91 3h69zM797 244
c0 110 -50 176 -149 176c-77 0 -152 -54 -152 -177c0 -117 55 -182 152 -182c79 0 149 55 149 183zM614 -216c0 26 22 47 48 47s47 -20 47 -47c0 -26 -21 -47 -47 -47c-27 0 -48 20 -48 47zM684 -111c0 26 21 47 47 47c25 0 46 -20 46 -47c0 -25 -20 -47 -46 -47
s-47 21 -47 47zM546 -111c0 26 21 47 47 47s47 -20 47 -47c0 -25 -21 -47 -47 -47s-47 21 -47 47z" />
    <glyph glyph-name="uni06A6" unicode="&#x6a6;" horiz-adv-x="939" arabic-form="isolated" 
d="M875 247c0 -137 -91 -247 -238 -247h-214c-245 0 -343 97 -343 289c0 63 16 131 34 170l82 15c-24 -48 -40 -118 -40 -175c0 -157 61 -238 271 -238h63c-46 31 -71 93 -71 177c0 133 87 243 237 243c121 0 219 -63 219 -234zM797 244c0 110 -50 176 -149 176
c-77 0 -152 -54 -152 -177c0 -117 55 -182 152 -182c79 0 149 55 149 183zM721 566c-26 0 -47 20 -47 47c0 25 21 47 47 47c25 0 47 -21 47 -47s-22 -47 -47 -47zM583 566c-26 0 -47 20 -47 47c0 25 21 47 47 47s47 -21 47 -47s-21 -47 -47 -47zM721 704
c-26 0 -47 20 -47 47c0 25 21 46 47 46c25 0 47 -20 47 -46s-22 -47 -47 -47zM583 704c-26 0 -47 20 -47 47c0 25 21 46 47 46s47 -20 47 -46s-21 -47 -47 -47z" />
    <glyph glyph-name="uniFB6F" unicode="&#x6a6;" horiz-adv-x="950" arabic-form="final" 
d="M950 61v-61h-527c-245 0 -343 97 -343 289c0 63 16 131 34 170l82 15c-24 -48 -40 -118 -40 -175c0 -157 61 -238 271 -238h63c-46 31 -71 93 -71 177c0 133 87 243 237 243c121 0 219 -63 219 -233c0 -77 -30 -150 -85 -190c0 0 54 3 91 3h69zM797 244
c0 110 -50 176 -149 176c-77 0 -152 -54 -152 -177c0 -117 55 -182 152 -182c79 0 149 55 149 183zM721 566c-26 0 -47 20 -47 47c0 25 21 47 47 47c25 0 47 -21 47 -47s-22 -47 -47 -47zM583 566c-26 0 -47 20 -47 47c0 25 21 47 47 47s47 -21 47 -47s-21 -47 -47 -47z
M721 704c-26 0 -47 20 -47 47c0 25 21 46 47 46c25 0 47 -20 47 -46s-22 -47 -47 -47zM583 704c-26 0 -47 20 -47 47c0 25 21 46 47 46s47 -20 47 -46s-21 -47 -47 -47z" />
    <glyph glyph-name="uniFB70" unicode="&#x6a6;" horiz-adv-x="622" arabic-form="initial" 
d="M536 0h-551c-20 0 -60 11 -60 31c0 19 40 30 60 30h118c35 0 58 -4 58 -4c-53 32 -81 89 -81 179c0 130 84 245 246 245c139 0 210 -79 210 -222v-259zM461 61v182c0 128 -53 177 -143 177c-99 0 -160 -70 -160 -178c0 -123 57 -181 195 -181h108zM384 566
c-26 0 -47 20 -47 47c0 25 21 47 47 47c25 0 47 -21 47 -47s-22 -47 -47 -47zM246 566c-26 0 -47 20 -47 47c0 25 21 47 47 47s47 -21 47 -47s-21 -47 -47 -47zM384 704c-26 0 -47 20 -47 47c0 25 21 46 47 46c25 0 47 -20 47 -46s-22 -47 -47 -47zM246 704
c-26 0 -47 20 -47 47c0 25 21 46 47 46s47 -20 47 -46s-21 -47 -47 -47z" />
    <glyph glyph-name="uniFB71" unicode="&#x6a6;" horiz-adv-x="608" arabic-form="medial" 
d="M608 0h-623c-20 0 -60 11 -60 31c0 19 40 30 60 30h91c35 0 75 -3 75 -3c-47 32 -74 91 -74 180c0 133 87 243 237 243c121 0 220 -63 220 -233c0 -77 -30 -150 -86 -190c0 0 54 3 91 3h69v-61zM307 61c78 0 149 55 149 183c0 110 -51 176 -150 176
c-77 0 -151 -54 -151 -176c0 -118 54 -183 152 -183zM381 566c-26 0 -47 20 -47 47c0 25 21 47 47 47c25 0 47 -21 47 -47s-22 -47 -47 -47zM243 566c-26 0 -47 20 -47 47c0 25 21 47 47 47s47 -21 47 -47s-21 -47 -47 -47zM381 704c-26 0 -47 20 -47 47c0 25 21 46 47 46
c25 0 47 -20 47 -46s-22 -47 -47 -47zM243 704c-26 0 -47 20 -47 47c0 25 21 46 47 46s47 -20 47 -46s-21 -47 -47 -47z" />
    <glyph glyph-name="uni06A7.init" unicode="&#x6a7;" horiz-adv-x="622" 
d="M536 0h-551c-20 0 -60 11 -60 31c0 19 40 30 60 30h118c35 0 58 -4 58 -4c-53 32 -81 89 -81 179c0 130 84 245 246 245c139 0 210 -79 210 -222v-259zM461 61v182c0 128 -53 177 -143 177c-99 0 -160 -70 -160 -178c0 -123 57 -181 195 -181h108zM268 612
c0 26 22 49 48 49s49 -22 49 -49s-23 -48 -49 -48c-27 0 -48 21 -48 48z" />
    <glyph glyph-name="uni06A7.medi" unicode="&#x6a7;" horiz-adv-x="608" 
d="M608 0h-623c-20 0 -60 11 -60 31c0 19 40 30 60 30h91c35 0 75 -3 75 -3c-47 32 -74 91 -74 180c0 133 87 243 237 243c121 0 220 -63 220 -233c0 -77 -30 -150 -86 -190c0 0 54 3 91 3h69v-61zM307 61c78 0 149 55 149 183c0 110 -51 176 -150 176
c-77 0 -151 -54 -151 -176c0 -118 54 -183 152 -183zM261 613c0 26 22 49 48 49s49 -22 49 -49s-23 -48 -49 -48c-27 0 -48 21 -48 48z" />
    <glyph glyph-name="uni06A7.fina" unicode="&#x6a7;" horiz-adv-x="937" 
d="M797 446v-385h140v-61h-140v-238s-152 -13 -295 -13c-304 0 -430 89 -430 301c0 64 8 130 24 190l79 15c-18 -67 -27 -135 -27 -196c0 -181 103 -249 365 -249c99 0 209 9 209 9v181h-109c-192 0 -261 91 -261 234c0 131 82 247 247 247c107 0 198 -35 198 -35zM722 61
v334s-53 25 -132 25c-99 0 -161 -70 -161 -177c0 -123 57 -182 196 -182h97zM554 612c0 26 22 49 48 49s49 -22 49 -49s-23 -48 -49 -48c-27 0 -48 21 -48 48z" />
    <glyph glyph-name="uni06A8.init" unicode="&#x6a8;" horiz-adv-x="622" 
d="M536 0h-551c-20 0 -60 11 -60 31c0 19 40 30 60 30h118c35 0 58 -4 58 -4c-53 32 -81 89 -81 179c0 130 84 245 246 245c139 0 210 -79 210 -222v-259zM461 61v182c0 128 -53 177 -143 177c-99 0 -160 -70 -160 -178c0 -123 57 -181 195 -181h108zM199 611
c0 26 21 48 47 48s47 -21 47 -48c0 -25 -21 -47 -47 -47s-47 21 -47 47zM339 611c0 26 21 48 47 48s47 -21 47 -48c0 -25 -21 -47 -47 -47s-47 21 -47 47zM269 718c0 26 21 48 47 48s47 -21 47 -48c0 -25 -21 -47 -47 -47s-47 21 -47 47z" />
    <glyph glyph-name="uni06A8.medi" unicode="&#x6a8;" horiz-adv-x="608" 
d="M608 0h-623c-20 0 -60 11 -60 31c0 19 40 30 60 30h91c35 0 75 -3 75 -3c-47 32 -74 91 -74 180c0 133 87 243 237 243c121 0 220 -63 220 -233c0 -77 -30 -150 -86 -190c0 0 54 3 91 3h69v-61zM307 61c78 0 149 55 149 183c0 110 -51 176 -150 176
c-77 0 -151 -54 -151 -176c0 -118 54 -183 152 -183zM192 611c0 26 21 48 47 48s47 -21 47 -48c0 -25 -21 -47 -47 -47s-47 21 -47 47zM332 611c0 26 21 48 47 48s47 -21 47 -48c0 -25 -21 -47 -47 -47s-47 21 -47 47zM262 718c0 26 21 48 47 48s47 -21 47 -48
c0 -25 -21 -47 -47 -47s-47 21 -47 47z" />
    <glyph glyph-name="uni06A8.fina" unicode="&#x6a8;" horiz-adv-x="937" 
d="M797 446v-385h140v-61h-140v-238s-152 -13 -295 -13c-304 0 -430 89 -430 301c0 64 8 130 24 190l79 15c-18 -67 -27 -135 -27 -196c0 -181 103 -249 365 -249c99 0 209 9 209 9v181h-109c-192 0 -261 91 -261 234c0 131 82 247 247 247c107 0 198 -35 198 -35zM722 61
v334s-53 25 -132 25c-99 0 -161 -70 -161 -177c0 -123 57 -182 196 -182h97zM562 718c0 26 21 48 47 48s47 -21 47 -48c0 -25 -21 -47 -47 -47s-47 21 -47 47zM632 611c0 26 21 48 47 48s47 -21 47 -48c0 -25 -21 -47 -47 -47s-47 21 -47 47zM492 611c0 26 21 48 47 48
s47 -21 47 -48c0 -25 -21 -47 -47 -47s-47 21 -47 47z" />
    <glyph glyph-name="uni06AA.init" unicode="&#x6aa;" horiz-adv-x="1035" 
d="M944 0h-959c-20 0 -60 11 -60 31c0 19 40 30 60 30h880c0 183 -88 211 -367 211h-476v73l214 239h95l-229 -250h344c342 0 498 -16 498 -290v-44z" />
    <glyph glyph-name="uni06AA.medi" unicode="&#x6aa;" horiz-adv-x="1012" 
d="M1012 0h-1027c-20 0 -60 11 -60 31c0 19 40 30 60 30h880c0 183 -88 211 -367 211h-476v73l214 239h95l-229 -250h344c334 0 491 -16 497 -273h69v-61z" />
    <glyph glyph-name="uni06AA.fina" unicode="&#x6aa;" horiz-adv-x="1527" 
d="M423 0c-245 0 -343 97 -343 289c0 63 16 131 34 170l82 15c-24 -48 -40 -118 -40 -175c0 -156 61 -237 274 -238h950c0 183 -90 211 -367 211h-576v73l214 239h95l-229 -250h444c334 0 491 -16 497 -273h69v-61h-1104z" />
    <glyph glyph-name="uni06AB.init" unicode="&#x6ab;" horiz-adv-x="457" 
d="M372 550c0 -50 -37 -93 -87 -93c-43 0 -74 25 -79 74l-104 -65c173 -66 264 -179 264 -422v-44h-381c-20 0 -60 11 -60 31c0 19 40 30 60 30h304c-2 214 -88 310 -267 365v62l392 241v-75l-69 -36c17 -15 27 -37 27 -68zM318 547c0 25 -10 39 -29 39
c-15 0 -30 -15 -30 -40s12 -38 30 -38c16 0 29 14 29 39z" />
    <glyph glyph-name="uni06AB.medi" unicode="&#x6ab;" horiz-adv-x="447" 
d="M372 550c0 -50 -37 -93 -87 -93c-43 0 -74 25 -79 74l-104 -65c169 -65 260 -174 264 -405h81v-61h-462c-20 0 -60 11 -60 31c0 19 40 30 60 30h304c-2 214 -88 310 -267 365v62l392 241v-75l-69 -36c17 -15 27 -37 27 -68zM318 547c0 25 -10 39 -29 39
c-15 0 -30 -15 -30 -40s12 -38 30 -38c16 0 29 14 29 39z" />
    <glyph glyph-name="uni06AB.fina" unicode="&#x6ab;" horiz-adv-x="858" 
d="M785 551c0 -51 -34 -91 -88 -91c-41 0 -75 20 -81 70l-103 -64c169 -65 260 -174 264 -405h81v-61h-435c-245 0 -343 97 -343 289c0 63 16 131 34 170l82 15c-24 -48 -40 -118 -40 -175c0 -157 60 -238 278 -238h266c-2 214 -88 310 -267 365v62l392 241v-75l-68 -35
c17 -14 28 -36 28 -68zM731 548c0 28 -11 43 -31 43c-15 0 -30 -14 -30 -43c0 -28 11 -43 30 -43c16 0 31 15 31 43z" />
    <glyph glyph-name="uni06AC.init" unicode="&#x6ac;" horiz-adv-x="457" 
d="M366 0h-381c-20 0 -60 11 -60 31c0 19 40 30 60 30h306c-2 212 -87 310 -269 365v57l373 234v-77l-283 -175c163 -67 254 -178 254 -421v-44zM127 698c0 26 22 49 48 49s49 -22 49 -49s-23 -48 -49 -48c-27 0 -48 21 -48 48z" />
    <glyph glyph-name="uni06AC.medi" unicode="&#x6ac;" horiz-adv-x="447" 
d="M447 0h-462c-20 0 -60 11 -60 31c0 19 40 30 60 30h306c-2 212 -87 310 -269 365v57l373 234v-77l-283 -175c159 -66 250 -173 254 -404h81v-61zM127 698c0 26 22 49 48 49s49 -22 49 -49s-23 -48 -49 -48c-27 0 -48 21 -48 48z" />
    <glyph glyph-name="uni06AC.fina" unicode="&#x6ac;" horiz-adv-x="902" 
d="M423 0c-245 0 -343 97 -343 289c0 63 16 131 34 170l82 15c-24 -48 -40 -118 -40 -175c0 -157 60 -238 278 -238h251v644h77v-644h140v-61h-479zM327 406v48c30 0 58 -2 76 -5c-22 9 -33 33 -33 52c0 45 34 93 122 93c20 0 38 -2 52 -5l-9 -47c-10 1 -30 4 -49 4
c-39 0 -58 -17 -58 -44s21 -48 81 -48h54v-48h-236zM422 702c0 26 22 49 48 49s49 -22 49 -49s-23 -48 -49 -48c-27 0 -48 21 -48 48z" />
    <glyph glyph-name="uni06AD" unicode="&#x6ad;" horiz-adv-x="880" arabic-form="isolated" 
d="M423 0c-245 0 -343 97 -343 289c0 63 16 131 34 170l82 15c-24 -48 -40 -118 -40 -175c0 -157 60 -238 278 -238h265v644h76v-705h-352zM315 325v48c30 0 58 -2 76 -5c-22 9 -33 33 -33 52c0 45 34 93 122 93c20 0 38 -2 52 -5l-9 -47c-10 1 -30 4 -49 4
c-39 0 -58 -17 -58 -44s21 -48 81 -48h54v-48h-236zM332 618c0 26 21 48 47 48s47 -21 47 -48c0 -25 -21 -47 -47 -47s-47 21 -47 47zM472 618c0 26 21 48 47 48s47 -21 47 -48c0 -25 -21 -47 -47 -47s-47 21 -47 47zM402 725c0 26 21 48 47 48s47 -21 47 -48
c0 -25 -21 -47 -47 -47s-47 21 -47 47z" />
    <glyph glyph-name="uniFBD4" unicode="&#x6ad;" horiz-adv-x="915" arabic-form="final" 
d="M423 0c-245 0 -343 97 -343 289c0 63 16 131 34 170l82 15c-24 -48 -40 -118 -40 -175c0 -157 60 -238 278 -238h265v644h76v-644h140v-61h-492zM315 325v48c30 0 58 -2 76 -5c-22 9 -33 33 -33 52c0 45 34 93 122 93c20 0 38 -2 52 -5l-9 -47c-10 1 -30 4 -49 4
c-39 0 -58 -17 -58 -44s21 -48 81 -48h54v-48h-236zM332 618c0 26 21 48 47 48s47 -21 47 -48c0 -25 -21 -47 -47 -47s-47 21 -47 47zM402 725c0 26 21 48 47 48s47 -21 47 -48c0 -25 -21 -47 -47 -47s-47 21 -47 47zM472 618c0 26 21 48 47 48s47 -21 47 -48
c0 -25 -21 -47 -47 -47s-47 21 -47 47z" />
    <glyph glyph-name="uniFBD5" unicode="&#x6ad;" horiz-adv-x="457" arabic-form="initial" 
d="M366 0h-381c-20 0 -60 11 -60 31c0 19 40 30 60 30h306c-2 212 -87 312 -269 367v57l373 224v-76l-283 -170c163 -67 254 -176 254 -419v-44zM175 675c0 -26 -21 -47 -47 -47c-25 0 -46 21 -46 47s21 46 46 46c26 0 47 -20 47 -46zM292 733c0 -26 -21 -47 -47 -47
c-25 0 -46 20 -46 47c0 25 21 46 46 46c26 0 47 -20 47 -46zM189 798c0 -25 -21 -46 -46 -46c-26 0 -47 20 -47 46s21 47 47 47c25 0 46 -20 46 -47z" />
    <glyph glyph-name="uniFBD6" unicode="&#x6ad;" horiz-adv-x="447" arabic-form="medial" 
d="M-15 0c-20 0 -60 11 -60 31c0 19 40 30 60 30h306c-2 212 -87 312 -269 367v57l373 224v-76l-283 -170c159 -66 250 -171 254 -402h81v-61h-462zM175 675c0 -26 -21 -47 -47 -47c-25 0 -46 21 -46 47s21 46 46 46c26 0 47 -20 47 -46zM292 733c0 -26 -21 -47 -47 -47
c-25 0 -46 20 -46 47c0 25 21 46 46 46c26 0 47 -20 47 -46zM189 798c0 -25 -21 -46 -46 -46c-26 0 -47 20 -47 46s21 47 47 47c25 0 46 -20 46 -47z" />
    <glyph glyph-name="uni06AE.init" unicode="&#x6ae;" horiz-adv-x="457" 
d="M366 0h-381c-20 0 -60 11 -60 31c0 19 40 30 60 30h306c-2 212 -87 310 -269 365v57l373 234v-77l-283 -175c163 -67 254 -178 254 -421v-44zM144 -216c0 26 22 47 48 47s47 -20 47 -47c0 -26 -21 -47 -47 -47c-27 0 -48 20 -48 47zM214 -111c0 26 21 47 47 47
c25 0 46 -20 46 -47c0 -25 -20 -47 -46 -47s-47 21 -47 47zM76 -111c0 26 21 47 47 47s47 -20 47 -47c0 -25 -21 -47 -47 -47s-47 21 -47 47z" />
    <glyph glyph-name="uni06AE.medi" unicode="&#x6ae;" horiz-adv-x="447" 
d="M447 0h-462c-20 0 -60 11 -60 31c0 19 40 30 60 30h306c-2 212 -87 310 -269 365v57l373 234v-77l-283 -175c159 -66 250 -173 254 -404h81v-61zM164 -216c0 26 22 47 48 47s47 -20 47 -47c0 -26 -21 -47 -47 -47c-27 0 -48 20 -48 47zM96 -111c0 26 21 47 47 47
s47 -20 47 -47c0 -25 -21 -47 -47 -47s-47 21 -47 47zM234 -111c0 26 21 47 47 47c25 0 46 -20 46 -47c0 -25 -20 -47 -46 -47s-47 21 -47 47z" />
    <glyph glyph-name="uni06AE.fina" unicode="&#x6ae;" horiz-adv-x="902" 
d="M423 0c-245 0 -343 97 -343 289c0 63 16 131 34 170l82 15c-24 -48 -40 -118 -40 -175c0 -157 60 -238 278 -238h251v644h77v-644h140v-61h-479zM327 406v48c30 0 58 -2 76 -5c-22 9 -33 33 -33 52c0 45 34 93 122 93c20 0 38 -2 52 -5l-9 -47c-10 1 -30 4 -49 4
c-39 0 -58 -17 -58 -44s21 -48 81 -48h54v-48h-236zM414 -216c0 26 22 47 48 47s47 -20 47 -47c0 -26 -21 -47 -47 -47c-27 0 -48 20 -48 47zM346 -111c0 26 21 47 47 47s47 -20 47 -47c0 -25 -21 -47 -47 -47s-47 21 -47 47zM484 -111c0 26 21 47 47 47c25 0 46 -20 46 -47
c0 -25 -20 -47 -46 -47s-47 21 -47 47z" />
    <glyph glyph-name="uni06B0.init" unicode="&#x6b0;" horiz-adv-x="457" 
d="M372 550c0 -50 -37 -93 -87 -93c-43 0 -74 25 -79 74l-104 -65c173 -66 264 -179 264 -422v-44h-381c-20 0 -60 11 -60 31c0 19 40 30 60 30h304c-2 214 -88 310 -267 365v62l392 241v-75l-69 -36c17 -15 27 -37 27 -68zM22 544v68l392 247v-69zM318 547
c0 25 -10 39 -29 39c-15 0 -30 -15 -30 -40s12 -38 30 -38c16 0 29 14 29 39z" />
    <glyph glyph-name="uni06B0.medi" unicode="&#x6b0;" horiz-adv-x="447" 
d="M372 550c0 -50 -37 -93 -87 -93c-43 0 -74 25 -79 74l-104 -65c169 -65 260 -174 264 -405h81v-61h-462c-20 0 -60 11 -60 31c0 19 40 30 60 30h304c-2 214 -88 310 -267 365v62l392 241v-75l-69 -36c17 -15 27 -37 27 -68zM22 544v68l392 247v-69zM318 547
c0 25 -10 39 -29 39c-15 0 -30 -15 -30 -40s12 -38 30 -38c16 0 29 14 29 39z" />
    <glyph glyph-name="uni06B0.fina" unicode="&#x6b0;" horiz-adv-x="858" 
d="M785 551c0 -51 -34 -91 -88 -91c-41 0 -75 20 -81 70l-103 -64c169 -65 260 -174 264 -405h81v-61h-435c-245 0 -343 97 -343 289c0 63 16 131 34 170l82 15c-24 -48 -40 -118 -40 -175c0 -157 60 -238 278 -238h266c-2 214 -88 310 -267 365v62l392 241v-75l-68 -35
c17 -14 28 -36 28 -68zM433 542v69l392 246v-69zM731 548c0 28 -11 43 -31 43c-15 0 -30 -14 -30 -43c0 -28 11 -43 30 -43c16 0 31 15 31 43z" />
    <glyph glyph-name="uni06B1" unicode="&#x6b1;" horiz-adv-x="868" arabic-form="isolated" 
d="M777 0h-354c-245 0 -343 97 -343 289c0 63 16 131 34 170l82 15c-24 -48 -40 -118 -40 -175c0 -157 60 -238 278 -238h268c-2 212 -88 310 -269 365v55l373 234v-75l-284 -175c164 -67 255 -178 255 -421v-44zM433 571v72l373 234v-72zM605 836c-26 0 -46 19 -46 45
c0 25 20 46 46 46c25 0 45 -20 45 -46c0 -25 -20 -45 -45 -45zM488 778c-24 0 -45 20 -45 46c0 25 20 45 45 45c26 0 46 -19 46 -45s-20 -46 -46 -46z" />
    <glyph glyph-name="uniFB9B" unicode="&#x6b1;" horiz-adv-x="858" arabic-form="final" 
d="M858 0h-435c-245 0 -343 97 -343 289c0 63 16 131 34 170l82 15c-24 -48 -40 -118 -40 -175c0 -157 60 -238 278 -238h268c-2 212 -88 310 -269 365v55l373 234v-75l-284 -175c160 -66 251 -173 255 -404h81v-61zM433 571v72l373 234v-72zM605 836c-26 0 -46 19 -46 45
c0 25 20 46 46 46c25 0 45 -20 45 -46c0 -25 -20 -45 -45 -45zM488 778c-24 0 -45 20 -45 46c0 25 20 45 45 45c26 0 46 -19 46 -45s-20 -46 -46 -46z" />
    <glyph glyph-name="uniFB9C" unicode="&#x6b1;" horiz-adv-x="457" arabic-form="initial" 
d="M366 0h-381c-20 0 -60 11 -60 31c0 19 40 30 60 30h306c-2 212 -87 310 -269 365v55l373 227v-75l-284 -171c162 -65 255 -175 255 -418v-44zM22 544v72l373 227v-72zM196 789c-26 0 -46 19 -46 46c0 24 20 45 46 45c25 0 45 -20 45 -45c0 -26 -20 -46 -45 -46zM80 731
c-25 0 -46 20 -46 46c0 25 20 46 46 46c25 0 45 -20 45 -46c0 -25 -20 -46 -45 -46z" />
    <glyph glyph-name="uniFB9D" unicode="&#x6b1;" horiz-adv-x="447" arabic-form="medial" 
d="M447 0h-462c-20 0 -60 11 -60 31c0 19 40 30 60 30h306c-2 212 -87 310 -269 365v55l373 227v-75l-284 -171c158 -64 250 -170 255 -401h81v-61zM22 544v72l373 227v-72zM80 731c-25 0 -46 20 -46 46c0 25 20 46 46 46c25 0 45 -20 45 -46c0 -25 -20 -46 -45 -46z
M196 789c-26 0 -46 19 -46 46c0 24 20 45 46 45c25 0 45 -20 45 -45c0 -26 -20 -46 -45 -46z" />
    <glyph glyph-name="uni06B2.init" unicode="&#x6b2;" horiz-adv-x="457" 
d="M366 0h-381c-20 0 -60 11 -60 31c0 19 40 30 60 30h306c-2 212 -87 310 -269 365v55l373 234v-75l-283 -175c163 -67 254 -178 254 -421v-44zM22 544v72l373 233v-72zM87 -146c0 26 21 48 47 48s48 -21 48 -48c0 -26 -22 -47 -48 -47s-47 21 -47 47zM226 -146
c0 26 21 48 47 48s47 -21 47 -48c0 -26 -21 -47 -47 -47s-47 21 -47 47z" />
    <glyph glyph-name="uni06B2.medi" unicode="&#x6b2;" horiz-adv-x="447" 
d="M-15 0c-20 0 -60 11 -60 31c0 19 40 30 60 30h306c-2 212 -87 310 -269 365v55l373 234v-75l-283 -175c159 -66 250 -173 254 -404h81v-61h-462zM22 544v72l373 233v-72zM99 -146c0 26 21 48 47 48s48 -21 48 -48c0 -26 -22 -47 -48 -47s-47 21 -47 47zM238 -146
c0 26 21 48 47 48s47 -21 47 -48c0 -26 -21 -47 -47 -47s-47 21 -47 47z" />
    <glyph glyph-name="uni06B2.fina" unicode="&#x6b2;" horiz-adv-x="858" 
d="M423 0c-245 0 -343 97 -343 289c0 63 16 131 34 170l82 15c-24 -48 -40 -118 -40 -175c0 -157 60 -238 278 -238h268c-2 212 -88 310 -269 365v55l373 234v-75l-284 -175c160 -66 251 -173 255 -404h81v-61h-435zM433 571v72l373 234v-72zM359 -146c0 26 21 48 47 48
s48 -21 48 -48c0 -26 -22 -47 -48 -47s-47 21 -47 47zM498 -146c0 26 21 48 47 48s47 -21 47 -48c0 -26 -21 -47 -47 -47s-47 21 -47 47z" />
    <glyph glyph-name="uni06B3" unicode="&#x6b3;" horiz-adv-x="868" arabic-form="isolated" 
d="M777 0h-354c-245 0 -343 97 -343 289c0 63 16 131 34 170l82 15c-24 -48 -40 -118 -40 -175c0 -157 60 -238 278 -238h268c-2 212 -88 310 -269 365v55l373 234v-75l-284 -175c164 -67 255 -178 255 -421v-44zM433 571v72l373 234v-72zM445 -263c-25 0 -45 19 -45 45
s20 46 45 46c26 0 46 -19 46 -46c0 -25 -20 -45 -46 -45zM445 -138c-25 0 -45 20 -45 46c0 25 20 46 45 46c26 0 46 -20 46 -46s-20 -46 -46 -46z" />
    <glyph glyph-name="uniFB97" unicode="&#x6b3;" horiz-adv-x="858" arabic-form="final" 
d="M858 0h-435c-245 0 -343 97 -343 289c0 63 16 131 34 170l82 15c-24 -48 -40 -118 -40 -175c0 -157 60 -238 278 -238h268c-2 212 -88 310 -269 365v55l373 234v-75l-284 -175c160 -66 251 -173 255 -404h81v-61zM433 571v72l373 234v-72zM445 -138c-25 0 -45 20 -45 46
c0 25 20 46 45 46c26 0 46 -20 46 -46s-20 -46 -46 -46zM445 -263c-25 0 -45 19 -45 45s20 46 45 46c26 0 46 -19 46 -46c0 -25 -20 -45 -46 -45z" />
    <glyph glyph-name="uniFB98" unicode="&#x6b3;" horiz-adv-x="457" arabic-form="initial" 
d="M366 0h-381c-20 0 -60 11 -60 31c0 19 40 30 60 30h306c-2 212 -87 310 -269 365v55l373 234v-75l-283 -175c163 -67 254 -178 254 -421v-44zM22 544v72l373 233v-72zM170 -263c-25 0 -45 19 -45 45s20 46 45 46c26 0 46 -19 46 -46c0 -25 -20 -45 -46 -45zM170 -138
c-25 0 -45 20 -45 46c0 25 20 46 45 46c26 0 46 -20 46 -46s-20 -46 -46 -46z" />
    <glyph glyph-name="uniFB99" unicode="&#x6b3;" horiz-adv-x="447" arabic-form="medial" 
d="M447 0h-462c-20 0 -60 11 -60 31c0 19 40 30 60 30h306c-2 212 -87 310 -269 365v55l373 234v-75l-283 -175c159 -66 250 -173 254 -404h81v-61zM22 544v72l373 233v-72zM170 -138c-25 0 -45 20 -45 46c0 25 20 46 45 46c26 0 46 -20 46 -46s-20 -46 -46 -46zM170 -263
c-25 0 -45 19 -45 45s20 46 45 46c26 0 46 -19 46 -46c0 -25 -20 -45 -46 -45z" />
    <glyph glyph-name="uni06B4.init" unicode="&#x6b4;" horiz-adv-x="457" 
d="M366 0h-381c-20 0 -60 11 -60 31c0 19 40 30 60 30h306c-2 212 -87 310 -269 365v51l373 234v-71l-286 -176c165 -65 257 -177 257 -420v-44zM22 537v69l373 233v-68zM204 785c-24 0 -45 19 -45 45c0 25 21 46 45 46c25 0 45 -20 45 -46c0 -25 -20 -45 -45 -45zM102 839
c-25 0 -45 19 -45 45c0 25 20 45 45 45s45 -19 45 -45c0 -25 -20 -45 -45 -45zM84 722c-25 0 -45 20 -45 46c0 25 20 45 45 45s45 -20 45 -45s-20 -46 -45 -46z" />
    <glyph glyph-name="uni06B4.medi" unicode="&#x6b4;" horiz-adv-x="447" 
d="M-15 0c-20 0 -60 11 -60 31c0 19 40 30 60 30h306c-2 212 -87 310 -269 365v51l373 234v-71l-286 -176c161 -64 253 -172 257 -403h81v-61h-462zM22 537v69l373 233v-68zM84 722c-25 0 -45 20 -45 46c0 25 20 45 45 45s45 -20 45 -45s-20 -46 -45 -46zM204 785
c-24 0 -45 19 -45 45c0 25 21 46 45 46c25 0 45 -20 45 -46c0 -25 -20 -45 -45 -45zM102 839c-25 0 -45 19 -45 45c0 25 20 45 45 45s45 -19 45 -45c0 -25 -20 -45 -45 -45z" />
    <glyph glyph-name="uni06B4.fina" unicode="&#x6b4;" horiz-adv-x="858" 
d="M423 0c-245 0 -343 97 -343 289c0 63 16 131 34 170l82 15c-24 -48 -40 -118 -40 -175c0 -157 60 -238 278 -238h268c-2 212 -88 310 -269 365v51l373 234v-71l-284 -175c160 -66 251 -173 255 -404h81v-61h-435zM433 562v68l373 235v-69zM513 880c-25 0 -45 20 -45 45
s20 46 45 46s45 -20 45 -46c0 -24 -20 -45 -45 -45zM615 827c-25 0 -45 19 -45 45c0 25 20 45 45 45s45 -19 45 -45c0 -25 -20 -45 -45 -45zM495 764c-25 0 -45 19 -45 45c0 25 20 45 45 45s45 -19 45 -45c0 -25 -20 -45 -45 -45z" />
    <glyph glyph-name="uni06B5.init" unicode="&#x6b5;" 
d="M216 0h-231c-20 0 -60 11 -60 31c0 19 40 30 60 30h155v644h76v-705zM311 876l-134 -129l-132 127l35 38l99 -86l98 86z" />
    <glyph glyph-name="uni06B5.medi" unicode="&#x6b5;" horiz-adv-x="356" 
d="M356 0h-371c-20 0 -60 11 -60 31c0 19 40 30 60 30h155v644h76v-644h140v-61zM311 876l-134 -129l-132 127l35 38l99 -86l98 86z" />
    <glyph glyph-name="uni06B5.fina" unicode="&#x6b5;" horiz-adv-x="683" 
d="M475 45v660h76v-644h132v-61h-135c-17 -165 -114 -231 -236 -231c-128 0 -240 70 -240 277c0 68 8 134 24 194l79 15c-18 -67 -27 -135 -27 -202c0 -178 90 -223 173 -223s154 51 154 215zM638 876l-134 -129l-132 127l35 38l99 -86l98 86z" />
    <glyph glyph-name="uni06B6.init" unicode="&#x6b6;" 
d="M216 0h-231c-20 0 -60 11 -60 31c0 19 40 30 60 30h155v644h76v-705zM130 817c0 26 22 49 48 49s49 -22 49 -49s-23 -48 -49 -48c-27 0 -48 21 -48 48z" />
    <glyph glyph-name="uni06B6.medi" unicode="&#x6b6;" horiz-adv-x="356" 
d="M356 0h-371c-20 0 -60 11 -60 31c0 19 40 30 60 30h155v644h76v-644h140v-61zM130 817c0 26 22 49 48 49s49 -22 49 -49s-23 -48 -49 -48c-27 0 -48 21 -48 48z" />
    <glyph glyph-name="uni06B6.fina" unicode="&#x6b6;" horiz-adv-x="683" 
d="M475 45v660h76v-644h132v-61h-135c-17 -165 -114 -231 -236 -231c-128 0 -240 70 -240 277c0 68 8 134 24 194l79 15c-18 -67 -27 -135 -27 -202c0 -178 90 -223 173 -223s154 51 154 215zM456 817c0 26 22 49 48 49s49 -22 49 -49s-23 -48 -49 -48c-27 0 -48 21 -48 48z
" />
    <glyph glyph-name="uni06B7.init" unicode="&#x6b7;" 
d="M216 0h-231c-20 0 -60 11 -60 31c0 19 40 30 60 30h155v633h76v-694zM63 785c0 26 21 48 47 48s47 -21 47 -48c0 -25 -21 -47 -47 -47s-47 21 -47 47zM203 785c0 26 21 48 47 48s47 -21 47 -48c0 -25 -21 -47 -47 -47s-47 21 -47 47zM133 892c0 26 21 48 47 48
s47 -21 47 -48c0 -25 -21 -47 -47 -47s-47 21 -47 47z" />
    <glyph glyph-name="uni06B7.medi" unicode="&#x6b7;" horiz-adv-x="356" 
d="M-15 0c-20 0 -60 11 -60 31c0 19 40 30 60 30h155v633h76v-633h140v-61h-371zM133 892c0 26 21 48 47 48s47 -21 47 -48c0 -25 -21 -47 -47 -47s-47 21 -47 47zM203 785c0 26 21 48 47 48s47 -21 47 -48c0 -25 -21 -47 -47 -47s-47 21 -47 47zM63 785c0 26 21 48 47 48
s47 -21 47 -48c0 -25 -21 -47 -47 -47s-47 21 -47 47z" />
    <glyph glyph-name="uni06B7.fina" unicode="&#x6b7;" horiz-adv-x="683" 
d="M475 45v649h76v-633h132v-61h-135c-17 -165 -114 -231 -236 -231c-128 0 -240 70 -240 277c0 68 8 134 24 194l79 15c-18 -67 -27 -135 -27 -202c0 -178 90 -223 173 -223s154 51 154 215zM464 892c0 26 21 48 47 48s47 -21 47 -48c0 -25 -21 -47 -47 -47s-47 21 -47 47z
M534 785c0 26 21 48 47 48s47 -21 47 -48c0 -25 -21 -47 -47 -47s-47 21 -47 47zM394 785c0 26 21 48 47 48s47 -21 47 -48c0 -25 -21 -47 -47 -47s-47 21 -47 47z" />
    <glyph glyph-name="uni06B8.init" unicode="&#x6b8;" 
d="M216 0h-231c-20 0 -60 11 -60 31c0 19 40 30 60 30h155v644h76v-705zM128 -216c0 26 22 47 48 47s47 -20 47 -47c0 -26 -21 -47 -47 -47c-27 0 -48 20 -48 47zM198 -111c0 26 21 47 47 47c25 0 46 -20 46 -47c0 -25 -20 -47 -46 -47s-47 21 -47 47zM60 -111
c0 26 21 47 47 47s47 -20 47 -47c0 -25 -21 -47 -47 -47s-47 21 -47 47z" />
    <glyph glyph-name="uni06B8.medi" unicode="&#x6b8;" horiz-adv-x="356" 
d="M356 0h-371c-20 0 -60 11 -60 31c0 19 40 30 60 30h155v644h76v-644h140v-61zM129 -216c0 26 22 47 48 47s47 -20 47 -47c0 -26 -21 -47 -47 -47c-27 0 -48 20 -48 47zM61 -111c0 26 21 47 47 47s47 -20 47 -47c0 -25 -21 -47 -47 -47s-47 21 -47 47zM199 -111
c0 26 21 47 47 47c25 0 46 -20 46 -47c0 -25 -20 -47 -46 -47s-47 21 -47 47z" />
    <glyph glyph-name="uni06B8.fina" unicode="&#x6b8;" horiz-adv-x="683" 
d="M475 137v568h76v-560c0 -31 -3 -59 -7 -84h138v-61h-155c-38 -98 -119 -139 -215 -139c-128 0 -240 70 -240 277c0 68 8 134 24 194l79 15c-18 -67 -27 -135 -27 -202c0 -178 90 -223 173 -223s154 51 154 215zM315 -210c25 0 46 -20 46 -47c0 -25 -21 -46 -46 -46
c-26 0 -47 20 -47 46s21 47 47 47zM423 -158c25 0 46 -20 46 -46s-21 -47 -46 -47c-26 0 -47 21 -47 47c0 25 21 46 47 46zM207 -158c25 0 46 -20 46 -46s-21 -47 -46 -47s-47 21 -47 47c0 25 22 46 47 46z" />
    <glyph glyph-name="uni06B9.init" unicode="&#x6b9;" 
d="M216 0h-231c-20 0 -60 11 -60 31c0 19 40 30 60 30h155v409h76v-470zM129 612c0 26 22 49 48 49s49 -22 49 -49s-23 -48 -49 -48c-27 0 -48 21 -48 48zM120 -145c0 27 21 48 48 48s48 -20 48 -48c0 -27 -21 -48 -48 -48s-48 21 -48 48z" />
    <glyph glyph-name="uni06B9.medi" unicode="&#x6b9;" horiz-adv-x="356" 
d="M356 0h-371c-20 0 -60 11 -60 31c0 19 40 30 60 30h155v409h76v-409h140v-61zM129 612c0 26 22 49 48 49s49 -22 49 -49s-23 -48 -49 -48c-27 0 -48 21 -48 48zM128 -145c0 27 21 48 48 48s48 -20 48 -48c0 -27 -21 -48 -48 -48s-48 21 -48 48z" />
    <glyph glyph-name="uni06B9.fina" unicode="&#x6b9;" horiz-adv-x="711" 
d="M571 470v-390v-19h140v-61h-147c-24 -126 -110 -191 -250 -191c-128 0 -242 70 -242 275c0 66 7 114 22 172l78 13c-16 -62 -24 -114 -24 -178c0 -177 92 -221 175 -221c98 0 172 53 172 205v395h76zM267 426c0 26 22 49 48 49s49 -22 49 -49s-23 -48 -49 -48
c-27 0 -48 21 -48 48zM276 -271c0 27 21 48 48 48s48 -20 48 -48c0 -27 -21 -48 -48 -48s-48 21 -48 48z" />
    <glyph glyph-name="uni06BB" unicode="&#x6bb;" horiz-adv-x="676" arabic-form="isolated" 
d="M571 470v-427c0 -183 -90 -274 -257 -274c-128 0 -242 70 -242 277c0 68 8 134 24 194l79 15c-18 -67 -27 -135 -27 -202c0 -178 92 -223 175 -223c98 0 172 51 172 208v432h76zM372 477c0 31 -12 55 -44 55c-54 0 -108 -69 -112 -124h74c58 0 82 27 82 69zM216 645v-85
c0 -20 -2 -44 -6 -64h1c25 46 74 80 124 80c59 0 92 -35 92 -92c0 -73 -47 -119 -146 -119h-118v280h53z" />
    <glyph glyph-name="uniFBA1" unicode="&#x6bb;" horiz-adv-x="711" arabic-form="final" 
d="M571 470v-409h140v-61h-142c-14 -154 -102 -231 -255 -231c-128 0 -242 70 -242 277c0 68 8 134 24 194l79 15c-18 -67 -27 -135 -27 -202c0 -178 92 -223 175 -223c98 0 172 51 172 208v432h76zM216 645v-85c0 -20 -2 -44 -6 -64h1c25 46 74 80 124 80
c59 0 92 -35 92 -92c0 -73 -47 -119 -146 -119h-118v280h53zM372 477c0 31 -12 55 -44 55c-54 0 -108 -69 -112 -124h74c58 0 82 27 82 69z" />
    <glyph glyph-name="uniFBA2" unicode="&#x6bb;" arabic-form="initial" 
d="M216 0h-231c-20 0 -60 11 -60 31c0 19 40 30 60 30h155v409h76v-470zM256 697c0 31 -12 55 -44 55c-54 0 -108 -69 -112 -124h74c58 0 82 27 82 69zM100 865v-85c0 -20 -2 -44 -6 -64h1c25 46 74 80 124 80c59 0 92 -35 92 -92c0 -73 -47 -119 -146 -119h-118v280h53z
" />
    <glyph glyph-name="uniFBA3" unicode="&#x6bb;" horiz-adv-x="356" arabic-form="medial" 
d="M356 0h-371c-20 0 -60 11 -60 31c0 19 40 30 60 30h155v409h76v-409h140v-61zM107 865v-85c0 -20 -2 -44 -6 -64h1c25 46 74 80 124 80c59 0 92 -35 92 -92c0 -73 -47 -119 -146 -119h-118v280h53zM263 697c0 31 -12 55 -44 55c-54 0 -108 -69 -112 -124h74
c58 0 82 27 82 69z" />
    <glyph glyph-name="uni06BC.init" unicode="&#x6bc;" 
d="M172 -40c0 -50 -34 -90 -87 -90c-44 0 -81 24 -81 85c0 17 4 32 10 45h-29c-20 0 -60 11 -60 31c0 19 40 30 60 30h155v409h76v-470h-51c4 -11 7 -24 7 -40zM129 612c0 26 22 49 48 49s49 -22 49 -49s-23 -48 -49 -48c-27 0 -48 21 -48 48zM119 -43c0 27 -11 41 -27 43
h-4c-15 0 -31 -13 -31 -42c0 -28 12 -43 31 -43c16 0 31 15 31 42z" />
    <glyph glyph-name="uni06BC.medi" unicode="&#x6bc;" horiz-adv-x="356" 
d="M262 -40c0 -50 -34 -90 -87 -90c-44 0 -81 24 -81 85c0 17 4 32 10 45h-119c-20 0 -60 11 -60 31c0 19 40 30 60 30h155v409h76v-409h140v-61h-101c4 -11 7 -24 7 -40zM129 612c0 26 22 49 48 49s49 -22 49 -49s-23 -48 -49 -48c-27 0 -48 21 -48 48zM209 -43
c0 27 -11 41 -27 43h-8c-14 -2 -27 -15 -27 -42c0 -28 12 -43 31 -43c16 0 31 15 31 42z" />
    <glyph glyph-name="uni06BC.fina" unicode="&#x6bc;" horiz-adv-x="711" 
d="M564 -216c0 -51 -35 -91 -88 -91c-44 0 -81 24 -81 85v2c-24 -8 -51 -11 -81 -11c-128 0 -242 70 -242 277c0 68 8 134 24 194l79 15c-18 -67 -27 -135 -27 -202c0 -178 92 -223 175 -223c98 0 172 51 172 208v432h76v-409h140v-61h-142c-4 -47 -16 -96 -48 -138
c26 -11 43 -37 43 -78zM371 431c0 -26 -22 -47 -48 -47c-25 0 -47 20 -47 47c0 26 22 47 47 47c26 0 48 -20 48 -47zM510 -219c0 28 -11 43 -31 43c-15 0 -31 -14 -31 -43c0 -28 12 -43 31 -43c16 0 31 15 31 43z" />
    <glyph glyph-name="uni06BD.init" unicode="&#x6bd;" 
d="M216 0h-231c-20 0 -60 11 -60 31c0 19 40 30 60 30h155v409h76v-470zM128 -216c0 26 22 47 48 47s47 -20 47 -47c0 -26 -21 -47 -47 -47c-27 0 -48 20 -48 47zM198 -111c0 26 21 47 47 47c25 0 46 -20 46 -47c0 -25 -20 -47 -46 -47s-47 21 -47 47zM60 -111
c0 26 21 47 47 47s47 -20 47 -47c0 -25 -21 -47 -47 -47s-47 21 -47 47z" />
    <glyph glyph-name="uni06BD.medi" unicode="&#x6bd;" horiz-adv-x="356" 
d="M356 0h-371c-20 0 -60 11 -60 31c0 19 40 30 60 30h155v409h76v-409h140v-61zM129 -216c0 26 22 47 48 47s47 -20 47 -47c0 -26 -21 -47 -47 -47c-27 0 -48 20 -48 47zM61 -111c0 26 21 47 47 47s47 -20 47 -47c0 -25 -21 -47 -47 -47s-47 21 -47 47zM199 -111
c0 26 21 47 47 47c25 0 46 -20 46 -47c0 -25 -20 -47 -46 -47s-47 21 -47 47z" />
    <glyph glyph-name="uni06BD.fina" unicode="&#x6bd;" horiz-adv-x="711" 
d="M571 470v-409h140v-61h-142c-14 -154 -102 -231 -255 -231c-128 0 -242 70 -242 277c0 68 8 134 24 194l79 15c-18 -67 -27 -135 -27 -202c0 -178 92 -223 175 -223c98 0 172 51 172 208v432h76zM243 489c0 26 21 48 47 48s47 -21 47 -48c0 -25 -21 -47 -47 -47
s-47 21 -47 47zM313 382c0 26 21 48 47 48s47 -21 47 -48c0 -25 -21 -47 -47 -47s-47 21 -47 47zM173 382c0 26 21 48 47 48s47 -21 47 -48c0 -25 -21 -47 -47 -47s-47 21 -47 47z" />
    <glyph glyph-name="uni06BF.init" unicode="&#x6bf;" horiz-adv-x="532" 
d="M435 0h-450c-20 0 -60 11 -60 31c0 19 40 30 60 30h383c5 39 8 77 8 113c0 161 -56 239 -228 239c-39 0 -86 -4 -123 -10v60c31 5 85 11 129 11c219 0 298 -102 298 -293c0 -47 -5 -109 -17 -181zM134 -216c0 26 22 47 48 47s47 -20 47 -47c0 -26 -21 -47 -47 -47
c-27 0 -48 20 -48 47zM204 -111c0 26 21 47 47 47c25 0 46 -20 46 -47c0 -25 -20 -47 -46 -47s-47 21 -47 47zM66 -111c0 26 21 47 47 47s47 -20 47 -47c0 -25 -21 -47 -47 -47s-47 21 -47 47zM133 612c0 26 22 49 48 49s49 -22 49 -49s-23 -48 -49 -48c-27 0 -48 21 -48 48
z" />
    <glyph glyph-name="uni06BF.medi" unicode="&#x6bf;" horiz-adv-x="528" 
d="M528 0h-543c-20 0 -60 11 -60 31c0 19 40 30 60 30h383c5 39 8 77 8 113c0 161 -56 239 -228 239c-39 0 -86 -4 -123 -10v60c31 5 85 11 129 11c219 0 298 -102 298 -293c0 -33 -3 -74 -8 -120h84v-61zM135 612c0 26 22 49 48 49s49 -22 49 -49s-23 -48 -49 -48
c-27 0 -48 21 -48 48zM140 -216c0 26 22 47 48 47s47 -20 47 -47c0 -26 -21 -47 -47 -47c-27 0 -48 20 -48 47zM72 -111c0 26 21 47 47 47s47 -20 47 -47c0 -25 -21 -47 -47 -47s-47 21 -47 47zM210 -111c0 26 21 47 47 47c25 0 46 -20 46 -47c0 -25 -20 -47 -46 -47
s-47 21 -47 47z" />
    <glyph glyph-name="uni06BF.fina" unicode="&#x6bf;" horiz-adv-x="619" 
d="M619 0h-280c-179 0 -223 -57 -223 -131c0 -64 48 -110 137 -123l-16 -63c-121 18 -197 83 -197 179c0 113 78 199 304 199h115c5 39 8 77 8 113c0 161 -56 239 -228 239c-39 0 -72 -2 -110 -7v60c31 4 72 8 116 8c219 0 298 -102 298 -293c0 -33 -2 -74 -7 -120h83v-61z
M225 612c0 26 22 49 48 49s49 -22 49 -49s-23 -48 -49 -48c-27 0 -48 21 -48 48zM338 -216c0 26 22 47 48 47s47 -20 47 -47c0 -26 -21 -47 -47 -47c-27 0 -48 20 -48 47zM270 -111c0 26 21 47 47 47s47 -20 47 -47c0 -25 -21 -47 -47 -47s-47 21 -47 47zM408 -111
c0 26 21 47 47 47c25 0 46 -20 46 -47c0 -25 -20 -47 -46 -47s-47 21 -47 47z" />
    <glyph glyph-name="uni06C4.fina" unicode="&#x6c4;" horiz-adv-x="656" 
d="M234 -265c-78 0 -159 16 -159 16l5 65s89 -20 163 -20c26 0 49 3 68 6c-15 13 -25 34 -25 64c0 49 33 88 84 88c29 0 53 -10 66 -34c4 15 6 33 6 54v28h-105c-196 0 -265 89 -265 232c0 131 81 247 247 247c107 0 198 -35 198 -35v-385h139v-61h-139v-26
c0 -120 -71 -239 -283 -239zM442 62v333s-53 25 -132 25c-99 0 -161 -70 -161 -177c0 -123 57 -181 198 -181h95zM398 -131c0 28 -12 43 -31 43c-15 0 -31 -14 -31 -43c0 -28 12 -43 31 -43c16 0 31 15 31 43z" />
    <glyph glyph-name="uni06C5.isol" unicode="&#x6c5;" horiz-adv-x="621" arabic-form="isolated" 
d="M180 -109v55c115 0 182 -19 235 -75c17 27 27 61 27 103v27l-110 1c-191 1 -260 89 -260 232c0 131 81 247 247 247c107 0 198 -35 198 -35v-472c0 -120 -71 -239 -283 -239c-78 0 -159 16 -159 16l5 65s89 -20 163 -20c50 0 95 11 130 34c-50 51 -105 61 -193 61z
M442 62v333s-53 25 -132 25c-99 0 -161 -70 -161 -177c0 -123 57 -180 195 -181h98z" />
    <glyph glyph-name="uni06C5.fina" unicode="&#x6c5;" horiz-adv-x="656" arabic-form="final" 
d="M180 -109v55c115 0 182 -19 235 -75c17 27 27 61 27 103v27l-110 1c-191 1 -260 89 -260 232c0 131 81 247 247 247c107 0 198 -35 198 -35v-385h139v-61h-139v-26c0 -120 -71 -239 -283 -239c-78 0 -159 16 -159 16l5 65s89 -20 163 -20c50 0 95 11 130 34
c-50 51 -105 61 -193 61zM442 62v333s-53 25 -132 25c-99 0 -161 -70 -161 -177c0 -123 57 -180 195 -181h98z" />
    <glyph glyph-name="uni06C6" unicode="&#x6c6;" horiz-adv-x="621" arabic-form="isolated" 
d="M234 -253c-78 0 -158 15 -158 15l6 66s87 -21 161 -21c111 0 199 42 199 165v28h-110c-191 0 -260 91 -260 234c0 131 81 247 247 247c107 0 198 -35 198 -35v-472c0 -109 -71 -227 -283 -227zM442 61v334s-53 25 -132 25c-99 0 -161 -70 -161 -177
c0 -123 57 -182 195 -182h98zM452 704l-134 -129l-132 127l35 38l99 -86l98 86z" />
    <glyph glyph-name="uniFBDA" unicode="&#x6c6;" horiz-adv-x="656" arabic-form="final" 
d="M234 -253c-78 0 -158 15 -158 15l6 66s87 -21 161 -21c111 0 199 42 199 165v28h-110c-191 0 -260 91 -260 234c0 131 81 247 247 247c107 0 198 -35 198 -35v-385h139v-61h-139v-26c0 -109 -71 -227 -283 -227zM442 61v334s-53 25 -132 25c-99 0 -161 -70 -161 -177
c0 -123 57 -182 195 -182h98zM452 704l-134 -129l-132 127l35 38l99 -86l98 86z" />
    <glyph glyph-name="uni06C7" unicode="&#x6c7;" horiz-adv-x="621" arabic-form="isolated" 
d="M234 -253c-78 0 -158 15 -158 15l6 66s87 -21 161 -21c111 0 199 42 199 165v28h-110c-191 0 -260 91 -260 234c0 131 81 247 247 247c107 0 198 -35 198 -35v-472c0 -109 -71 -227 -283 -227zM442 61v334s-53 25 -132 25c-99 0 -161 -70 -161 -177
c0 -123 57 -182 195 -182h98zM181 584v38l76 9s-6 15 -6 33c0 47 38 78 85 78c45 0 75 -26 75 -67c0 -48 -42 -66 -93 -73zM299 637l17 2c38 4 54 14 54 36c0 19 -15 31 -35 31c-26 0 -42 -17 -42 -43c0 -17 6 -26 6 -26z" />
    <glyph glyph-name="uniFBD8" unicode="&#x6c7;" horiz-adv-x="656" arabic-form="final" 
d="M234 -253c-78 0 -158 15 -158 15l6 66s87 -21 161 -21c111 0 199 42 199 165v28h-110c-191 0 -260 91 -260 234c0 131 81 247 247 247c107 0 198 -35 198 -35v-385h139v-61h-139v-26c0 -109 -71 -227 -283 -227zM442 61v334s-53 25 -132 25c-99 0 -161 -70 -161 -177
c0 -123 57 -182 195 -182h98zM181 584v38l76 9s-6 15 -6 33c0 47 38 78 85 78c45 0 75 -26 75 -67c0 -48 -42 -66 -93 -73zM299 637l17 2c38 4 54 14 54 36c0 19 -15 31 -35 31c-26 0 -42 -17 -42 -43c0 -17 6 -26 6 -26z" />
    <glyph glyph-name="uni06C8" unicode="&#x6c8;" horiz-adv-x="621" arabic-form="isolated" 
d="M234 -253c-78 0 -158 15 -158 15l6 66s87 -21 161 -21c111 0 199 42 199 165v28h-110c-191 0 -260 91 -260 234c0 131 81 247 247 247c107 0 198 -35 198 -35v-472c0 -109 -71 -227 -283 -227zM442 61v334s-53 25 -132 25c-99 0 -161 -70 -161 -177
c0 -123 57 -182 195 -182h98zM328 606l-56 -11v227h56v-216z" />
    <glyph glyph-name="uniFBDC" unicode="&#x6c8;" horiz-adv-x="656" arabic-form="final" 
d="M234 -253c-78 0 -158 15 -158 15l6 66s87 -21 161 -21c111 0 199 42 199 165v28h-110c-191 0 -260 91 -260 234c0 131 81 247 247 247c107 0 198 -35 198 -35v-385h139v-61h-139v-26c0 -109 -71 -227 -283 -227zM442 61v334s-53 25 -132 25c-99 0 -161 -70 -161 -177
c0 -123 57 -182 195 -182h98zM328 606l-56 -11v227h56v-216z" />
    <glyph glyph-name="uni06C9" unicode="&#x6c9;" horiz-adv-x="621" arabic-form="isolated" 
d="M234 -253c-78 0 -158 15 -158 15l6 66s87 -21 161 -21c111 0 199 42 199 165v28h-110c-191 0 -260 91 -260 234c0 131 81 247 247 247c107 0 198 -35 198 -35v-472c0 -109 -71 -227 -283 -227zM442 61v334s-53 25 -132 25c-99 0 -161 -70 -161 -177
c0 -123 57 -182 195 -182h98zM447 612l-36 -37l-98 86l-99 -86l-34 35l134 130z" />
    <glyph glyph-name="uniFBE3" unicode="&#x6c9;" horiz-adv-x="656" arabic-form="final" 
d="M234 -253c-78 0 -158 15 -158 15l6 66s87 -21 161 -21c111 0 199 42 199 165v28h-110c-191 0 -260 91 -260 234c0 131 81 247 247 247c107 0 198 -35 198 -35v-385h139v-61h-139v-26c0 -109 -71 -227 -283 -227zM442 61v334s-53 25 -132 25c-99 0 -161 -70 -161 -177
c0 -123 57 -182 195 -182h98zM447 612l-36 -37l-98 86l-99 -86l-34 35l134 130z" />
    <glyph glyph-name="uni06CA.fina" unicode="&#x6ca;" horiz-adv-x="656" 
d="M234 -253c-78 0 -158 15 -158 15l6 66s87 -21 161 -21c111 0 199 42 199 165v28h-110c-191 0 -260 91 -260 234c0 131 81 247 247 247c107 0 198 -35 198 -35v-385h139v-61h-139v-26c0 -109 -71 -227 -283 -227zM442 61v334s-53 25 -132 25c-99 0 -161 -70 -161 -177
c0 -123 57 -182 195 -182h98zM198 613c0 26 21 47 47 47s48 -20 48 -47c0 -26 -21 -47 -48 -47c-26 0 -47 20 -47 47zM337 613c0 26 21 47 47 47s47 -20 47 -47c0 -26 -21 -47 -47 -47s-47 20 -47 47z" />
    <glyph glyph-name="uni06CB" unicode="&#x6cb;" horiz-adv-x="621" arabic-form="isolated" 
d="M234 -253c-78 0 -158 15 -158 15l6 66s87 -21 161 -21c111 0 199 42 199 165v28h-110c-191 0 -260 91 -260 234c0 131 81 247 247 247c107 0 198 -35 198 -35v-472c0 -109 -71 -227 -283 -227zM442 61v334s-53 25 -132 25c-99 0 -161 -70 -161 -177
c0 -123 57 -182 195 -182h98zM197 611c0 26 21 48 47 48s47 -21 47 -48c0 -25 -21 -47 -47 -47s-47 21 -47 47zM337 611c0 26 21 48 47 48s47 -21 47 -48c0 -25 -21 -47 -47 -47s-47 21 -47 47zM267 718c0 26 21 48 47 48s47 -21 47 -48c0 -25 -21 -47 -47 -47
s-47 21 -47 47z" />
    <glyph glyph-name="uniFBDF" unicode="&#x6cb;" horiz-adv-x="656" arabic-form="final" 
d="M234 -253c-78 0 -158 15 -158 15l6 66s87 -21 161 -21c111 0 199 42 199 165v28h-110c-191 0 -260 91 -260 234c0 131 81 247 247 247c107 0 198 -35 198 -35v-385h139v-61h-139v-26c0 -109 -71 -227 -283 -227zM442 61v334s-53 25 -132 25c-99 0 -161 -70 -161 -177
c0 -123 57 -182 195 -182h98zM267 718c0 26 21 48 47 48s47 -21 47 -48c0 -25 -21 -47 -47 -47s-47 21 -47 47zM337 611c0 26 21 48 47 48s47 -21 47 -48c0 -25 -21 -47 -47 -47s-47 21 -47 47zM197 611c0 26 21 48 47 48s47 -21 47 -48c0 -25 -21 -47 -47 -47
s-47 21 -47 47z" />
    <glyph glyph-name="uni06CD.fina" unicode="&#x6cd;" horiz-adv-x="1063" 
d="M634 0h-178c-270 0 -341 110 -341 348l-87 -14v66l162 23v-88c0 -201 60 -274 277 -274h92v401s85 19 175 19c164 0 221 -81 221 -218v-202h108v-61h-183v252c0 120 -47 168 -155 168c-44 0 -91 -10 -91 -10v-410z" />
    <glyph glyph-name="uni06CE.init" unicode="&#x6ce;" 
d="M216 0h-231c-20 0 -60 11 -60 31c0 19 40 30 60 30h155v409h76v-470zM311 704l-134 -129l-132 127l35 38l99 -86l98 86zM59 -146c0 26 21 48 47 48s48 -21 48 -48c0 -26 -22 -47 -48 -47s-47 21 -47 47zM198 -146c0 26 21 48 47 48s47 -21 47 -48c0 -26 -21 -47 -47 -47
s-47 21 -47 47z" />
    <glyph glyph-name="uni06CE.medi" unicode="&#x6ce;" horiz-adv-x="356" 
d="M356 0h-371c-20 0 -60 11 -60 31c0 19 40 30 60 30h155v409h76v-409h140v-61zM310 704l-134 -129l-132 127l35 38l99 -86l98 86zM61 -146c0 26 21 48 47 48s48 -21 48 -48c0 -26 -22 -47 -48 -47s-47 21 -47 47zM200 -146c0 26 21 48 47 48s47 -21 47 -48
c0 -26 -21 -47 -47 -47s-47 21 -47 47z" />
    <glyph glyph-name="uni06CE.fina" unicode="&#x6ce;" horiz-adv-x="1030" 
d="M601 0h-178c-245 0 -343 97 -343 289c0 63 16 131 34 170l82 15c-24 -48 -40 -118 -40 -175c0 -157 60 -238 278 -238h92v401s85 19 175 19c163 0 220 -81 220 -218v-202h109v-61h-184v252c0 120 -46 168 -154 168c-45 0 -91 -10 -91 -10v-410zM503 704l-134 -129
l-132 127l35 38l99 -86l98 86z" />
    <glyph glyph-name="uni06CF.fina" unicode="&#x6cf;" horiz-adv-x="656" 
d="M234 -253c-78 0 -158 15 -158 15l6 66s87 -21 161 -21c111 0 199 42 199 165v28h-110c-191 0 -260 91 -260 234c0 131 81 247 247 247c107 0 198 -35 198 -35v-385h139v-61h-139v-26c0 -109 -71 -227 -283 -227zM442 61v334s-53 25 -132 25c-99 0 -161 -70 -161 -177
c0 -123 57 -182 195 -182h98zM270 612c0 26 22 49 48 49s49 -22 49 -49s-23 -48 -49 -48c-27 0 -48 21 -48 48z" />
    <glyph glyph-name="uni06D0" unicode="&#x6d0;" horiz-adv-x="1002" arabic-form="isolated" 
d="M601 0h-178c-245 0 -343 97 -343 289c0 63 16 131 34 170l82 15c-24 -48 -40 -118 -40 -175c0 -157 60 -238 278 -238h92v401s85 19 175 19c163 0 220 -81 220 -218v-143h-75v132c0 120 -46 168 -154 168c-45 0 -91 -10 -91 -10v-410zM383 -263c-25 0 -45 19 -45 45
s20 46 45 46c26 0 46 -19 46 -46c0 -25 -20 -45 -46 -45zM383 -138c-25 0 -45 20 -45 46c0 25 20 46 45 46c26 0 46 -20 46 -46s-20 -46 -46 -46z" />
    <glyph glyph-name="uniFBE5" unicode="&#x6d0;" horiz-adv-x="1030" arabic-form="final" 
d="M601 0h-178c-245 0 -343 97 -343 289c0 63 16 131 34 170l82 15c-24 -48 -40 -118 -40 -175c0 -157 60 -238 278 -238h92v401s85 19 175 19c163 0 220 -81 220 -218v-202h109v-61h-184v252c0 120 -46 168 -154 168c-45 0 -91 -10 -91 -10v-410zM383 -263
c-25 0 -45 19 -45 45s20 46 45 46c26 0 46 -19 46 -46c0 -25 -20 -45 -46 -45zM383 -138c-25 0 -45 20 -45 46c0 25 20 46 45 46c26 0 46 -20 46 -46s-20 -46 -46 -46z" />
    <glyph glyph-name="uniFBE6" unicode="&#x6d0;" arabic-form="initial" 
d="M216 0h-231c-20 0 -60 11 -60 31c0 19 40 30 60 30h155v409h76v-470zM156 -263c-25 0 -45 19 -45 45s20 46 45 46c26 0 46 -19 46 -46c0 -25 -20 -45 -46 -45zM156 -138c-25 0 -45 20 -45 46c0 25 20 46 45 46c26 0 46 -20 46 -46s-20 -46 -46 -46z" />
    <glyph glyph-name="uniFBE7" unicode="&#x6d0;" horiz-adv-x="356" arabic-form="medial" 
d="M356 0h-371c-20 0 -60 11 -60 31c0 19 40 30 60 30h155v409h76v-409h140v-61zM177 -138c-25 0 -45 20 -45 46c0 25 20 46 45 46c26 0 46 -20 46 -46s-20 -46 -46 -46zM177 -263c-25 0 -45 19 -45 45s20 46 45 46c26 0 46 -19 46 -46c0 -25 -20 -45 -46 -45z" />
    <glyph glyph-name="uni06D1.init" unicode="&#x6d1;" 
d="M216 0h-231c-20 0 -60 11 -60 31c0 19 40 30 60 30h155v409h76v-470zM126 -216c0 26 22 47 48 47s47 -20 47 -47c0 -26 -21 -47 -47 -47c-27 0 -48 20 -48 47zM196 -111c0 26 21 47 47 47c25 0 46 -20 46 -47c0 -25 -20 -47 -46 -47s-47 21 -47 47zM58 -111
c0 26 21 47 47 47s47 -20 47 -47c0 -25 -21 -47 -47 -47s-47 21 -47 47z" />
    <glyph glyph-name="uni06D1.medi" unicode="&#x6d1;" horiz-adv-x="356" 
d="M356 0h-371c-20 0 -60 11 -60 31c0 19 40 30 60 30h155v409h76v-409h140v-61zM128 -216c0 26 22 47 48 47s47 -20 47 -47c0 -26 -21 -47 -47 -47c-27 0 -48 20 -48 47zM60 -111c0 26 21 47 47 47s47 -20 47 -47c0 -25 -21 -47 -47 -47s-47 21 -47 47zM198 -111
c0 26 21 47 47 47c25 0 46 -20 46 -47c0 -25 -20 -47 -46 -47s-47 21 -47 47z" />
    <glyph glyph-name="uni06D1.fina" unicode="&#x6d1;" horiz-adv-x="1030" 
d="M601 0h-178c-245 0 -343 97 -343 289c0 63 16 131 34 170l82 15c-24 -48 -40 -118 -40 -175c0 -157 60 -238 278 -238h92v401s85 19 175 19c163 0 220 -81 220 -218v-202h109v-61h-184v252c0 120 -46 168 -154 168c-45 0 -91 -10 -91 -10v-410zM359 -216
c0 26 22 47 48 47s47 -20 47 -47c0 -26 -21 -47 -47 -47c-27 0 -48 20 -48 47zM429 -111c0 26 21 47 47 47c25 0 46 -20 46 -47c0 -25 -20 -47 -46 -47s-47 21 -47 47zM291 -111c0 26 21 47 47 47s47 -20 47 -47c0 -25 -21 -47 -47 -47s-47 21 -47 47z" />
    <glyph glyph-name="uni06EE.fina" unicode="&#x6ee;" horiz-adv-x="540" 
d="M61 0v61h330c-1 197 -73 303 -258 362l20 65c211 -69 309 -187 314 -427h73v-61h-479zM358 612l-36 -37l-98 86l-99 -86l-34 35l134 130z" />
    <glyph glyph-name="uni06EF.fina" unicode="&#x6ef;" horiz-adv-x="461" 
d="M96 -258c-40 0 -81 7 -112 16l10 64c33 -12 70 -20 108 -20c89 0 143 44 143 185v483h77v-409h139v-61h-139v-5c0 -148 -56 -253 -226 -253zM414 549l-36 -37l-98 86l-99 -86l-34 35l134 130z" />
    <glyph glyph-name="uni06FA.init" unicode="&#x6fa;" horiz-adv-x="865" 
d="M32 0h-47c-20 0 -60 11 -60 31c0 19 40 30 60 30h47c75 0 109 34 109 142v207h76v-181c0 -108 1 -175 89 -175c65 0 114 34 114 174v222h75v-258c0 -116 44 -131 159 -131h35c5 44 8 107 8 147c0 112 -14 207 -35 278l75 15c20 -73 37 -173 37 -286
c0 -66 -7 -150 -17 -215h-93c-134 0 -189 18 -217 85c-14 -43 -59 -92 -153 -92c-68 0 -114 37 -127 89c-18 -50 -58 -82 -135 -82zM404 -145c0 27 21 48 48 48s48 -20 48 -48c0 -27 -21 -48 -48 -48s-48 21 -48 48zM335 611c0 26 21 48 47 48s47 -21 47 -48
c0 -25 -21 -47 -47 -47s-47 21 -47 47zM475 611c0 26 21 48 47 48s47 -21 47 -48c0 -25 -21 -47 -47 -47s-47 21 -47 47zM405 718c0 26 21 48 47 48s47 -21 47 -48c0 -25 -21 -47 -47 -47s-47 21 -47 47z" />
    <glyph glyph-name="uni06FA.medi" unicode="&#x6fa;" horiz-adv-x="894" 
d="M664 0c-134 0 -189 18 -217 85c-14 -43 -59 -92 -153 -92c-68 0 -114 37 -127 89c-18 -50 -58 -82 -135 -82h-47c-20 0 -60 11 -60 31c0 19 40 30 60 30h47c75 0 109 34 109 142v207h76v-181c0 -108 1 -175 89 -175c65 0 114 34 114 174v222h75v-258
c0 -116 44 -131 159 -131h35c5 44 8 107 8 147c0 112 -14 207 -35 278l75 15c20 -73 37 -173 37 -286c0 -47 -4 -103 -9 -154h129v-61h-230zM404 -145c0 27 21 48 48 48s48 -20 48 -48c0 -27 -21 -48 -48 -48s-48 21 -48 48zM475 611c0 26 21 48 47 48s47 -21 47 -48
c0 -25 -21 -47 -47 -47s-47 21 -47 47zM335 611c0 26 21 48 47 48s47 -21 47 -48c0 -25 -21 -47 -47 -47s-47 21 -47 47zM405 718c0 26 21 48 47 48s47 -21 47 -48c0 -25 -21 -47 -47 -47s-47 21 -47 47z" />
    <glyph glyph-name="uni06FA.fina" unicode="&#x6fa;" horiz-adv-x="1228" 
d="M312 -231c-128 0 -240 70 -240 277c0 68 8 134 24 194l79 15c-18 -67 -27 -135 -27 -202c0 -178 90 -223 173 -223s154 51 154 208v372h76v-181c0 -117 25 -175 98 -175c71 0 105 51 105 174v222h75v-258c0 -115 43 -131 159 -131h35c5 44 9 108 9 147
c0 112 -15 207 -36 278l75 15c21 -73 37 -173 37 -286c0 -47 -4 -103 -9 -154h129v-61h-230c-135 0 -191 20 -217 85c-20 -67 -83 -92 -130 -92c-54 0 -82 16 -103 50c3 -210 -109 -274 -236 -274zM730 -145c0 27 21 48 48 48s48 -20 48 -48c0 -27 -21 -48 -48 -48
s-48 21 -48 48zM811 611c0 26 21 48 47 48s47 -21 47 -48c0 -25 -21 -47 -47 -47s-47 21 -47 47zM671 611c0 26 21 48 47 48s47 -21 47 -48c0 -25 -21 -47 -47 -47s-47 21 -47 47zM741 718c0 26 21 48 47 48s47 -21 47 -48c0 -25 -21 -47 -47 -47s-47 21 -47 47z" />
    <glyph glyph-name="uni06FB.init" unicode="&#x6fb;" horiz-adv-x="748" 
d="M399 0h-414c-20 0 -60 11 -60 31c0 19 40 30 60 30h155v409h76v-45c0 -58 -3 -132 -11 -191h2c47 162 162 247 282 247c124 0 196 -83 196 -228c0 -136 -73 -253 -286 -253zM215 61h192c157 0 199 86 199 186c0 106 -41 173 -130 173c-149 0 -247 -190 -261 -359z
M424 612c0 26 22 49 48 49s49 -22 49 -49s-23 -48 -49 -48c-27 0 -48 21 -48 48zM318 -145c0 27 21 48 48 48s48 -20 48 -48c0 -27 -21 -48 -48 -48s-48 21 -48 48z" />
    <glyph glyph-name="uni06FB.medi" unicode="&#x6fb;" horiz-adv-x="764" 
d="M399 0h-414c-20 0 -60 11 -60 31c0 19 40 30 60 30h155v409h76v-45c0 -58 -3 -132 -11 -191h2c47 162 162 247 282 247c124 0 196 -83 196 -228c0 -76 -23 -145 -79 -192h158v-61h-350h-15zM215 61h203c148 4 188 88 188 186c0 106 -41 173 -130 173
c-149 0 -247 -190 -261 -359zM424 612c0 26 22 49 48 49s49 -22 49 -49s-23 -48 -49 -48c-27 0 -48 21 -48 48zM318 -145c0 27 21 48 48 48s48 -20 48 -48c0 -27 -21 -48 -48 -48s-48 21 -48 48z" />
    <glyph glyph-name="uni06FB.fina" unicode="&#x6fb;" horiz-adv-x="1091" 
d="M549 0c-12 -158 -111 -231 -237 -231c-128 0 -240 70 -240 277c0 68 8 134 24 194l79 15c-18 -67 -27 -135 -27 -202c0 -178 90 -223 173 -223s154 51 154 208v432h76v-45c0 -58 -3 -132 -11 -191h2c47 162 162 247 282 247c125 0 196 -83 196 -228
c0 -76 -23 -145 -79 -192h150v-61h-342h-15h-185zM550 61h203c148 4 188 88 188 186c0 106 -41 173 -130 173c-148 0 -247 -190 -261 -359zM754 612c0 26 22 49 48 49s49 -22 49 -49s-23 -48 -49 -48c-27 0 -48 21 -48 48zM673 -145c0 27 21 48 48 48s48 -20 48 -48
c0 -27 -21 -48 -48 -48s-48 21 -48 48z" />
    <glyph glyph-name="uni06FC.init" unicode="&#x6fc;" horiz-adv-x="567" 
d="M523 0h-538c-20 0 -60 11 -60 31c0 19 40 30 60 30h216c-67 27 -119 97 -119 188c0 124 79 232 241 232c71 0 132 -24 132 -24l-14 -62s-58 26 -125 26c-93 0 -158 -62 -158 -167c0 -108 82 -193 281 -193h84v-61zM255 612c0 26 22 49 48 49s49 -22 49 -49
s-23 -48 -49 -48c-27 0 -48 21 -48 48zM232 -145c0 27 21 48 48 48s48 -20 48 -48c0 -27 -21 -48 -48 -48s-48 21 -48 48z" />
    <glyph glyph-name="uni06FC.medi" unicode="&#x6fc;" horiz-adv-x="599" 
d="M3 0h-18c-20 0 -60 11 -60 31c0 19 40 30 60 30h20c116 0 214 24 288 62c-72 68 -142 147 -249 183l6 53c77 59 188 123 289 123c132 0 186 -73 186 -152c0 -71 -44 -149 -125 -212c45 -34 94 -57 155 -57h44v-61h-56c-84 0 -146 34 -202 80c-86 -48 -200 -80 -338 -80z
M122 336c94 -36 160 -114 230 -177c62 46 97 104 97 161s-35 104 -118 104c-74 0 -162 -54 -209 -88zM271 612c0 26 22 49 48 49s49 -22 49 -49s-23 -48 -49 -48c-27 0 -48 21 -48 48zM271 -145c0 27 21 48 48 48s48 -20 48 -48c0 -27 -21 -48 -48 -48s-48 21 -48 48z" />
    <glyph glyph-name="uni06FC.fina" unicode="&#x6fc;" horiz-adv-x="633" 
d="M319 -270c-191 0 -269 82 -269 177c0 122 136 178 255 237c-65 63 -131 129 -227 162l6 53c77 59 188 123 289 123c132 0 186 -73 186 -152c0 -91 -66 -149 -146 -195c51 -43 106 -74 176 -74h44v-61h-56c-97 0 -164 45 -227 101c-110 -55 -223 -101 -223 -189
c0 -66 57 -121 201 -121c76 0 159 13 159 13l6 -58s-90 -16 -174 -16zM156 336c85 -33 148 -100 211 -160c66 38 116 80 116 144c0 57 -35 104 -117 104c-75 0 -163 -54 -210 -88zM305 612c0 26 22 49 48 49s49 -22 49 -49s-23 -48 -49 -48c-27 0 -48 21 -48 48zM304 -73
c0 27 21 48 48 48s48 -20 48 -48c0 -27 -21 -48 -48 -48s-48 21 -48 48z" />
    <glyph glyph-name="uni06FF.init" unicode="&#x6ff;" horiz-adv-x="765" 
d="M683 0h-698c-20 0 -60 11 -60 31c0 19 40 30 60 30h139c19 0 37 -2 38 -2c-2 1 -45 32 -45 99c0 103 74 164 182 164c122 0 174 -89 174 -216v-45h136v23c0 264 -99 364 -307 364c-64 0 -148 -14 -212 -35l-9 60c67 21 154 36 232 36c238 0 370 -119 370 -421v-88z
M404 60v42c0 103 -32 163 -111 163c-68 0 -106 -38 -106 -98c0 -77 56 -107 119 -107h98zM432 602l-36 -37l-98 86l-99 -86l-34 35l134 130z" />
    <glyph glyph-name="uni06FF.medi" unicode="&#x6ff;" horiz-adv-x="760" 
d="M761 0h-776c-20 0 -60 11 -60 31c0 19 40 30 60 30h139c19 0 37 -2 38 -2c-2 1 -45 32 -45 99c0 103 74 164 182 164c122 0 174 -89 174 -216v-45h136v23c0 264 -99 364 -307 364c-64 0 -148 -14 -212 -35l-9 60c67 21 154 36 232 36c238 0 370 -119 370 -421v-27h78v-61
zM404 60v42c0 103 -32 163 -111 163c-68 0 -106 -38 -106 -98c0 -77 56 -107 119 -107h98zM432 602l-36 -37l-98 86l-99 -86l-34 35l134 130z" />
    <glyph glyph-name="uni06FF.fina" unicode="&#x6ff;" horiz-adv-x="794" 
d="M794 0h-764v61h128c18 0 36 -2 37 -2c-2 1 -45 32 -45 99c0 103 74 164 182 164c122 0 174 -89 174 -216v-45h136v23c0 264 -98 364 -307 364c-64 0 -148 -14 -212 -35l-9 60c67 21 155 36 232 36c238 0 370 -119 370 -421v-27h78v-61zM437 60v42c0 103 -32 163 -110 163
c-68 0 -107 -38 -107 -98c0 -77 56 -107 120 -107h97zM466 602l-36 -37l-98 86l-99 -86l-34 35l134 130z" />
    <glyph glyph-name="uniFBA6" unicode="&#x6c1;" horiz-adv-x="613" arabic-form="isolated" 
d="M527 0h-195c-191 0 -260 91 -260 233c0 133 83 248 245 248c139 0 210 -79 210 -222v-259zM452 61v182c0 128 -53 177 -142 177c-99 0 -161 -70 -161 -178c0 -123 57 -181 195 -181h108z" />
    <glyph glyph-name="uni06C1.fina" unicode="&#x6c1;" horiz-adv-x="511" arabic-form="final" 
d="M511 61v-61h-15c-127 0 -198 67 -198 217v56c-89 -14 -167 -63 -228 -162l-52 41c76 114 190 191 332 191c11 0 23 -1 23 -1v-110c0 -122 42 -171 133 -171h5z" />
    <glyph glyph-name="uniFBA8" unicode="&#x6c1;" arabic-form="initial" 
d="M216 0h-231c-20 0 -60 11 -60 31c0 19 40 30 60 30h155v409h76v-470zM103 -239c-29 0 -47 24 -47 54c0 36 23 84 97 135l24 -28c-34 -29 -45 -55 -45 -73c0 -23 14 -25 14 -46c0 -22 -16 -42 -43 -42z" />
    <glyph glyph-name="uniFBA9" unicode="&#x6c1;" horiz-adv-x="642" arabic-form="medial" 
d="M642 61v-61h-113v-261h-75c-190 0 -290 96 -290 269c0 36 1 58 6 92l-2 1c-21 -58 -74 -101 -157 -101h-26c-20 0 -60 11 -60 31c0 19 40 30 60 30h27c116 0 151 98 151 223v86h75v-349c0 -146 68 -222 216 -222v262h188zM30 -261c-30 0 -49 25 -49 56c0 35 18 82 86 141
l28 -25c-31 -31 -41 -58 -41 -75c0 -26 18 -28 18 -54c0 -22 -16 -43 -42 -43z" />
    <glyph glyph-name="uniFBEA.isol" unicode="&#xfbea;" horiz-adv-x="598" arabic-form="isolated" 
d="M105 0v705h76v-644h77h5h155v409h76v-470h-389zM323 525v48c30 0 58 -2 76 -5c-22 9 -33 33 -33 52c0 45 34 93 122 93c20 0 38 -2 52 -5l-9 -47c-10 1 -30 4 -49 4c-39 0 -58 -17 -58 -44s21 -48 81 -48h54v-48h-236z" />
    <glyph glyph-name="uniFBEB" unicode="&#xfbeb;" horiz-adv-x="633" arabic-form="final" 
d="M105 0v705h76v-644h237v409h76v-409h139v-61h-528zM323 525v48c30 0 58 -2 76 -5c-22 9 -33 33 -33 52c0 45 34 93 122 93c20 0 38 -2 52 -5l-9 -47c-10 1 -30 4 -49 4c-39 0 -58 -17 -58 -44s21 -48 81 -48h54v-48h-236z" />
    <glyph glyph-name="uniFBF2" unicode="&#xfbf2;" horiz-adv-x="928" arabic-form="isolated" 
d="M234 -253c-78 0 -158 15 -158 15l6 66s87 -21 161 -21c111 0 199 42 199 165v28h-110c-191 0 -260 91 -260 234c0 131 81 247 247 247c107 0 198 -35 198 -35v-385h230v409h76v-470h-231h-5h-70v-26c0 -109 -71 -227 -283 -227zM442 61v334s-53 25 -132 25
c-99 0 -161 -70 -161 -177c0 -123 57 -182 195 -182h98zM653 525v48c30 0 58 -2 76 -5c-22 9 -33 33 -33 52c0 45 34 93 122 93c20 0 38 -2 52 -5l-9 -47c-10 1 -30 4 -49 4c-39 0 -58 -17 -58 -44s21 -48 81 -48h54v-48h-236zM452 704l-134 -129l-132 127l35 38l99 -86
l98 86z" />
    <glyph glyph-name="uniFBF3" unicode="&#xfbf3;" horiz-adv-x="963" arabic-form="final" 
d="M234 -253c-78 0 -158 15 -158 15l6 66s87 -21 161 -21c111 0 199 42 199 165v28h-110c-191 0 -260 91 -260 234c0 131 81 247 247 247c107 0 198 -35 198 -35v-385h70h5h155v409h76v-409h140v-61h-446v-26c0 -109 -71 -227 -283 -227zM442 61v334s-53 25 -132 25
c-99 0 -161 -70 -161 -177c0 -123 57 -182 195 -182h98zM653 525v48c30 0 58 -2 76 -5c-22 9 -33 33 -33 52c0 45 34 93 122 93c20 0 38 -2 52 -5l-9 -47c-10 1 -30 4 -49 4c-39 0 -58 -17 -58 -44s21 -48 81 -48h54v-48h-236zM452 704l-134 -129l-132 127l35 38l99 -86
l98 86z" />
    <glyph glyph-name="uniFD3C" unicode="&#xfd3c;" horiz-adv-x="286" arabic-form="final" 
d="M105 0v705h76v-705h-76zM30 770v43l224 32v-43zM30 858v43l224 32v-43z" />
    <glyph glyph-name="uniFD3D" unicode="&#xfd3d;" arabic-form="isolated" 
d="M105 0v705h76v-644h140v-61h-216zM30 858v43l224 32v-43zM30 770v43l224 32v-43z" />
    <glyph glyph-name="uniFC9F" unicode="&#xfc9f;" horiz-adv-x="1003" arabic-form="initial" 
d="M391 0c-147 0 -201 40 -234 100c-13 -56 -61 -100 -145 -100h-27c-20 0 -60 11 -60 31c0 19 40 30 60 30h13c68 0 120 30 120 175c0 130 83 245 246 245c138 0 209 -79 209 -222v-198h249v409h76v-470h-507zM498 61v182c0 128 -53 177 -142 177c-99 0 -161 -70 -161 -178
c0 -123 57 -181 195 -181h108zM806 -145c0 27 21 48 48 48s48 -20 48 -48c0 -27 -21 -48 -48 -48s-48 21 -48 48z" />
    <glyph glyph-name="uniFC08" unicode="&#xfc08;" horiz-adv-x="1136" arabic-form="isolated" 
d="M520 0c-184 0 -255 84 -260 217h-32c-76 0 -102 -47 -86 -151l52 -326h-75l-51 318c-20 133 28 220 165 220h30c16 113 98 203 242 203c138 0 210 -79 210 -222v-198h240v409h76v-470h-231h-5h-275zM640 61v182c0 128 -53 177 -143 177c-99 0 -160 -70 -160 -178
c0 -123 57 -181 195 -181h108zM939 -145c0 27 21 48 48 48s48 -20 48 -48c0 -27 -21 -48 -48 -48s-48 21 -48 48z" />
    <glyph glyph-name="uniFCA4" unicode="&#xfca4;" horiz-adv-x="1003" arabic-form="initial" 
d="M391 0c-147 0 -201 40 -234 100c-13 -56 -61 -100 -145 -100h-27c-20 0 -60 11 -60 31c0 19 40 30 60 30h13c68 0 120 30 120 175c0 130 83 245 246 245c138 0 209 -79 209 -222v-198h249v409h76v-470h-507zM498 61v182c0 128 -53 177 -142 177c-99 0 -161 -70 -161 -178
c0 -123 57 -181 195 -181h108zM740 613c0 26 21 47 47 47s48 -20 48 -47c0 -26 -21 -47 -48 -47c-26 0 -47 20 -47 47zM879 613c0 26 21 47 47 47s47 -20 47 -47c0 -26 -21 -47 -47 -47s-47 20 -47 47z" />
    <glyph glyph-name="uniFC0E" unicode="&#xfc0e;" horiz-adv-x="1136" arabic-form="isolated" 
d="M520 0c-184 0 -255 84 -260 217h-32c-76 0 -102 -47 -86 -151l52 -326h-75l-51 318c-20 133 28 220 165 220h30c16 113 98 203 242 203c138 0 210 -79 210 -222v-198h240v409h76v-470h-231h-5h-275zM640 61v182c0 128 -53 177 -143 177c-99 0 -160 -70 -160 -178
c0 -123 57 -181 195 -181h108zM873 613c0 26 21 47 47 47s48 -20 48 -47c0 -26 -21 -47 -48 -47c-26 0 -47 20 -47 47zM1012 613c0 26 21 47 47 47s47 -20 47 -47c0 -26 -21 -47 -47 -47s-47 20 -47 47z" />
    <glyph glyph-name="uniFC32" unicode="&#xfc32;" horiz-adv-x="1652" arabic-form="isolated" 
d="M601 0h-178c-245 0 -343 97 -343 289c0 63 16 131 34 170l82 15c-24 -48 -40 -118 -40 -175c0 -157 60 -238 278 -238h92v401s85 19 175 19c163 0 220 -81 220 -218v-202h212c35 0 58 -4 58 -4c-53 32 -81 89 -81 179c0 130 84 245 246 245c139 0 210 -79 210 -222v-259
h-720v252c0 120 -46 168 -154 168c-45 0 -91 -10 -91 -10v-410zM1491 61v182c0 128 -53 177 -143 177c-99 0 -160 -70 -160 -178c0 -123 57 -181 195 -181h108zM1298 612c0 26 22 49 48 49s49 -22 49 -49s-23 -48 -49 -48c-27 0 -48 21 -48 48zM285 -146c0 26 21 48 47 48
s48 -21 48 -48c0 -26 -22 -47 -48 -47s-47 21 -47 47zM424 -146c0 26 21 48 47 48s47 -21 47 -48c0 -26 -21 -47 -47 -47s-47 21 -47 47z" />
    <glyph glyph-name="uniFCC9" unicode="&#xfcc9;" horiz-adv-x="849" arabic-form="initial" 
d="M744 0h-231h-5h-523c-20 0 -60 11 -60 31c0 19 40 30 60 30h383c5 39 8 77 8 113c0 161 -56 239 -228 239c-39 0 -86 -4 -123 -10v60c31 5 85 11 129 11c219 0 298 -102 298 -293c0 -33 -3 -74 -8 -120h64h5h155v644h76v-705zM133 -145c0 27 21 48 48 48s48 -20 48 -48
c0 -27 -21 -48 -48 -48s-48 21 -48 48z" />
    <glyph glyph-name="uniFCCA" unicode="&#xfcca;" horiz-adv-x="849" arabic-form="initial" 
d="M744 0h-759c-20 0 -60 11 -60 31c0 19 40 30 60 30h383c5 39 8 77 8 113c0 161 -56 239 -228 239c-39 0 -86 -4 -123 -10v60c31 5 85 11 129 11c219 0 298 -102 298 -293c0 -33 -3 -74 -8 -120h64h5h155v644h76v-705z" />
    <glyph glyph-name="uniFCCB" unicode="&#xfccb;" horiz-adv-x="849" arabic-form="initial" 
d="M-15 0c-20 0 -60 11 -60 31c0 19 40 30 60 30h383c5 39 8 77 8 113c0 161 -56 239 -228 239c-39 0 -86 -4 -123 -10v60c31 5 85 11 129 11c219 0 298 -102 298 -293c0 -33 -3 -74 -8 -120h64h5h155v644h76v-705h-759zM133 612c0 26 22 49 48 49s49 -22 49 -49
s-23 -48 -49 -48c-27 0 -48 21 -48 48z" />
    <glyph glyph-name="uniFCCC" unicode="&#xfccc;" horiz-adv-x="1003" arabic-form="initial" 
d="M391 0c-147 0 -201 40 -234 100c-13 -56 -61 -100 -145 -100h-27c-20 0 -60 11 -60 31c0 19 40 30 60 30h13c68 0 120 30 120 175c0 130 83 245 246 245c138 0 209 -79 209 -222v-198h249v644h76v-705h-231h-5h-271zM498 61v182c0 128 -53 177 -142 177
c-99 0 -161 -70 -161 -178c0 -123 57 -181 195 -181h108z" />
    <glyph glyph-name="uniFC42" unicode="&#xfc42;" horiz-adv-x="1136" arabic-form="isolated" 
d="M1031 0h-511c-184 0 -255 84 -260 217h-32c-76 0 -102 -47 -86 -151l52 -326h-75l-51 318c-20 133 28 220 165 220h30c16 113 98 203 242 203c138 0 210 -79 210 -222v-198h80h5h155v644h76v-705zM640 61v182c0 128 -53 177 -143 177c-99 0 -160 -70 -160 -178
c0 -123 57 -181 195 -181h108z" />
    <glyph glyph-name="uniFC43" unicode="&#xfc43;" horiz-adv-x="1351" arabic-form="isolated" 
d="M601 0h-178c-245 0 -343 97 -343 289c0 63 16 131 34 170l82 15c-24 -48 -40 -118 -40 -175c0 -157 60 -238 278 -238h92v401s85 19 175 19c163 0 220 -81 220 -218v-202h89h5h155v644h76v-705h-400v252c0 120 -46 168 -154 168c-45 0 -91 -10 -91 -10v-410z" />
    <glyph glyph-name="uniFC44" unicode="&#xfc44;" horiz-adv-x="1351" arabic-form="isolated" 
d="M601 0h-178c-245 0 -343 97 -343 289c0 63 16 131 34 170l82 15c-24 -48 -40 -118 -40 -175c0 -157 60 -238 278 -238h92v401s85 19 175 19c163 0 220 -81 220 -218v-202h249v644h76v-705h-400v252c0 120 -46 168 -154 168c-45 0 -91 -10 -91 -10v-410zM285 -146
c0 26 21 48 47 48s48 -21 48 -48c0 -26 -22 -47 -48 -47s-47 21 -47 47zM424 -146c0 26 21 48 47 48s47 -21 47 -48c0 -26 -21 -47 -47 -47s-47 21 -47 47z" />
    <glyph glyph-name="uniFCD1" unicode="&#xfcd1;" horiz-adv-x="1304" arabic-form="initial" 
d="M391 0c-147 0 -201 40 -234 100c-13 -56 -61 -100 -145 -100h-27c-20 0 -60 11 -60 31c0 19 40 30 60 30h13c68 0 120 30 120 175c0 130 83 245 246 245c138 0 209 -79 209 -222v-198h89h5h118c35 0 58 -4 58 -4c-53 32 -81 89 -81 179c0 130 84 245 246 245
c139 0 210 -79 210 -222v-259h-827zM1143 61v182c0 128 -53 177 -143 177c-99 0 -160 -70 -160 -178c0 -123 57 -181 195 -181h108zM498 61v182c0 128 -53 177 -142 177c-99 0 -161 -70 -161 -178c0 -123 57 -181 195 -181h108z" />
    <glyph glyph-name="uniFC48" unicode="&#xfc48;" horiz-adv-x="1437" arabic-form="isolated" 
d="M520 0c-184 0 -255 84 -260 217h-32c-76 0 -102 -47 -86 -151l52 -326h-75l-51 318c-20 133 28 220 165 220h30c16 113 98 203 242 203c138 0 210 -79 210 -222v-198h80h5h118c35 0 58 -4 58 -4c-53 32 -81 89 -81 179c0 130 84 245 246 245c139 0 210 -79 210 -222v-259
h-551h-5h-275zM640 61v182c0 128 -53 177 -143 177c-99 0 -160 -70 -160 -178c0 -123 57 -181 195 -181h108zM1276 61v182c0 128 -53 177 -143 177c-99 0 -160 -70 -160 -178c0 -123 57 -181 195 -181h108z" />
    <glyph glyph-name="uniFCD5" unicode="&#xfcd5;" horiz-adv-x="1003" arabic-form="initial" 
d="M391 0c-147 0 -201 40 -234 100c-13 -56 -61 -100 -145 -100h-27c-20 0 -60 11 -60 31c0 19 40 30 60 30h13c68 0 120 30 120 175c0 130 83 245 246 245c138 0 209 -79 209 -222v-198h89h5h155v409h76v-470h-507zM498 61v182c0 128 -53 177 -142 177
c-99 0 -161 -70 -161 -178c0 -123 57 -181 195 -181h108zM811 612c0 26 22 49 48 49s49 -22 49 -49s-23 -48 -49 -48c-27 0 -48 21 -48 48z" />
    <glyph glyph-name="uniFC4E" unicode="&#xfc4e;" horiz-adv-x="1136" arabic-form="isolated" 
d="M1031 0h-231h-5h-275c-184 0 -255 84 -260 217h-32c-76 0 -102 -47 -86 -151l52 -326h-75l-51 318c-20 133 28 220 165 220h30c16 113 98 203 242 203c138 0 210 -79 210 -222v-198h240v409h76v-470zM640 61v182c0 128 -53 177 -143 177c-99 0 -160 -70 -160 -178
c0 -123 57 -181 195 -181h108zM944 612c0 26 22 49 48 49s49 -22 49 -49s-23 -48 -49 -48c-27 0 -48 21 -48 48z" />
    <glyph glyph-name="uniFC50" unicode="&#xfc50;" horiz-adv-x="1351" arabic-form="isolated" 
d="M601 0h-178c-245 0 -343 97 -343 289c0 63 16 131 34 170l82 15c-24 -48 -40 -118 -40 -175c0 -157 60 -238 278 -238h92v401s85 19 175 19c163 0 220 -81 220 -218v-202h89h5h155v409h76v-470h-400v252c0 120 -46 168 -154 168c-45 0 -91 -10 -91 -10v-410zM1159 612
c0 26 22 49 48 49s49 -22 49 -49s-23 -48 -49 -48c-27 0 -48 21 -48 48zM285 -146c0 26 21 48 47 48s48 -21 48 -48c0 -26 -22 -47 -48 -47s-47 21 -47 47zM424 -146c0 26 21 48 47 48s47 -21 47 -48c0 -26 -21 -47 -47 -47s-47 21 -47 47z" />
    <glyph glyph-name="uniFCDD" unicode="&#xfcdd;" horiz-adv-x="1003" arabic-form="initial" 
d="M391 0c-147 0 -201 40 -234 100c-13 -56 -61 -100 -145 -100h-27c-20 0 -60 11 -60 31c0 19 40 30 60 30h13c68 0 120 30 120 175c0 130 83 245 246 245c138 0 209 -79 209 -222v-198h249v409h76v-470h-507zM498 61v182c0 128 -53 177 -142 177c-99 0 -161 -70 -161 -178
c0 -123 57 -181 195 -181h108zM740 -146c0 26 21 48 47 48s48 -21 48 -48c0 -26 -22 -47 -48 -47s-47 21 -47 47zM879 -146c0 26 21 48 47 48s47 -21 47 -48c0 -26 -21 -47 -47 -47s-47 21 -47 47z" />
    <glyph glyph-name="uniFC58" unicode="&#xfc58;" horiz-adv-x="1136" arabic-form="isolated" 
d="M520 0c-184 0 -255 84 -260 217h-32c-76 0 -102 -47 -86 -151l52 -326h-75l-51 318c-20 133 28 220 165 220h30c16 113 98 203 242 203c138 0 210 -79 210 -222v-198h240v409h76v-470h-231h-5h-275zM640 61v182c0 128 -53 177 -143 177c-99 0 -160 -70 -160 -178
c0 -123 57 -181 195 -181h108zM873 -146c0 26 21 48 47 48s48 -21 48 -48c0 -26 -22 -47 -48 -47s-47 21 -47 47zM1012 -146c0 26 21 48 47 48s47 -21 47 -48c0 -26 -21 -47 -47 -47s-47 21 -47 47z" />
    <glyph glyph-name="uniFD88" unicode="&#xfd88;" horiz-adv-x="1530" arabic-form="initial" 
d="M-15 0c-20 0 -60 11 -60 31c0 19 40 30 60 30h383c5 39 8 77 8 113c0 161 -56 239 -228 239c-39 0 -86 -4 -123 -10v60c31 5 85 11 129 11c219 0 298 -102 298 -293c0 -33 -3 -74 -8 -120h98c68 0 120 30 120 175c0 130 83 245 246 245c138 0 209 -79 209 -222v-198h73h5
h155v644h76v-705h-491c-147 0 -201 40 -234 100c-13 -56 -61 -100 -145 -100h-571zM1042 61v182c0 128 -53 177 -142 177c-99 0 -161 -70 -161 -178c0 -123 57 -181 195 -181h108z" />
    <glyph glyph-name=".notdef" horiz-adv-x="550" 
d="M300 150h-150v250h50v-200h100v-50zM500 50h-450v450h450v-450zM350 350h-100v50h150v-250h-50v100h-100v50h100v50zM100 100h350v350h-350v-350z" />
    <glyph glyph-name=".null" horiz-adv-x="0" 
 />
    <glyph glyph-name=".null" horiz-adv-x="0" 
 />
    <glyph glyph-name="CR" unicode="&#xd;" horiz-adv-x="500" 
 />
    <glyph glyph-name="space" unicode=" " horiz-adv-x="218" 
 />
    <glyph glyph-name="exclam" unicode="!" horiz-adv-x="319" 
d="M214 701l-14 -541h-62l-14 541h90zM222 44c0 -29 -23 -52 -53 -52s-54 23 -54 52c0 30 24 53 54 53s53 -23 53 -53z" />
    <glyph glyph-name="quotedbl" unicode="&#x22;" horiz-adv-x="351" 
d="M295 698l-13 -220h-55l-13 220h81zM137 698l-14 -220h-55l-13 220h82z" />
    <glyph glyph-name="numbersign" unicode="#" horiz-adv-x="575" 
d="M539 436h-99l-21 -190h97v-52h-102l-20 -194h-61l20 194h-162l-20 -194h-61l20 194h-96v52h102l21 190h-98v51h103l20 188h61l-21 -188h162l20 188h61l-20 -188h94v-51zM379 436h-161l-21 -190h161z" />
    <glyph glyph-name="dollar" unicode="$" horiz-adv-x="488" 
d="M430 175c0 -91 -62 -162 -169 -180v-133h-57v130c-49 0 -87 5 -126 15l5 72c35 -14 92 -23 132 -23c77 0 137 30 137 108c0 144 -290 92 -290 292c0 86 65 151 163 164v107h57v-104c40 -1 77 -6 106 -12l-5 -68c-36 11 -77 18 -113 18c-100 0 -133 -47 -133 -95
c0 -140 293 -96 293 -291z" />
    <glyph glyph-name="percent" unicode="%" horiz-adv-x="746" 
d="M699 152c0 -93 -56 -161 -147 -161c-96 0 -137 56 -137 152c0 90 56 159 147 159c95 0 137 -54 137 -150zM644 659l-495 -679l-50 34l496 679zM331 535c0 -94 -56 -161 -147 -161c-96 0 -138 56 -138 151c0 91 56 159 148 159c94 0 137 -54 137 -149zM635 145
c0 69 -23 104 -79 104c-46 0 -77 -40 -77 -100c0 -70 24 -105 81 -105c44 0 75 41 75 101zM267 528c0 69 -23 104 -80 104c-45 0 -76 -41 -76 -100c0 -70 24 -106 80 -106c45 0 76 41 76 102z" />
    <glyph glyph-name="ampersand" unicode="&#x26;" horiz-adv-x="794" 
d="M733 41l-48 -58c-49 33 -104 74 -144 108c-66 -59 -155 -100 -266 -100c-139 0 -216 83 -216 194c0 93 60 155 145 221c-74 85 -97 130 -97 183c0 79 60 146 170 146c99 0 152 -56 152 -131c0 -67 -34 -126 -126 -197c61 -65 154 -154 236 -221v-1c46 63 77 152 71 258
h76c3 -115 -31 -219 -93 -298c53 -42 103 -79 140 -104zM355 596c0 44 -26 81 -86 81c-51 0 -87 -34 -87 -84c0 -35 20 -75 79 -143c61 50 94 91 94 146zM489 131c-86 72 -184 166 -244 231c-78 -62 -109 -110 -109 -167c0 -77 59 -140 154 -140c87 0 154 36 199 76z" />
    <glyph glyph-name="quotesingle" unicode="'" horiz-adv-x="192" 
d="M137 698l-14 -220h-55l-13 220h82z" />
    <glyph glyph-name="parenleft" unicode="(" horiz-adv-x="302" 
d="M278 -178l-55 -29c-121 191 -146 349 -146 491c0 140 32 313 147 495l52 -27c-82 -141 -126 -301 -126 -463c0 -172 41 -324 128 -467z" />
    <glyph glyph-name="parenright" unicode=")" horiz-adv-x="302" 
d="M231 289c0 -141 -32 -313 -147 -496l-52 28c83 140 126 301 126 463c0 172 -41 324 -127 467l55 28c120 -191 145 -348 145 -490z" />
    <glyph glyph-name="asterisk" unicode="*" horiz-adv-x="369" 
d="M322 537l-29 -51l-93 65l10 -113h-58l10 113l-93 -65l-28 50l103 48l-103 48l29 50l92 -65l-9 113h58l-10 -113l93 65l28 -49l-103 -48z" />
    <glyph glyph-name="plus" unicode="+" horiz-adv-x="550" 
d="M507 266h-197v-207h-71v207h-196v63h196v206h71v-206h197v-63z" />
    <glyph glyph-name="comma" unicode="," horiz-adv-x="217" 
d="M106 100c65 0 94 -114 -48 -247l-33 29c63 68 64 114 44 140c-25 32 -3 78 37 78z" />
    <glyph glyph-name="hyphen" unicode="-" horiz-adv-x="328" 
d="M280 260h-232v62h232v-62z" />
    <glyph glyph-name="period" unicode="." horiz-adv-x="217" 
d="M163 46c0 -30 -24 -54 -55 -54c-30 0 -54 24 -54 54s24 54 54 54c31 0 55 -24 55 -54z" />
    <glyph glyph-name="slash" unicode="/" horiz-adv-x="428" 
d="M429 757l-350 -918h-71l350 918h71z" />
    <glyph glyph-name="zero" unicode="0" horiz-adv-x="584" 
d="M531 344c0 -242 -109 -352 -246 -352c-134 0 -232 84 -232 339c0 242 109 352 246 352c134 0 232 -85 232 -339zM451 335c0 195 -55 286 -159 286c-90 0 -159 -78 -159 -282c0 -194 55 -284 159 -284c90 0 159 77 159 280z" />
    <glyph glyph-name="one" unicode="1" horiz-adv-x="349" 
d="M251 0h-77v599l-132 -52l-13 70l160 58h62v-675z" />
    <glyph glyph-name="two" unicode="2" horiz-adv-x="502" 
d="M451 0h-386v61l135 158c113 130 143 196 143 274c0 69 -39 125 -126 125c-44 0 -95 -18 -135 -41l-11 68c47 23 99 39 165 39c122 0 189 -78 189 -180c0 -95 -44 -177 -167 -318l-101 -118v-1c57 3 171 4 294 4v-71z" />
    <glyph glyph-name="three" unicode="3" horiz-adv-x="495" 
d="M428 200c0 -120 -108 -208 -256 -208c-41 0 -82 4 -108 11l10 69c25 -9 66 -14 103 -14c107 0 171 61 171 138s-67 127 -188 127c-21 0 -40 -1 -60 -3v61c155 -4 222 46 222 134c0 67 -45 106 -118 106c-44 0 -83 -12 -120 -31l-6 65c41 17 89 29 140 29
c127 0 183 -70 183 -156c0 -78 -45 -138 -116 -164v-2c83 -18 143 -76 143 -162z" />
    <glyph glyph-name="four" unicode="4" horiz-adv-x="540" 
d="M519 161h-117v-161h-75v161h-305l-5 59l283 455h102v-445h117v-69zM328 230v373h-1l-235 -376c65 3 195 3 236 3z" />
    <glyph glyph-name="five" unicode="5" horiz-adv-x="463" 
d="M425 221c0 -137 -111 -228 -264 -228c-37 0 -76 4 -100 10l10 69c24 -8 63 -14 97 -14c110 0 178 60 178 152c0 88 -63 135 -208 135c-15 0 -36 0 -53 -2v332h302v-73l-231 1v-196c185 2 269 -70 269 -186z" />
    <glyph glyph-name="six" unicode="6" horiz-adv-x="576" 
d="M523 223c0 -131 -92 -232 -230 -232c-193 0 -221 180 -221 290c0 284 151 402 337 402c21 0 43 -1 54 -2v-68c-19 4 -40 5 -61 5c-136 0 -216 -72 -244 -228c-3 -19 -6 -37 -8 -45l1 -1c30 43 90 80 169 80c125 0 203 -81 203 -201zM445 211c0 88 -50 150 -142 150
c-90 0 -147 -66 -147 -141c0 -99 53 -166 144 -166c83 0 145 61 145 157z" />
    <glyph glyph-name="seven" unicode="7" horiz-adv-x="453" 
d="M423 610c-82 -176 -165 -419 -208 -610h-85c54 219 148 472 209 604c-29 -2 -262 -2 -313 -2v73h397v-65z" />
    <glyph glyph-name="eight" unicode="8" horiz-adv-x="549" 
d="M485 170c0 -113 -97 -179 -221 -179c-133 0 -203 71 -203 165c0 87 70 142 143 188c-85 48 -132 98 -132 171c0 102 83 173 210 173c117 0 189 -68 189 -158c0 -80 -66 -131 -136 -176c87 -48 150 -102 150 -184zM392 523c0 57 -40 103 -118 103s-125 -41 -125 -102
c0 -58 48 -96 125 -138c84 52 118 89 118 137zM405 160c0 73 -69 113 -141 152c-65 -40 -123 -82 -123 -148c0 -67 50 -110 133 -110c71 0 131 37 131 106z" />
    <glyph glyph-name="nine" unicode="9" horiz-adv-x="582" 
d="M510 394c0 -280 -142 -403 -336 -403c-25 0 -56 2 -79 6v71c28 -7 63 -10 87 -10c134 0 211 70 238 221c4 20 7 40 10 49l-1 1c-29 -43 -89 -80 -168 -80c-124 0 -202 81 -202 202c0 130 92 233 229 233c194 0 222 -181 222 -290zM425 455c0 100 -54 166 -144 166
c-82 0 -144 -61 -144 -157c0 -88 49 -151 141 -151c90 0 147 68 147 142z" />
    <glyph glyph-name="colon" unicode=":" horiz-adv-x="282" 
d="M211 343c0 -30 -24 -55 -54 -55s-55 25 -55 55s25 54 55 54s54 -24 54 -54zM211 46c0 -30 -24 -54 -54 -54s-55 24 -55 54s25 54 55 54s54 -24 54 -54z" />
    <glyph glyph-name="semicolon" unicode=";" horiz-adv-x="282" 
d="M211 343c0 -30 -24 -55 -54 -55s-55 25 -55 55s25 54 55 54s54 -24 54 -54zM156 100c65 0 94 -114 -48 -247l-33 29c62 68 63 114 44 140c-25 32 -3 78 37 78z" />
    <glyph glyph-name="semicolon" unicode="&#x37e;" horiz-adv-x="282" 
d="M211 343c0 -30 -24 -55 -54 -55s-55 25 -55 55s25 54 55 54s54 -24 54 -54zM156 100c65 0 94 -114 -48 -247l-33 29c62 68 63 114 44 140c-25 32 -3 78 37 78z" />
    <glyph glyph-name="less" unicode="&#x3c;" horiz-adv-x="550" 
d="M438 76l-48 -52l-315 279l315 279l48 -48l-267 -230z" />
    <glyph glyph-name="equal" unicode="=" horiz-adv-x="550" 
d="M493 347h-436v63h436v-63zM493 185h-436v62h436v-62z" />
    <glyph glyph-name="greater" unicode="&#x3e;" horiz-adv-x="550" 
d="M475 304l-315 -280l-48 48l267 231l-267 228l48 51z" />
    <glyph glyph-name="question" unicode="?" horiz-adv-x="443" 
d="M378 518c0 -165 -208 -164 -151 -358h-73c-64 202 141 223 141 350c0 68 -80 123 -205 128l10 69c173 -6 278 -92 278 -189zM244 44c0 -29 -23 -52 -53 -52s-53 23 -53 52c0 30 23 53 53 53s53 -23 53 -53z" />
    <glyph glyph-name="at" unicode="@" horiz-adv-x="981" 
d="M885 403c0 -176 -98 -274 -222 -274c-86 0 -115 58 -106 114h-3c-14 -41 -79 -114 -153 -114c-66 0 -96 48 -96 131c0 147 75 269 223 269c45 0 90 -5 122 -13l-40 -218c-13 -74 12 -106 66 -106c79 0 139 72 139 207s-82 273 -295 273c-201 0 -361 -158 -361 -380
c0 -193 112 -316 317 -316c60 0 112 8 167 24l10 -62c-57 -18 -128 -26 -185 -26c-238 0 -380 144 -380 369c0 263 200 451 437 451c243 0 360 -157 360 -329zM577 468c-17 5 -39 7 -64 7c-100 0 -142 -121 -142 -200c0 -54 16 -82 48 -82c53 0 118 72 147 219z" />
    <glyph glyph-name="A" unicode="A" horiz-adv-x="611" 
d="M598 0h-87l-58 166h-301l-60 -166h-79l250 675h85zM432 227l-100 274l-30 91h-1c-8 -28 -18 -58 -28 -89l-100 -276h259z" />
    <glyph glyph-name="B" unicode="B" horiz-adv-x="566" 
d="M511 200c0 -87 -57 -203 -259 -203c-49 0 -103 2 -161 3v675c46 1 106 3 187 3c144 0 212 -62 212 -160c0 -74 -45 -135 -122 -161v-1c86 -10 143 -71 143 -156zM410 505c0 64 -33 112 -145 112c-34 0 -69 -1 -98 -2v-236c21 -1 40 -1 65 -1c120 0 178 47 178 127z
M431 194c0 93 -79 126 -198 126c-12 0 -49 0 -66 -1v-255c19 -2 62 -5 93 -5c120 0 171 59 171 135z" />
    <glyph glyph-name="C" unicode="C" horiz-adv-x="590" 
d="M544 30c-52 -22 -120 -37 -190 -37c-209 0 -305 130 -305 329c0 204 97 360 328 360c52 0 109 -8 158 -22l-13 -71c-50 17 -105 28 -158 28c-164 0 -232 -128 -232 -282c0 -174 77 -274 242 -274c52 0 113 14 155 35z" />
    </font>
</defs>
</svg>
